<?xml version="1.0" encoding="UTF-8" standalone="no"?>
<!DOCTYPE svg PUBLIC "-//W3C//DTD SVG 1.1//EN" "http://www.w3.org/Graphics/SVG/1.1/DTD/svg11.dtd">
<svg width="100%" height="100%" viewBox="0 0 134 121" version="1.1" xmlns="http://www.w3.org/2000/svg" xmlns:xlink="http://www.w3.org/1999/xlink" xml:space="preserve" xmlns:serif="http://www.serif.com/" style="fill-rule:evenodd;clip-rule:evenodd;stroke-linejoin:round;stroke-miterlimit:2;">
    <g transform="matrix(1,0,0,1,-7.5,-4.98851)">
        <g transform="matrix(1.00009,0,0,1.00009,-11.6767,4.98851)">
            <path d="M152.336,57.604L135.897,54.547C135.497,54.472 135.059,54.096 134.924,53.71L129.885,41.954C129.697,41.591 129.733,41.021 129.965,40.683L139.543,26.723C139.772,26.387 139.727,25.876 139.438,25.587L127.475,13.624C127.186,13.335 126.676,13.288 126.34,13.519L112.135,23.267C111.799,23.498 111.223,23.539 110.858,23.359L99.462,18.694C99.075,18.566 98.698,18.133 98.622,17.732L95.457,0.729C95.383,0.328 94.988,0 94.58,0L77.66,0C77.253,0 76.858,0.328 76.784,0.729L73.62,17.732C73.544,18.133 73.168,18.566 72.78,18.694L61.383,23.359C61.017,23.539 60.441,23.498 60.106,23.267L45.902,13.519C45.565,13.288 45.054,13.335 44.766,13.624L32.802,25.587C32.514,25.876 32.466,26.387 32.697,26.723L42.276,40.683C42.506,41.021 42.542,41.591 42.355,41.954L37.315,53.71C37.181,54.096 36.744,54.472 36.342,54.547L19.904,57.604C19.502,57.68 19.175,58.074 19.175,58.482L19.176,75.401C19.176,75.809 19.504,76.206 19.905,76.279L35.94,79.263C36.341,79.336 36.77,79.717 36.892,80.106L41.898,92.611C42.077,92.978 42.035,93.552 41.803,93.888L32.695,107.161C32.465,107.497 32.512,108.009 32.8,108.298L44.765,120.261C45.053,120.548 45.564,120.595 45.901,120.366L58.939,111.417C59.275,111.187 59.838,111.169 60.189,111.374L65.939,114.444C66.303,114.63 66.728,114.473 66.884,114.096L78.74,85.449C78.897,85.072 78.74,84.591 78.392,84.378L76.953,83.497C76.687,83.335 76.326,83.056 76.043,82.8C70.852,79.476 67.408,73.661 67.408,67.039C67.408,56.705 75.786,48.328 86.119,48.328C96.452,48.328 104.829,56.705 104.829,67.039C104.829,73.661 101.386,79.476 96.194,82.8C95.913,83.056 95.551,83.335 95.286,83.497L93.847,84.378C93.501,84.591 93.343,85.072 93.499,85.449L105.354,114.097C105.51,114.474 105.934,114.63 106.299,114.445L112.049,111.375C112.401,111.17 112.963,111.187 113.299,111.418L126.338,120.367C126.674,120.596 127.186,120.549 127.473,120.262L139.438,108.299C139.727,108.01 139.774,107.498 139.543,107.162L130.434,93.889C130.204,93.553 130.161,92.979 130.34,92.612L135.346,80.107C135.469,79.718 135.895,79.337 136.297,79.264L152.332,76.28C152.732,76.207 153.061,75.81 153.061,75.402L153.063,58.483C153.064,58.074 152.736,57.68 152.336,57.604" style="fill-rule:nonzero;"/>
        </g>
    </g>
</svg>
