%TF.GenerationSoftware,KiCad,Pcbnew,7.0.7*%
%TF.CreationDate,2023-09-18T16:49:01-04:00*%
%TF.ProjectId,Encoder Mount,456e636f-6465-4722-904d-6f756e742e6b,rev?*%
%TF.SameCoordinates,Original*%
%TF.FileFunction,Legend,Bot*%
%TF.FilePolarity,Positive*%
%FSLAX46Y46*%
G04 Gerber Fmt 4.6, Leading zero omitted, Abs format (unit mm)*
G04 Created by KiCad (PCBNEW 7.0.7) date 2023-09-18 16:49:01*
%MOMM*%
%LPD*%
G01*
G04 APERTURE LIST*
G04 Aperture macros list*
%AMRoundRect*
0 Rectangle with rounded corners*
0 $1 Rounding radius*
0 $2 $3 $4 $5 $6 $7 $8 $9 X,Y pos of 4 corners*
0 Add a 4 corners polygon primitive as box body*
4,1,4,$2,$3,$4,$5,$6,$7,$8,$9,$2,$3,0*
0 Add four circle primitives for the rounded corners*
1,1,$1+$1,$2,$3*
1,1,$1+$1,$4,$5*
1,1,$1+$1,$6,$7*
1,1,$1+$1,$8,$9*
0 Add four rect primitives between the rounded corners*
20,1,$1+$1,$2,$3,$4,$5,0*
20,1,$1+$1,$4,$5,$6,$7,0*
20,1,$1+$1,$6,$7,$8,$9,0*
20,1,$1+$1,$8,$9,$2,$3,0*%
%AMFreePoly0*
4,1,6,1.000000,0.000000,0.500000,-0.750000,-0.500000,-0.750000,-0.500000,0.750000,0.500000,0.750000,1.000000,0.000000,1.000000,0.000000,$1*%
%AMFreePoly1*
4,1,6,0.500000,-0.750000,-0.650000,-0.750000,-0.150000,0.000000,-0.650000,0.750000,0.500000,0.750000,0.500000,-0.750000,0.500000,-0.750000,$1*%
G04 Aperture macros list end*
%ADD10C,0.150000*%
%ADD11C,0.100000*%
%ADD12C,0.120000*%
%ADD13C,0.000000*%
%ADD14C,2.600000*%
%ADD15C,3.500000*%
%ADD16C,4.000000*%
%ADD17R,2.000000X2.000000*%
%ADD18C,2.000000*%
%ADD19C,3.200000*%
%ADD20R,1.700000X1.700000*%
%ADD21O,1.700000X1.700000*%
%ADD22FreePoly0,0.000000*%
%ADD23FreePoly1,0.000000*%
%ADD24RoundRect,0.225000X0.225000X0.375000X-0.225000X0.375000X-0.225000X-0.375000X0.225000X-0.375000X0*%
G04 APERTURE END LIST*
D10*
X108010839Y-99543430D02*
X107677506Y-100019621D01*
X107439411Y-99543430D02*
X107439411Y-100543430D01*
X107439411Y-100543430D02*
X107820363Y-100543430D01*
X107820363Y-100543430D02*
X107915601Y-100495811D01*
X107915601Y-100495811D02*
X107963220Y-100448192D01*
X107963220Y-100448192D02*
X108010839Y-100352954D01*
X108010839Y-100352954D02*
X108010839Y-100210097D01*
X108010839Y-100210097D02*
X107963220Y-100114859D01*
X107963220Y-100114859D02*
X107915601Y-100067240D01*
X107915601Y-100067240D02*
X107820363Y-100019621D01*
X107820363Y-100019621D02*
X107439411Y-100019621D01*
X105271428Y-97192013D02*
X105309524Y-97230108D01*
X105309524Y-97230108D02*
X105385714Y-97268203D01*
X105385714Y-97268203D02*
X105576190Y-97268203D01*
X105576190Y-97268203D02*
X105652381Y-97230108D01*
X105652381Y-97230108D02*
X105690476Y-97192013D01*
X105690476Y-97192013D02*
X105728571Y-97115822D01*
X105728571Y-97115822D02*
X105728571Y-97039632D01*
X105728571Y-97039632D02*
X105690476Y-96925346D01*
X105690476Y-96925346D02*
X105233333Y-96468203D01*
X105233333Y-96468203D02*
X105728571Y-96468203D01*
X105747619Y-102870894D02*
X105709523Y-102832799D01*
X105709523Y-102832799D02*
X105595238Y-102794703D01*
X105595238Y-102794703D02*
X105519047Y-102794703D01*
X105519047Y-102794703D02*
X105404761Y-102832799D01*
X105404761Y-102832799D02*
X105328571Y-102908989D01*
X105328571Y-102908989D02*
X105290476Y-102985179D01*
X105290476Y-102985179D02*
X105252380Y-103137560D01*
X105252380Y-103137560D02*
X105252380Y-103251846D01*
X105252380Y-103251846D02*
X105290476Y-103404227D01*
X105290476Y-103404227D02*
X105328571Y-103480418D01*
X105328571Y-103480418D02*
X105404761Y-103556608D01*
X105404761Y-103556608D02*
X105519047Y-103594703D01*
X105519047Y-103594703D02*
X105595238Y-103594703D01*
X105595238Y-103594703D02*
X105709523Y-103556608D01*
X105709523Y-103556608D02*
X105747619Y-103518513D01*
D11*
X105880951Y-102548532D02*
X105119047Y-102548532D01*
D10*
X94071428Y-102552239D02*
X94214285Y-102504620D01*
X94214285Y-102504620D02*
X94261904Y-102457001D01*
X94261904Y-102457001D02*
X94309523Y-102361763D01*
X94309523Y-102361763D02*
X94309523Y-102218906D01*
X94309523Y-102218906D02*
X94261904Y-102123668D01*
X94261904Y-102123668D02*
X94214285Y-102076049D01*
X94214285Y-102076049D02*
X94119047Y-102028429D01*
X94119047Y-102028429D02*
X93738095Y-102028429D01*
X93738095Y-102028429D02*
X93738095Y-103028429D01*
X93738095Y-103028429D02*
X94071428Y-103028429D01*
X94071428Y-103028429D02*
X94166666Y-102980810D01*
X94166666Y-102980810D02*
X94214285Y-102933191D01*
X94214285Y-102933191D02*
X94261904Y-102837953D01*
X94261904Y-102837953D02*
X94261904Y-102742715D01*
X94261904Y-102742715D02*
X94214285Y-102647477D01*
X94214285Y-102647477D02*
X94166666Y-102599858D01*
X94166666Y-102599858D02*
X94071428Y-102552239D01*
X94071428Y-102552239D02*
X93738095Y-102552239D01*
X94261904Y-100480810D02*
X94166666Y-100528429D01*
X94166666Y-100528429D02*
X94023809Y-100528429D01*
X94023809Y-100528429D02*
X93880952Y-100480810D01*
X93880952Y-100480810D02*
X93785714Y-100385572D01*
X93785714Y-100385572D02*
X93738095Y-100290334D01*
X93738095Y-100290334D02*
X93690476Y-100099858D01*
X93690476Y-100099858D02*
X93690476Y-99957001D01*
X93690476Y-99957001D02*
X93738095Y-99766525D01*
X93738095Y-99766525D02*
X93785714Y-99671287D01*
X93785714Y-99671287D02*
X93880952Y-99576049D01*
X93880952Y-99576049D02*
X94023809Y-99528429D01*
X94023809Y-99528429D02*
X94119047Y-99528429D01*
X94119047Y-99528429D02*
X94261904Y-99576049D01*
X94261904Y-99576049D02*
X94309523Y-99623668D01*
X94309523Y-99623668D02*
X94309523Y-99957001D01*
X94309523Y-99957001D02*
X94119047Y-99957001D01*
D11*
X105880951Y-97536032D02*
X105119047Y-97536032D01*
D10*
X105709522Y-98544108D02*
X105633332Y-98582203D01*
X105633332Y-98582203D02*
X105519046Y-98582203D01*
X105519046Y-98582203D02*
X105404760Y-98544108D01*
X105404760Y-98544108D02*
X105328570Y-98467918D01*
X105328570Y-98467918D02*
X105290475Y-98391727D01*
X105290475Y-98391727D02*
X105252379Y-98239346D01*
X105252379Y-98239346D02*
X105252379Y-98125060D01*
X105252379Y-98125060D02*
X105290475Y-97972679D01*
X105290475Y-97972679D02*
X105328570Y-97896489D01*
X105328570Y-97896489D02*
X105404760Y-97820299D01*
X105404760Y-97820299D02*
X105519046Y-97782203D01*
X105519046Y-97782203D02*
X105595237Y-97782203D01*
X105595237Y-97782203D02*
X105709522Y-97820299D01*
X105709522Y-97820299D02*
X105747618Y-97858394D01*
X105747618Y-97858394D02*
X105747618Y-98125060D01*
X105747618Y-98125060D02*
X105595237Y-98125060D01*
D11*
X104394360Y-100184509D02*
X104370551Y-100160700D01*
X104370551Y-100160700D02*
X104299122Y-100136890D01*
X104299122Y-100136890D02*
X104251503Y-100136890D01*
X104251503Y-100136890D02*
X104180075Y-100160700D01*
X104180075Y-100160700D02*
X104132456Y-100208319D01*
X104132456Y-100208319D02*
X104108646Y-100255938D01*
X104108646Y-100255938D02*
X104084837Y-100351176D01*
X104084837Y-100351176D02*
X104084837Y-100422604D01*
X104084837Y-100422604D02*
X104108646Y-100517842D01*
X104108646Y-100517842D02*
X104132456Y-100565461D01*
X104132456Y-100565461D02*
X104180075Y-100613080D01*
X104180075Y-100613080D02*
X104251503Y-100636890D01*
X104251503Y-100636890D02*
X104299122Y-100636890D01*
X104299122Y-100636890D02*
X104370551Y-100613080D01*
X104370551Y-100613080D02*
X104394360Y-100589271D01*
X104584837Y-100589271D02*
X104608646Y-100613080D01*
X104608646Y-100613080D02*
X104656265Y-100636890D01*
X104656265Y-100636890D02*
X104775313Y-100636890D01*
X104775313Y-100636890D02*
X104822932Y-100613080D01*
X104822932Y-100613080D02*
X104846741Y-100589271D01*
X104846741Y-100589271D02*
X104870551Y-100541652D01*
X104870551Y-100541652D02*
X104870551Y-100494033D01*
X104870551Y-100494033D02*
X104846741Y-100422604D01*
X104846741Y-100422604D02*
X104561027Y-100136890D01*
X104561027Y-100136890D02*
X104870551Y-100136890D01*
X105370550Y-100136890D02*
X105203884Y-100374985D01*
X105084836Y-100136890D02*
X105084836Y-100636890D01*
X105084836Y-100636890D02*
X105275312Y-100636890D01*
X105275312Y-100636890D02*
X105322931Y-100613080D01*
X105322931Y-100613080D02*
X105346741Y-100589271D01*
X105346741Y-100589271D02*
X105370550Y-100541652D01*
X105370550Y-100541652D02*
X105370550Y-100470223D01*
X105370550Y-100470223D02*
X105346741Y-100422604D01*
X105346741Y-100422604D02*
X105322931Y-100398795D01*
X105322931Y-100398795D02*
X105275312Y-100374985D01*
X105275312Y-100374985D02*
X105084836Y-100374985D01*
X105703884Y-99970223D02*
X105703884Y-100684509D01*
X104227694Y-99165223D02*
X104227694Y-99879509D01*
X104870550Y-99331890D02*
X104703884Y-99569985D01*
X104584836Y-99331890D02*
X104584836Y-99831890D01*
X104584836Y-99831890D02*
X104775312Y-99831890D01*
X104775312Y-99831890D02*
X104822931Y-99808080D01*
X104822931Y-99808080D02*
X104846741Y-99784271D01*
X104846741Y-99784271D02*
X104870550Y-99736652D01*
X104870550Y-99736652D02*
X104870550Y-99665223D01*
X104870550Y-99665223D02*
X104846741Y-99617604D01*
X104846741Y-99617604D02*
X104822931Y-99593795D01*
X104822931Y-99593795D02*
X104775312Y-99569985D01*
X104775312Y-99569985D02*
X104584836Y-99569985D01*
X105061027Y-99784271D02*
X105084836Y-99808080D01*
X105084836Y-99808080D02*
X105132455Y-99831890D01*
X105132455Y-99831890D02*
X105251503Y-99831890D01*
X105251503Y-99831890D02*
X105299122Y-99808080D01*
X105299122Y-99808080D02*
X105322931Y-99784271D01*
X105322931Y-99784271D02*
X105346741Y-99736652D01*
X105346741Y-99736652D02*
X105346741Y-99689033D01*
X105346741Y-99689033D02*
X105322931Y-99617604D01*
X105322931Y-99617604D02*
X105037217Y-99331890D01*
X105037217Y-99331890D02*
X105346741Y-99331890D01*
X105846740Y-99379509D02*
X105822931Y-99355700D01*
X105822931Y-99355700D02*
X105751502Y-99331890D01*
X105751502Y-99331890D02*
X105703883Y-99331890D01*
X105703883Y-99331890D02*
X105632455Y-99355700D01*
X105632455Y-99355700D02*
X105584836Y-99403319D01*
X105584836Y-99403319D02*
X105561026Y-99450938D01*
X105561026Y-99450938D02*
X105537217Y-99546176D01*
X105537217Y-99546176D02*
X105537217Y-99617604D01*
X105537217Y-99617604D02*
X105561026Y-99712842D01*
X105561026Y-99712842D02*
X105584836Y-99760461D01*
X105584836Y-99760461D02*
X105632455Y-99808080D01*
X105632455Y-99808080D02*
X105703883Y-99831890D01*
X105703883Y-99831890D02*
X105751502Y-99831890D01*
X105751502Y-99831890D02*
X105822931Y-99808080D01*
X105822931Y-99808080D02*
X105846740Y-99784271D01*
D10*
X105778571Y-101480703D02*
X105321428Y-101480703D01*
X105550000Y-101480703D02*
X105550000Y-102280703D01*
X105550000Y-102280703D02*
X105473809Y-102166418D01*
X105473809Y-102166418D02*
X105397619Y-102090227D01*
X105397619Y-102090227D02*
X105321428Y-102052132D01*
X93761906Y-97314144D02*
X94238096Y-97314144D01*
X93666668Y-97028429D02*
X94000001Y-98028429D01*
X94000001Y-98028429D02*
X94333334Y-97028429D01*
X94182323Y-105961847D02*
X94420418Y-105295180D01*
X94420418Y-105295180D02*
X94658513Y-105961847D01*
X95563275Y-105295180D02*
X94991847Y-105295180D01*
X95277561Y-105295180D02*
X95277561Y-106295180D01*
X95277561Y-106295180D02*
X95182323Y-106152323D01*
X95182323Y-106152323D02*
X95087085Y-106057085D01*
X95087085Y-106057085D02*
X94991847Y-106009466D01*
X95991847Y-105390419D02*
X96039466Y-105342800D01*
X96039466Y-105342800D02*
X95991847Y-105295180D01*
X95991847Y-105295180D02*
X95944228Y-105342800D01*
X95944228Y-105342800D02*
X95991847Y-105390419D01*
X95991847Y-105390419D02*
X95991847Y-105295180D01*
X96658513Y-106295180D02*
X96753751Y-106295180D01*
X96753751Y-106295180D02*
X96848989Y-106247561D01*
X96848989Y-106247561D02*
X96896608Y-106199942D01*
X96896608Y-106199942D02*
X96944227Y-106104704D01*
X96944227Y-106104704D02*
X96991846Y-105914228D01*
X96991846Y-105914228D02*
X96991846Y-105676133D01*
X96991846Y-105676133D02*
X96944227Y-105485657D01*
X96944227Y-105485657D02*
X96896608Y-105390419D01*
X96896608Y-105390419D02*
X96848989Y-105342800D01*
X96848989Y-105342800D02*
X96753751Y-105295180D01*
X96753751Y-105295180D02*
X96658513Y-105295180D01*
X96658513Y-105295180D02*
X96563275Y-105342800D01*
X96563275Y-105342800D02*
X96515656Y-105390419D01*
X96515656Y-105390419D02*
X96468037Y-105485657D01*
X96468037Y-105485657D02*
X96420418Y-105676133D01*
X96420418Y-105676133D02*
X96420418Y-105914228D01*
X96420418Y-105914228D02*
X96468037Y-106104704D01*
X96468037Y-106104704D02*
X96515656Y-106199942D01*
X96515656Y-106199942D02*
X96563275Y-106247561D01*
X96563275Y-106247561D02*
X96658513Y-106295180D01*
X102812017Y-94367609D02*
X102735827Y-94405704D01*
X102735827Y-94405704D02*
X102621541Y-94405704D01*
X102621541Y-94405704D02*
X102507255Y-94367609D01*
X102507255Y-94367609D02*
X102431065Y-94291419D01*
X102431065Y-94291419D02*
X102392970Y-94215228D01*
X102392970Y-94215228D02*
X102354874Y-94062847D01*
X102354874Y-94062847D02*
X102354874Y-93948561D01*
X102354874Y-93948561D02*
X102392970Y-93796180D01*
X102392970Y-93796180D02*
X102431065Y-93719990D01*
X102431065Y-93719990D02*
X102507255Y-93643800D01*
X102507255Y-93643800D02*
X102621541Y-93605704D01*
X102621541Y-93605704D02*
X102697732Y-93605704D01*
X102697732Y-93605704D02*
X102812017Y-93643800D01*
X102812017Y-93643800D02*
X102850113Y-93681895D01*
X102850113Y-93681895D02*
X102850113Y-93948561D01*
X102850113Y-93948561D02*
X102697732Y-93948561D01*
X103192970Y-93910466D02*
X103802494Y-93910466D01*
X103650113Y-93758085D02*
X103802494Y-93910466D01*
X103802494Y-93910466D02*
X103650113Y-94062847D01*
X104145350Y-94329514D02*
X104183446Y-94367609D01*
X104183446Y-94367609D02*
X104259636Y-94405704D01*
X104259636Y-94405704D02*
X104450112Y-94405704D01*
X104450112Y-94405704D02*
X104526303Y-94367609D01*
X104526303Y-94367609D02*
X104564398Y-94329514D01*
X104564398Y-94329514D02*
X104602493Y-94253323D01*
X104602493Y-94253323D02*
X104602493Y-94177133D01*
X104602493Y-94177133D02*
X104564398Y-94062847D01*
X104564398Y-94062847D02*
X104107255Y-93605704D01*
X104107255Y-93605704D02*
X104602493Y-93605704D01*
X102858333Y-97905704D02*
X102858333Y-97334276D01*
X102858333Y-97334276D02*
X102820238Y-97219990D01*
X102820238Y-97219990D02*
X102744047Y-97143800D01*
X102744047Y-97143800D02*
X102629762Y-97105704D01*
X102629762Y-97105704D02*
X102553571Y-97105704D01*
X103239286Y-97105704D02*
X103239286Y-97905704D01*
X103239286Y-97905704D02*
X103544048Y-97905704D01*
X103544048Y-97905704D02*
X103620238Y-97867609D01*
X103620238Y-97867609D02*
X103658333Y-97829514D01*
X103658333Y-97829514D02*
X103696429Y-97753323D01*
X103696429Y-97753323D02*
X103696429Y-97639038D01*
X103696429Y-97639038D02*
X103658333Y-97562847D01*
X103658333Y-97562847D02*
X103620238Y-97524752D01*
X103620238Y-97524752D02*
X103544048Y-97486657D01*
X103544048Y-97486657D02*
X103239286Y-97486657D01*
X104458333Y-97105704D02*
X104001190Y-97105704D01*
X104229762Y-97105704D02*
X104229762Y-97905704D01*
X104229762Y-97905704D02*
X104153571Y-97791419D01*
X104153571Y-97791419D02*
X104077381Y-97715228D01*
X104077381Y-97715228D02*
X104001190Y-97677133D01*
X102789160Y-101137704D02*
X102789160Y-101937704D01*
X102789160Y-101937704D02*
X102979636Y-101937704D01*
X102979636Y-101937704D02*
X103093922Y-101899609D01*
X103093922Y-101899609D02*
X103170112Y-101823419D01*
X103170112Y-101823419D02*
X103208207Y-101747228D01*
X103208207Y-101747228D02*
X103246303Y-101594847D01*
X103246303Y-101594847D02*
X103246303Y-101480561D01*
X103246303Y-101480561D02*
X103208207Y-101328180D01*
X103208207Y-101328180D02*
X103170112Y-101251990D01*
X103170112Y-101251990D02*
X103093922Y-101175800D01*
X103093922Y-101175800D02*
X102979636Y-101137704D01*
X102979636Y-101137704D02*
X102789160Y-101137704D01*
X104008207Y-101137704D02*
X103551064Y-101137704D01*
X103779636Y-101137704D02*
X103779636Y-101937704D01*
X103779636Y-101937704D02*
X103703445Y-101823419D01*
X103703445Y-101823419D02*
X103627255Y-101747228D01*
X103627255Y-101747228D02*
X103551064Y-101709133D01*
D12*
X102125000Y-94750000D02*
X102125000Y-96750000D01*
X102125000Y-96750000D02*
X104925000Y-96750000D01*
X104925000Y-94750000D02*
X102125000Y-94750000D01*
X104925000Y-96750000D02*
X104925000Y-94750000D01*
%LPC*%
D13*
G36*
X96690619Y-92655690D02*
G01*
X96692651Y-92655959D01*
X96694653Y-92656385D01*
X96696609Y-92656970D01*
X96698503Y-92657710D01*
X96700319Y-92658604D01*
X96701193Y-92659109D01*
X96702043Y-92659651D01*
X96702865Y-92660232D01*
X96703658Y-92660850D01*
X96704420Y-92661506D01*
X96705149Y-92662200D01*
X97021751Y-92978749D01*
X97022450Y-92979483D01*
X97023110Y-92980249D01*
X97023733Y-92981047D01*
X97024317Y-92981873D01*
X97024863Y-92982726D01*
X97025371Y-92983603D01*
X97025841Y-92984504D01*
X97026271Y-92985426D01*
X97026663Y-92986367D01*
X97027016Y-92987325D01*
X97027603Y-92989285D01*
X97028032Y-92991290D01*
X97028301Y-92993326D01*
X97028408Y-92995376D01*
X97028353Y-92997425D01*
X97028134Y-92999458D01*
X97027963Y-93000463D01*
X97027750Y-93001459D01*
X97027495Y-93002442D01*
X97027199Y-93003412D01*
X97026860Y-93004367D01*
X97026479Y-93005303D01*
X97026056Y-93006220D01*
X97025590Y-93007116D01*
X97025081Y-93007988D01*
X97024530Y-93008835D01*
X96783499Y-93360048D01*
X96782416Y-93361786D01*
X96781451Y-93363654D01*
X96780604Y-93365636D01*
X96779877Y-93367713D01*
X96779272Y-93369869D01*
X96778789Y-93372086D01*
X96778430Y-93374347D01*
X96778197Y-93376636D01*
X96778091Y-93378933D01*
X96778113Y-93381224D01*
X96778264Y-93383489D01*
X96778547Y-93385712D01*
X96778961Y-93387876D01*
X96779509Y-93389963D01*
X96780193Y-93391956D01*
X96781012Y-93393838D01*
X96913474Y-93724730D01*
X96913802Y-93725694D01*
X96914176Y-93726655D01*
X96915053Y-93728564D01*
X96916093Y-93730445D01*
X96917283Y-93732286D01*
X96918610Y-93734075D01*
X96920062Y-93735802D01*
X96921625Y-93737453D01*
X96923288Y-93739018D01*
X96925037Y-93740486D01*
X96926860Y-93741843D01*
X96928744Y-93743080D01*
X96930677Y-93744183D01*
X96932645Y-93745142D01*
X96934637Y-93745945D01*
X96935637Y-93746284D01*
X96936639Y-93746580D01*
X96937640Y-93746831D01*
X96938638Y-93747036D01*
X97362936Y-93825995D01*
X97363923Y-93826201D01*
X97364897Y-93826455D01*
X97365858Y-93826757D01*
X97366804Y-93827105D01*
X97367734Y-93827497D01*
X97368647Y-93827931D01*
X97369541Y-93828406D01*
X97370415Y-93828922D01*
X97371269Y-93829475D01*
X97372100Y-93830065D01*
X97372908Y-93830690D01*
X97373691Y-93831348D01*
X97374448Y-93832038D01*
X97375177Y-93832759D01*
X97375879Y-93833509D01*
X97376550Y-93834287D01*
X97377191Y-93835090D01*
X97377799Y-93835918D01*
X97378373Y-93836769D01*
X97378913Y-93837641D01*
X97379417Y-93838534D01*
X97379884Y-93839444D01*
X97380312Y-93840372D01*
X97380700Y-93841314D01*
X97381048Y-93842271D01*
X97381353Y-93843240D01*
X97381614Y-93844220D01*
X97381831Y-93845209D01*
X97382002Y-93846205D01*
X97382126Y-93847208D01*
X97382201Y-93848216D01*
X97382226Y-93849227D01*
X97382279Y-94296916D01*
X97382256Y-94297929D01*
X97382184Y-94298939D01*
X97382062Y-94299943D01*
X97381894Y-94300940D01*
X97381680Y-94301929D01*
X97381420Y-94302909D01*
X97381118Y-94303877D01*
X97380773Y-94304833D01*
X97380386Y-94305775D01*
X97379961Y-94306701D01*
X97378994Y-94308501D01*
X97377884Y-94310221D01*
X97376639Y-94311850D01*
X97375270Y-94313375D01*
X97373787Y-94314786D01*
X97372199Y-94316069D01*
X97370516Y-94317214D01*
X97369643Y-94317731D01*
X97368750Y-94318209D01*
X97367838Y-94318647D01*
X97366908Y-94319042D01*
X97365963Y-94319394D01*
X97365002Y-94319701D01*
X97364028Y-94319962D01*
X97363042Y-94320175D01*
X96928054Y-94401065D01*
X96926060Y-94401529D01*
X96924056Y-94402168D01*
X96922054Y-94402971D01*
X96920068Y-94403927D01*
X96918112Y-94405024D01*
X96916199Y-94406252D01*
X96914341Y-94407599D01*
X96912552Y-94409053D01*
X96910845Y-94410604D01*
X96909233Y-94412240D01*
X96907730Y-94413950D01*
X96906349Y-94415723D01*
X96905103Y-94417547D01*
X96904006Y-94419410D01*
X96903069Y-94421303D01*
X96902308Y-94423213D01*
X96768972Y-94734285D01*
X96768109Y-94736148D01*
X96767383Y-94738121D01*
X96766794Y-94740189D01*
X96766341Y-94742335D01*
X96766022Y-94744540D01*
X96765837Y-94746789D01*
X96765785Y-94749065D01*
X96765863Y-94751349D01*
X96766072Y-94753626D01*
X96766410Y-94755878D01*
X96766876Y-94758088D01*
X96767469Y-94760239D01*
X96768188Y-94762315D01*
X96769032Y-94764298D01*
X96769999Y-94766171D01*
X96771089Y-94767917D01*
X97024530Y-95137308D01*
X97025077Y-95138155D01*
X97025581Y-95139027D01*
X97026044Y-95139922D01*
X97026464Y-95140839D01*
X97026842Y-95141775D01*
X97027179Y-95142729D01*
X97027727Y-95144681D01*
X97028111Y-95146680D01*
X97028330Y-95148710D01*
X97028386Y-95150757D01*
X97028281Y-95152804D01*
X97028015Y-95154837D01*
X97027589Y-95156840D01*
X97027005Y-95158798D01*
X97026264Y-95160695D01*
X97025367Y-95162516D01*
X97024860Y-95163393D01*
X97024315Y-95164245D01*
X97023731Y-95165071D01*
X97023109Y-95165868D01*
X97022449Y-95166634D01*
X97021751Y-95167368D01*
X96705202Y-95483917D01*
X96704468Y-95484615D01*
X96703702Y-95485276D01*
X96702905Y-95485898D01*
X96702080Y-95486483D01*
X96701229Y-95487029D01*
X96700352Y-95487537D01*
X96699453Y-95488006D01*
X96698533Y-95488437D01*
X96697594Y-95488829D01*
X96696638Y-95489181D01*
X96694683Y-95489769D01*
X96692682Y-95490197D01*
X96690652Y-95490466D01*
X96688607Y-95490574D01*
X96686562Y-95490519D01*
X96684534Y-95490300D01*
X96683531Y-95490129D01*
X96682537Y-95489916D01*
X96681555Y-95489661D01*
X96680587Y-95489364D01*
X96679634Y-95489026D01*
X96678698Y-95488645D01*
X96677782Y-95488222D01*
X96676887Y-95487756D01*
X96676016Y-95487247D01*
X96675169Y-95486696D01*
X96299295Y-95228757D01*
X96297556Y-95227670D01*
X96295686Y-95226702D01*
X96293703Y-95225854D01*
X96291622Y-95225128D01*
X96289463Y-95224524D01*
X96287243Y-95224044D01*
X96284978Y-95223690D01*
X96282687Y-95223461D01*
X96280387Y-95223360D01*
X96278096Y-95223388D01*
X96275830Y-95223545D01*
X96273608Y-95223834D01*
X96271447Y-95224254D01*
X96269365Y-95224809D01*
X96267378Y-95225498D01*
X96265504Y-95226322D01*
X95963958Y-95349761D01*
X95962999Y-95350102D01*
X95962043Y-95350489D01*
X95961091Y-95350919D01*
X95960145Y-95351392D01*
X95958276Y-95352459D01*
X95956448Y-95353676D01*
X95954670Y-95355029D01*
X95952955Y-95356506D01*
X95951314Y-95358094D01*
X95949758Y-95359780D01*
X95948299Y-95361551D01*
X95946947Y-95363393D01*
X95945715Y-95365293D01*
X95944612Y-95367239D01*
X95943651Y-95369218D01*
X95942843Y-95371215D01*
X95942199Y-95373219D01*
X95941943Y-95374220D01*
X95941731Y-95375217D01*
X95857983Y-95825128D01*
X95857775Y-95826117D01*
X95857518Y-95827093D01*
X95857215Y-95828056D01*
X95856866Y-95829003D01*
X95856474Y-95829935D01*
X95856039Y-95830848D01*
X95855564Y-95831744D01*
X95855049Y-95832619D01*
X95854496Y-95833472D01*
X95853907Y-95834304D01*
X95853284Y-95835112D01*
X95852626Y-95835894D01*
X95851937Y-95836651D01*
X95851218Y-95837381D01*
X95850470Y-95838081D01*
X95849694Y-95838752D01*
X95848893Y-95839392D01*
X95848067Y-95839999D01*
X95847218Y-95840573D01*
X95846347Y-95841112D01*
X95845457Y-95841615D01*
X95844549Y-95842081D01*
X95843623Y-95842509D01*
X95842682Y-95842896D01*
X95841727Y-95843243D01*
X95840760Y-95843547D01*
X95839781Y-95843808D01*
X95838793Y-95844024D01*
X95837798Y-95844195D01*
X95836795Y-95844318D01*
X95835788Y-95844393D01*
X95834777Y-95844418D01*
X95387062Y-95844418D01*
X95386053Y-95844393D01*
X95385048Y-95844318D01*
X95384048Y-95844195D01*
X95383054Y-95844024D01*
X95382068Y-95843808D01*
X95381091Y-95843547D01*
X95380125Y-95843243D01*
X95379172Y-95842896D01*
X95378232Y-95842509D01*
X95377308Y-95842081D01*
X95375511Y-95841112D01*
X95373794Y-95839999D01*
X95372167Y-95838752D01*
X95370645Y-95837381D01*
X95369237Y-95835894D01*
X95367957Y-95834304D01*
X95367368Y-95833472D01*
X95366815Y-95832619D01*
X95366301Y-95831744D01*
X95365825Y-95830848D01*
X95365391Y-95829935D01*
X95364998Y-95829003D01*
X95364650Y-95828056D01*
X95364347Y-95827093D01*
X95364090Y-95826117D01*
X95363882Y-95825128D01*
X95280160Y-95375217D01*
X95279692Y-95373219D01*
X95279049Y-95371215D01*
X95278242Y-95369218D01*
X95277283Y-95367239D01*
X95276182Y-95365293D01*
X95274951Y-95363393D01*
X95273601Y-95361551D01*
X95272143Y-95359780D01*
X95270588Y-95358094D01*
X95268947Y-95356506D01*
X95267233Y-95355029D01*
X95265455Y-95353676D01*
X95263625Y-95352459D01*
X95261753Y-95351392D01*
X95259853Y-95350489D01*
X95257933Y-95349761D01*
X94956360Y-95226322D01*
X94954482Y-95225498D01*
X94952492Y-95224809D01*
X94950405Y-95224254D01*
X94948242Y-95223834D01*
X94946017Y-95223545D01*
X94943750Y-95223388D01*
X94941458Y-95223360D01*
X94939158Y-95223461D01*
X94936867Y-95223690D01*
X94934603Y-95224044D01*
X94932385Y-95224524D01*
X94930228Y-95225128D01*
X94928150Y-95225854D01*
X94926170Y-95226702D01*
X94924304Y-95227670D01*
X94922570Y-95228757D01*
X94546722Y-95486696D01*
X94545873Y-95487247D01*
X94544999Y-95487756D01*
X94544101Y-95488222D01*
X94543183Y-95488645D01*
X94542245Y-95489026D01*
X94541290Y-95489364D01*
X94539335Y-95489916D01*
X94537334Y-95490300D01*
X94535302Y-95490519D01*
X94533254Y-95490574D01*
X94531206Y-95490466D01*
X94529174Y-95490197D01*
X94527171Y-95489769D01*
X94525215Y-95489181D01*
X94523321Y-95488437D01*
X94521502Y-95487537D01*
X94520627Y-95487029D01*
X94519777Y-95486483D01*
X94518953Y-95485898D01*
X94518158Y-95485276D01*
X94517394Y-95484615D01*
X94516663Y-95483917D01*
X94200087Y-95167368D01*
X94199391Y-95166634D01*
X94198733Y-95165868D01*
X94198112Y-95165071D01*
X94197529Y-95164245D01*
X94196984Y-95163393D01*
X94196477Y-95162516D01*
X94196008Y-95161616D01*
X94195578Y-95160695D01*
X94195187Y-95159755D01*
X94194834Y-95158798D01*
X94194247Y-95156840D01*
X94193818Y-95154837D01*
X94193548Y-95152804D01*
X94193439Y-95150757D01*
X94193492Y-95148710D01*
X94193709Y-95146680D01*
X94193880Y-95145675D01*
X94194092Y-95144681D01*
X94194346Y-95143698D01*
X94194642Y-95142729D01*
X94194980Y-95141775D01*
X94195360Y-95140839D01*
X94195783Y-95139922D01*
X94196249Y-95139027D01*
X94196757Y-95138155D01*
X94197308Y-95137308D01*
X94450776Y-94767917D01*
X94451856Y-94766171D01*
X94452816Y-94764298D01*
X94453652Y-94762315D01*
X94454366Y-94760239D01*
X94454954Y-94758088D01*
X94455416Y-94755878D01*
X94455751Y-94753626D01*
X94455959Y-94751349D01*
X94456036Y-94749065D01*
X94455984Y-94746789D01*
X94455800Y-94744540D01*
X94455483Y-94742335D01*
X94455032Y-94740189D01*
X94454446Y-94738121D01*
X94453725Y-94736148D01*
X94452866Y-94734285D01*
X94319504Y-94423213D01*
X94319148Y-94422257D01*
X94318747Y-94421303D01*
X94317816Y-94419410D01*
X94316723Y-94417547D01*
X94315481Y-94415723D01*
X94314104Y-94413950D01*
X94312604Y-94412240D01*
X94310995Y-94410604D01*
X94309290Y-94409053D01*
X94307502Y-94407599D01*
X94305644Y-94406252D01*
X94303728Y-94405024D01*
X94301770Y-94403927D01*
X94299780Y-94402971D01*
X94297773Y-94402168D01*
X94295761Y-94401529D01*
X94294757Y-94401275D01*
X94293758Y-94401065D01*
X93858796Y-94320175D01*
X93857805Y-94319962D01*
X93856827Y-94319701D01*
X93855863Y-94319394D01*
X93854914Y-94319042D01*
X93853981Y-94318647D01*
X93853066Y-94318209D01*
X93852171Y-94317732D01*
X93851295Y-94317215D01*
X93850441Y-94316660D01*
X93849609Y-94316070D01*
X93848801Y-94315445D01*
X93848019Y-94314787D01*
X93847262Y-94314097D01*
X93846533Y-94313377D01*
X93845833Y-94312629D01*
X93845163Y-94311853D01*
X93844524Y-94311052D01*
X93843917Y-94310226D01*
X93843344Y-94309377D01*
X93842805Y-94308508D01*
X93842303Y-94307618D01*
X93841838Y-94306710D01*
X93841412Y-94305785D01*
X93841025Y-94304844D01*
X93840679Y-94303890D01*
X93840375Y-94302923D01*
X93840115Y-94301945D01*
X93839899Y-94300958D01*
X93839729Y-94299963D01*
X93839606Y-94298961D01*
X93839532Y-94297953D01*
X93839507Y-94296943D01*
X93839533Y-93849254D01*
X93839558Y-93848243D01*
X93839633Y-93847235D01*
X93839756Y-93846232D01*
X93839927Y-93845235D01*
X93840143Y-93844246D01*
X93840404Y-93843266D01*
X93840708Y-93842297D01*
X93841055Y-93841341D01*
X93841870Y-93839471D01*
X93842839Y-93837668D01*
X93843952Y-93835945D01*
X93845199Y-93834313D01*
X93846571Y-93832786D01*
X93848057Y-93831374D01*
X93849647Y-93830091D01*
X93850479Y-93829501D01*
X93851333Y-93828948D01*
X93852208Y-93828433D01*
X93853103Y-93827957D01*
X93854016Y-93827523D01*
X93854948Y-93827131D01*
X93855895Y-93826784D01*
X93856858Y-93826482D01*
X93857834Y-93826227D01*
X93858823Y-93826021D01*
X94283120Y-93747063D01*
X94284117Y-93746858D01*
X94285117Y-93746607D01*
X94287117Y-93745972D01*
X94289109Y-93745169D01*
X94291079Y-93744210D01*
X94293015Y-93743106D01*
X94294903Y-93741870D01*
X94296730Y-93740512D01*
X94298484Y-93739045D01*
X94300152Y-93737480D01*
X94301720Y-93735828D01*
X94303175Y-93734102D01*
X94304505Y-93732312D01*
X94305697Y-93730471D01*
X94306737Y-93728591D01*
X94307613Y-93726682D01*
X94307985Y-93725720D01*
X94308311Y-93724756D01*
X94440773Y-93393865D01*
X94441593Y-93391983D01*
X94442277Y-93389989D01*
X94442826Y-93387902D01*
X94443242Y-93385739D01*
X94443526Y-93383515D01*
X94443678Y-93381250D01*
X94443701Y-93378960D01*
X94443595Y-93376662D01*
X94443361Y-93374374D01*
X94443002Y-93372112D01*
X94442517Y-93369895D01*
X94441908Y-93367739D01*
X94441177Y-93365662D01*
X94440325Y-93363681D01*
X94439352Y-93361812D01*
X94438260Y-93360074D01*
X94197255Y-93008861D01*
X94196706Y-93008015D01*
X94196200Y-93007142D01*
X94195736Y-93006247D01*
X94195315Y-93005330D01*
X94194936Y-93004393D01*
X94194599Y-93003439D01*
X94194050Y-93001485D01*
X94193668Y-92999484D01*
X94193451Y-92997451D01*
X94193397Y-92995402D01*
X94193505Y-92993352D01*
X94193773Y-92991317D01*
X94194201Y-92989311D01*
X94194787Y-92987351D01*
X94195529Y-92985452D01*
X94196426Y-92983630D01*
X94196932Y-92982752D01*
X94197477Y-92981899D01*
X94198059Y-92981073D01*
X94198680Y-92980276D01*
X94199338Y-92979510D01*
X94200034Y-92978776D01*
X94516636Y-92662226D01*
X94517368Y-92661533D01*
X94518132Y-92660877D01*
X94518927Y-92660259D01*
X94519750Y-92659678D01*
X94520601Y-92659135D01*
X94521476Y-92658631D01*
X94522374Y-92658164D01*
X94523294Y-92657736D01*
X94524233Y-92657347D01*
X94525189Y-92656996D01*
X94527145Y-92656412D01*
X94529147Y-92655985D01*
X94531180Y-92655717D01*
X94533228Y-92655609D01*
X94535275Y-92655662D01*
X94537307Y-92655878D01*
X94538313Y-92656047D01*
X94539309Y-92656258D01*
X94540293Y-92656510D01*
X94541263Y-92656803D01*
X94542219Y-92657139D01*
X94543156Y-92657516D01*
X94544075Y-92657935D01*
X94544972Y-92658397D01*
X94545847Y-92658901D01*
X94546696Y-92659448D01*
X94891690Y-92896245D01*
X94893425Y-92897320D01*
X94895283Y-92898264D01*
X94897249Y-92899075D01*
X94899303Y-92899753D01*
X94901431Y-92900298D01*
X94903614Y-92900710D01*
X94905836Y-92900987D01*
X94908080Y-92901130D01*
X94910328Y-92901138D01*
X94912564Y-92901011D01*
X94914770Y-92900748D01*
X94916930Y-92900349D01*
X94919027Y-92899813D01*
X94921043Y-92899141D01*
X94922962Y-92898330D01*
X94924766Y-92897382D01*
X95076916Y-92816148D01*
X95077823Y-92815713D01*
X95078738Y-92815331D01*
X95079660Y-92815001D01*
X95080586Y-92814722D01*
X95081515Y-92814494D01*
X95082446Y-92814316D01*
X95083377Y-92814187D01*
X95084305Y-92814108D01*
X95085231Y-92814077D01*
X95086152Y-92814094D01*
X95087066Y-92814158D01*
X95087972Y-92814269D01*
X95088868Y-92814425D01*
X95089753Y-92814628D01*
X95090625Y-92814875D01*
X95091482Y-92815166D01*
X95092323Y-92815501D01*
X95093147Y-92815879D01*
X95093951Y-92816299D01*
X95094735Y-92816761D01*
X95095495Y-92817265D01*
X95096232Y-92817809D01*
X95096943Y-92818393D01*
X95097627Y-92819017D01*
X95098282Y-92819680D01*
X95098906Y-92820381D01*
X95099498Y-92821119D01*
X95100056Y-92821895D01*
X95100579Y-92822707D01*
X95101066Y-92823555D01*
X95101513Y-92824438D01*
X95101921Y-92825357D01*
X95415639Y-93583377D01*
X95416004Y-93584320D01*
X95416321Y-93585277D01*
X95416591Y-93586247D01*
X95416814Y-93587227D01*
X95416990Y-93588217D01*
X95417121Y-93589213D01*
X95417248Y-93591220D01*
X95417199Y-93593235D01*
X95416979Y-93595241D01*
X95416593Y-93597226D01*
X95416046Y-93599174D01*
X95415342Y-93601071D01*
X95414486Y-93602903D01*
X95413484Y-93604655D01*
X95412339Y-93606313D01*
X95411056Y-93607863D01*
X95410365Y-93608592D01*
X95409641Y-93609289D01*
X95408885Y-93609952D01*
X95408097Y-93610579D01*
X95407279Y-93611167D01*
X95406431Y-93611716D01*
X95368354Y-93635028D01*
X95365605Y-93636773D01*
X95362675Y-93638765D01*
X95359616Y-93640961D01*
X95356483Y-93643317D01*
X95353328Y-93645789D01*
X95350206Y-93648334D01*
X95347170Y-93650909D01*
X95344274Y-93653471D01*
X95319073Y-93670724D01*
X95295020Y-93689457D01*
X95272182Y-93709604D01*
X95250625Y-93731100D01*
X95230415Y-93753880D01*
X95211617Y-93777878D01*
X95194297Y-93803030D01*
X95178521Y-93829269D01*
X95164355Y-93856531D01*
X95157896Y-93870526D01*
X95151864Y-93884751D01*
X95146267Y-93899199D01*
X95141114Y-93913863D01*
X95136413Y-93928733D01*
X95132172Y-93943801D01*
X95128398Y-93959060D01*
X95125102Y-93974501D01*
X95122289Y-93990116D01*
X95119970Y-94005898D01*
X95118152Y-94021837D01*
X95116843Y-94037925D01*
X95116052Y-94054155D01*
X95115786Y-94070518D01*
X95116430Y-94095997D01*
X95118343Y-94121141D01*
X95121491Y-94145919D01*
X95125846Y-94170301D01*
X95131375Y-94194255D01*
X95138047Y-94217750D01*
X95145831Y-94240754D01*
X95154697Y-94263238D01*
X95164613Y-94285170D01*
X95175547Y-94306518D01*
X95187469Y-94327251D01*
X95200348Y-94347339D01*
X95214153Y-94366751D01*
X95228851Y-94385454D01*
X95244413Y-94403419D01*
X95260807Y-94420613D01*
X95278003Y-94437007D01*
X95295968Y-94452568D01*
X95314672Y-94467266D01*
X95334083Y-94481070D01*
X95354171Y-94493948D01*
X95374905Y-94505869D01*
X95396253Y-94516803D01*
X95418184Y-94526717D01*
X95440667Y-94535582D01*
X95463671Y-94543366D01*
X95487165Y-94550038D01*
X95511118Y-94555566D01*
X95535498Y-94559920D01*
X95560275Y-94563069D01*
X95585417Y-94564980D01*
X95610893Y-94565625D01*
X95636369Y-94564980D01*
X95661511Y-94563069D01*
X95686287Y-94559920D01*
X95710667Y-94555566D01*
X95734619Y-94550038D01*
X95758112Y-94543366D01*
X95781115Y-94535582D01*
X95803597Y-94526717D01*
X95825528Y-94516803D01*
X95846874Y-94505869D01*
X95867607Y-94493948D01*
X95887694Y-94481070D01*
X95907104Y-94467266D01*
X95925807Y-94452568D01*
X95943771Y-94437007D01*
X95960965Y-94420613D01*
X95977358Y-94403419D01*
X95992918Y-94385454D01*
X96007616Y-94366751D01*
X96021419Y-94347339D01*
X96034297Y-94327251D01*
X96046218Y-94306518D01*
X96057151Y-94285170D01*
X96067066Y-94263238D01*
X96075931Y-94240754D01*
X96083714Y-94217750D01*
X96090386Y-94194255D01*
X96095914Y-94170301D01*
X96100268Y-94145919D01*
X96103417Y-94121141D01*
X96105329Y-94095997D01*
X96105973Y-94070518D01*
X96104916Y-94037925D01*
X96101790Y-94005898D01*
X96096660Y-93974501D01*
X96089591Y-93943801D01*
X96080650Y-93913863D01*
X96069902Y-93884751D01*
X96057413Y-93856531D01*
X96043248Y-93829269D01*
X96027473Y-93803030D01*
X96010153Y-93777878D01*
X95991356Y-93753880D01*
X95971145Y-93731100D01*
X95949586Y-93709604D01*
X95926747Y-93689457D01*
X95902691Y-93670724D01*
X95877484Y-93653471D01*
X95874605Y-93650909D01*
X95871580Y-93648334D01*
X95868464Y-93645789D01*
X95865312Y-93643317D01*
X95862181Y-93640961D01*
X95859125Y-93638765D01*
X95856199Y-93636773D01*
X95853458Y-93635028D01*
X95815381Y-93611716D01*
X95814537Y-93611167D01*
X95813723Y-93610579D01*
X95812940Y-93609952D01*
X95812187Y-93609289D01*
X95811466Y-93608592D01*
X95810778Y-93607863D01*
X95810122Y-93607102D01*
X95809499Y-93606313D01*
X95808911Y-93605497D01*
X95808357Y-93604655D01*
X95807838Y-93603790D01*
X95807356Y-93602903D01*
X95806909Y-93601996D01*
X95806500Y-93601071D01*
X95806129Y-93600129D01*
X95805796Y-93599174D01*
X95805501Y-93598205D01*
X95805247Y-93597226D01*
X95805032Y-93596237D01*
X95804858Y-93595241D01*
X95804726Y-93594240D01*
X95804635Y-93593235D01*
X95804587Y-93592228D01*
X95804583Y-93591220D01*
X95804622Y-93590215D01*
X95804705Y-93589213D01*
X95804834Y-93588217D01*
X95805008Y-93587227D01*
X95805228Y-93586247D01*
X95805495Y-93585277D01*
X95805810Y-93584320D01*
X95806173Y-93583377D01*
X96119865Y-92825330D01*
X96120272Y-92824412D01*
X96120720Y-92823529D01*
X96121205Y-92822681D01*
X96121728Y-92821869D01*
X96122286Y-92821094D01*
X96122877Y-92820356D01*
X96123501Y-92819656D01*
X96124155Y-92818994D01*
X96124838Y-92818371D01*
X96125548Y-92817788D01*
X96126284Y-92817245D01*
X96127044Y-92816742D01*
X96127826Y-92816280D01*
X96128630Y-92815861D01*
X96129453Y-92815484D01*
X96130293Y-92815149D01*
X96131150Y-92814859D01*
X96132022Y-92814612D01*
X96132906Y-92814410D01*
X96133802Y-92814254D01*
X96134708Y-92814143D01*
X96135622Y-92814079D01*
X96136543Y-92814062D01*
X96137469Y-92814093D01*
X96138398Y-92814171D01*
X96139330Y-92814299D01*
X96140261Y-92814476D01*
X96141192Y-92814703D01*
X96142119Y-92814980D01*
X96143043Y-92815309D01*
X96143960Y-92815689D01*
X96144870Y-92816122D01*
X96297019Y-92897356D01*
X96298828Y-92898304D01*
X96300750Y-92899115D01*
X96302768Y-92899789D01*
X96304866Y-92900326D01*
X96307027Y-92900727D01*
X96309233Y-92900992D01*
X96311469Y-92901120D01*
X96313716Y-92901114D01*
X96315958Y-92900972D01*
X96318178Y-92900695D01*
X96320360Y-92900283D01*
X96322486Y-92899738D01*
X96324539Y-92899058D01*
X96326503Y-92898245D01*
X96328361Y-92897298D01*
X96330095Y-92896218D01*
X96675116Y-92659421D01*
X96675963Y-92658875D01*
X96676835Y-92658371D01*
X96677731Y-92657909D01*
X96678648Y-92657490D01*
X96679584Y-92657112D01*
X96680538Y-92656777D01*
X96682491Y-92656231D01*
X96684492Y-92655851D01*
X96686523Y-92655635D01*
X96688571Y-92655582D01*
X96690619Y-92655690D01*
G37*
D14*
X91460000Y-94250000D03*
D15*
X91460000Y-94250000D03*
D14*
X108040000Y-94250000D03*
D15*
X108040000Y-94250000D03*
D16*
X100000000Y-99999999D03*
D17*
X92500000Y-97499999D03*
D18*
X92500000Y-102499999D03*
X92500000Y-99999999D03*
D19*
X100000000Y-94399999D03*
X100000000Y-105599999D03*
D18*
X107000000Y-102499999D03*
X107000000Y-97499999D03*
D14*
X108040000Y-105750000D03*
D15*
X108040000Y-105750000D03*
D20*
X109040000Y-97474999D03*
D21*
X109040000Y-100014999D03*
X109040000Y-102554999D03*
D20*
X90460000Y-97474999D03*
D21*
X90460000Y-100014999D03*
X90460000Y-102554999D03*
D14*
X91460000Y-105750000D03*
D15*
X91460000Y-105750000D03*
D22*
X102800000Y-95750000D03*
D23*
X104250000Y-95750000D03*
D24*
X106650000Y-100000000D03*
X103350000Y-100000000D03*
%LPD*%
M02*
