%TF.GenerationSoftware,KiCad,Pcbnew,7.0.7*%
%TF.CreationDate,2023-09-18T16:35:53-04:00*%
%TF.ProjectId,Encoder Mount,456e636f-6465-4722-904d-6f756e742e6b,rev?*%
%TF.SameCoordinates,Original*%
%TF.FileFunction,Legend,Top*%
%TF.FilePolarity,Positive*%
%FSLAX46Y46*%
G04 Gerber Fmt 4.6, Leading zero omitted, Abs format (unit mm)*
G04 Created by KiCad (PCBNEW 7.0.7) date 2023-09-18 16:35:53*
%MOMM*%
%LPD*%
G01*
G04 APERTURE LIST*
%ADD10C,0.150000*%
%ADD11C,0.100000*%
%ADD12C,0.120000*%
%ADD13C,2.600000*%
%ADD14C,3.500000*%
%ADD15C,4.000000*%
%ADD16R,2.000000X2.000000*%
%ADD17C,2.000000*%
%ADD18C,3.200000*%
%ADD19R,1.700000X1.700000*%
%ADD20O,1.700000X1.700000*%
G04 APERTURE END LIST*
D10*
X94235589Y-97685853D02*
X94711779Y-97685853D01*
X94140351Y-97971568D02*
X94473684Y-96971568D01*
X94473684Y-96971568D02*
X94807017Y-97971568D01*
X94761904Y-99519187D02*
X94666666Y-99471568D01*
X94666666Y-99471568D02*
X94523809Y-99471568D01*
X94523809Y-99471568D02*
X94380952Y-99519187D01*
X94380952Y-99519187D02*
X94285714Y-99614425D01*
X94285714Y-99614425D02*
X94238095Y-99709663D01*
X94238095Y-99709663D02*
X94190476Y-99900139D01*
X94190476Y-99900139D02*
X94190476Y-100042996D01*
X94190476Y-100042996D02*
X94238095Y-100233472D01*
X94238095Y-100233472D02*
X94285714Y-100328710D01*
X94285714Y-100328710D02*
X94380952Y-100423949D01*
X94380952Y-100423949D02*
X94523809Y-100471568D01*
X94523809Y-100471568D02*
X94619047Y-100471568D01*
X94619047Y-100471568D02*
X94761904Y-100423949D01*
X94761904Y-100423949D02*
X94809523Y-100376329D01*
X94809523Y-100376329D02*
X94809523Y-100042996D01*
X94809523Y-100042996D02*
X94619047Y-100042996D01*
X105221428Y-97770484D02*
X105259524Y-97732389D01*
X105259524Y-97732389D02*
X105335714Y-97694294D01*
X105335714Y-97694294D02*
X105526190Y-97694294D01*
X105526190Y-97694294D02*
X105602381Y-97732389D01*
X105602381Y-97732389D02*
X105640476Y-97770484D01*
X105640476Y-97770484D02*
X105678571Y-97846675D01*
X105678571Y-97846675D02*
X105678571Y-97922865D01*
X105678571Y-97922865D02*
X105640476Y-98037151D01*
X105640476Y-98037151D02*
X105183333Y-98494294D01*
X105183333Y-98494294D02*
X105678571Y-98494294D01*
D11*
X105830951Y-102478966D02*
X105069047Y-102478966D01*
D10*
X105697619Y-102156604D02*
X105659523Y-102194700D01*
X105659523Y-102194700D02*
X105545238Y-102232795D01*
X105545238Y-102232795D02*
X105469047Y-102232795D01*
X105469047Y-102232795D02*
X105354761Y-102194700D01*
X105354761Y-102194700D02*
X105278571Y-102118509D01*
X105278571Y-102118509D02*
X105240476Y-102042319D01*
X105240476Y-102042319D02*
X105202380Y-101889938D01*
X105202380Y-101889938D02*
X105202380Y-101775652D01*
X105202380Y-101775652D02*
X105240476Y-101623271D01*
X105240476Y-101623271D02*
X105278571Y-101547080D01*
X105278571Y-101547080D02*
X105354761Y-101470890D01*
X105354761Y-101470890D02*
X105469047Y-101432795D01*
X105469047Y-101432795D02*
X105545238Y-101432795D01*
X105545238Y-101432795D02*
X105659523Y-101470890D01*
X105659523Y-101470890D02*
X105697619Y-101508985D01*
X105659522Y-96418389D02*
X105583332Y-96380294D01*
X105583332Y-96380294D02*
X105469046Y-96380294D01*
X105469046Y-96380294D02*
X105354760Y-96418389D01*
X105354760Y-96418389D02*
X105278570Y-96494579D01*
X105278570Y-96494579D02*
X105240475Y-96570770D01*
X105240475Y-96570770D02*
X105202379Y-96723151D01*
X105202379Y-96723151D02*
X105202379Y-96837437D01*
X105202379Y-96837437D02*
X105240475Y-96989818D01*
X105240475Y-96989818D02*
X105278570Y-97066008D01*
X105278570Y-97066008D02*
X105354760Y-97142199D01*
X105354760Y-97142199D02*
X105469046Y-97180294D01*
X105469046Y-97180294D02*
X105545237Y-97180294D01*
X105545237Y-97180294D02*
X105659522Y-97142199D01*
X105659522Y-97142199D02*
X105697618Y-97104103D01*
X105697618Y-97104103D02*
X105697618Y-96837437D01*
X105697618Y-96837437D02*
X105545237Y-96837437D01*
D11*
X105830951Y-97426465D02*
X105069047Y-97426465D01*
D10*
X105785839Y-100486569D02*
X105452506Y-100010378D01*
X105214411Y-100486569D02*
X105214411Y-99486569D01*
X105214411Y-99486569D02*
X105595363Y-99486569D01*
X105595363Y-99486569D02*
X105690601Y-99534188D01*
X105690601Y-99534188D02*
X105738220Y-99581807D01*
X105738220Y-99581807D02*
X105785839Y-99677045D01*
X105785839Y-99677045D02*
X105785839Y-99819902D01*
X105785839Y-99819902D02*
X105738220Y-99915140D01*
X105738220Y-99915140D02*
X105690601Y-99962759D01*
X105690601Y-99962759D02*
X105595363Y-100010378D01*
X105595363Y-100010378D02*
X105214411Y-100010378D01*
X94571428Y-102502759D02*
X94714285Y-102550378D01*
X94714285Y-102550378D02*
X94761904Y-102597997D01*
X94761904Y-102597997D02*
X94809523Y-102693235D01*
X94809523Y-102693235D02*
X94809523Y-102836092D01*
X94809523Y-102836092D02*
X94761904Y-102931330D01*
X94761904Y-102931330D02*
X94714285Y-102978950D01*
X94714285Y-102978950D02*
X94619047Y-103026569D01*
X94619047Y-103026569D02*
X94238095Y-103026569D01*
X94238095Y-103026569D02*
X94238095Y-102026569D01*
X94238095Y-102026569D02*
X94571428Y-102026569D01*
X94571428Y-102026569D02*
X94666666Y-102074188D01*
X94666666Y-102074188D02*
X94714285Y-102121807D01*
X94714285Y-102121807D02*
X94761904Y-102217045D01*
X94761904Y-102217045D02*
X94761904Y-102312283D01*
X94761904Y-102312283D02*
X94714285Y-102407521D01*
X94714285Y-102407521D02*
X94666666Y-102455140D01*
X94666666Y-102455140D02*
X94571428Y-102502759D01*
X94571428Y-102502759D02*
X94238095Y-102502759D01*
X105728571Y-103546795D02*
X105271428Y-103546795D01*
X105500000Y-103546795D02*
X105500000Y-102746795D01*
X105500000Y-102746795D02*
X105423809Y-102861080D01*
X105423809Y-102861080D02*
X105347619Y-102937271D01*
X105347619Y-102937271D02*
X105271428Y-102975366D01*
D12*
X92200000Y-95899999D02*
X92800000Y-95899999D01*
X92500000Y-96199999D02*
X92200000Y-95899999D01*
X92800000Y-95899999D02*
X92500000Y-96199999D01*
X93900000Y-94099999D02*
X93900000Y-105899999D01*
X98000000Y-94099999D02*
X93900000Y-94099999D01*
X98000000Y-105899999D02*
X93900000Y-105899999D01*
X102000000Y-94099999D02*
X106100000Y-94099999D01*
X106100000Y-94099999D02*
X106100000Y-96499999D01*
X106100000Y-98699999D02*
X106100000Y-101299999D01*
X106100000Y-103499999D02*
X106100000Y-105899999D01*
X106100000Y-105899999D02*
X102000000Y-105899999D01*
X103000000Y-99999999D02*
G75*
G03*
X103000000Y-99999999I-3000000J0D01*
G01*
%LPC*%
D13*
X91460000Y-94250000D03*
D14*
X91460000Y-94250000D03*
D13*
X108040000Y-94250000D03*
D14*
X108040000Y-94250000D03*
D15*
X100000000Y-99999999D03*
D16*
X92500000Y-97499999D03*
D17*
X92500000Y-102499999D03*
X92500000Y-99999999D03*
D18*
X100000000Y-94399999D03*
X100000000Y-105599999D03*
D17*
X107000000Y-102499999D03*
X107000000Y-97499999D03*
D13*
X108040000Y-105750000D03*
D14*
X108040000Y-105750000D03*
D19*
X109040000Y-97474999D03*
D20*
X109040000Y-100014999D03*
X109040000Y-102554999D03*
D19*
X90460000Y-97474999D03*
D20*
X90460000Y-100014999D03*
X90460000Y-102554999D03*
D13*
X91460000Y-105750000D03*
D14*
X91460000Y-105750000D03*
%LPD*%
M02*
