%TF.GenerationSoftware,KiCad,Pcbnew,7.0.7*%
%TF.CreationDate,2023-09-18T16:49:01-04:00*%
%TF.ProjectId,Encoder Mount,456e636f-6465-4722-904d-6f756e742e6b,rev?*%
%TF.SameCoordinates,Original*%
%TF.FileFunction,Copper,L2,Bot*%
%TF.FilePolarity,Positive*%
%FSLAX46Y46*%
G04 Gerber Fmt 4.6, Leading zero omitted, Abs format (unit mm)*
G04 Created by KiCad (PCBNEW 7.0.7) date 2023-09-18 16:49:01*
%MOMM*%
%LPD*%
G01*
G04 APERTURE LIST*
G04 Aperture macros list*
%AMRoundRect*
0 Rectangle with rounded corners*
0 $1 Rounding radius*
0 $2 $3 $4 $5 $6 $7 $8 $9 X,Y pos of 4 corners*
0 Add a 4 corners polygon primitive as box body*
4,1,4,$2,$3,$4,$5,$6,$7,$8,$9,$2,$3,0*
0 Add four circle primitives for the rounded corners*
1,1,$1+$1,$2,$3*
1,1,$1+$1,$4,$5*
1,1,$1+$1,$6,$7*
1,1,$1+$1,$8,$9*
0 Add four rect primitives between the rounded corners*
20,1,$1+$1,$2,$3,$4,$5,0*
20,1,$1+$1,$4,$5,$6,$7,0*
20,1,$1+$1,$6,$7,$8,$9,0*
20,1,$1+$1,$8,$9,$2,$3,0*%
%AMFreePoly0*
4,1,6,1.000000,0.000000,0.500000,-0.750000,-0.500000,-0.750000,-0.500000,0.750000,0.500000,0.750000,1.000000,0.000000,1.000000,0.000000,$1*%
%AMFreePoly1*
4,1,6,0.500000,-0.750000,-0.650000,-0.750000,-0.150000,0.000000,-0.650000,0.750000,0.500000,0.750000,0.500000,-0.750000,0.500000,-0.750000,$1*%
G04 Aperture macros list end*
%TA.AperFunction,NonConductor*%
%ADD10C,0.000000*%
%TD*%
%TA.AperFunction,ComponentPad*%
%ADD11C,2.600000*%
%TD*%
%TA.AperFunction,ConnectorPad*%
%ADD12C,3.500000*%
%TD*%
%TA.AperFunction,ComponentPad*%
%ADD13R,2.000000X2.000000*%
%TD*%
%TA.AperFunction,ComponentPad*%
%ADD14C,2.000000*%
%TD*%
%TA.AperFunction,ComponentPad*%
%ADD15C,3.200000*%
%TD*%
%TA.AperFunction,ComponentPad*%
%ADD16R,1.700000X1.700000*%
%TD*%
%TA.AperFunction,ComponentPad*%
%ADD17O,1.700000X1.700000*%
%TD*%
%TA.AperFunction,SMDPad,CuDef*%
%ADD18FreePoly0,0.000000*%
%TD*%
%TA.AperFunction,SMDPad,CuDef*%
%ADD19FreePoly1,0.000000*%
%TD*%
%TA.AperFunction,SMDPad,CuDef*%
%ADD20RoundRect,0.225000X0.225000X0.375000X-0.225000X0.375000X-0.225000X-0.375000X0.225000X-0.375000X0*%
%TD*%
%TA.AperFunction,Conductor*%
%ADD21C,1.000000*%
%TD*%
%TA.AperFunction,Conductor*%
%ADD22C,0.800000*%
%TD*%
G04 APERTURE END LIST*
D10*
%TA.AperFunction,NonConductor*%
G36*
X96690619Y-92655690D02*
G01*
X96692651Y-92655959D01*
X96694653Y-92656385D01*
X96696609Y-92656970D01*
X96698503Y-92657710D01*
X96700319Y-92658604D01*
X96701193Y-92659109D01*
X96702043Y-92659651D01*
X96702865Y-92660232D01*
X96703658Y-92660850D01*
X96704420Y-92661506D01*
X96705149Y-92662200D01*
X97021751Y-92978749D01*
X97022450Y-92979483D01*
X97023110Y-92980249D01*
X97023733Y-92981047D01*
X97024317Y-92981873D01*
X97024863Y-92982726D01*
X97025371Y-92983603D01*
X97025841Y-92984504D01*
X97026271Y-92985426D01*
X97026663Y-92986367D01*
X97027016Y-92987325D01*
X97027603Y-92989285D01*
X97028032Y-92991290D01*
X97028301Y-92993326D01*
X97028408Y-92995376D01*
X97028353Y-92997425D01*
X97028134Y-92999458D01*
X97027963Y-93000463D01*
X97027750Y-93001459D01*
X97027495Y-93002442D01*
X97027199Y-93003412D01*
X97026860Y-93004367D01*
X97026479Y-93005303D01*
X97026056Y-93006220D01*
X97025590Y-93007116D01*
X97025081Y-93007988D01*
X97024530Y-93008835D01*
X96783499Y-93360048D01*
X96782416Y-93361786D01*
X96781451Y-93363654D01*
X96780604Y-93365636D01*
X96779877Y-93367713D01*
X96779272Y-93369869D01*
X96778789Y-93372086D01*
X96778430Y-93374347D01*
X96778197Y-93376636D01*
X96778091Y-93378933D01*
X96778113Y-93381224D01*
X96778264Y-93383489D01*
X96778547Y-93385712D01*
X96778961Y-93387876D01*
X96779509Y-93389963D01*
X96780193Y-93391956D01*
X96781012Y-93393838D01*
X96913474Y-93724730D01*
X96913802Y-93725694D01*
X96914176Y-93726655D01*
X96915053Y-93728564D01*
X96916093Y-93730445D01*
X96917283Y-93732286D01*
X96918610Y-93734075D01*
X96920062Y-93735802D01*
X96921625Y-93737453D01*
X96923288Y-93739018D01*
X96925037Y-93740486D01*
X96926860Y-93741843D01*
X96928744Y-93743080D01*
X96930677Y-93744183D01*
X96932645Y-93745142D01*
X96934637Y-93745945D01*
X96935637Y-93746284D01*
X96936639Y-93746580D01*
X96937640Y-93746831D01*
X96938638Y-93747036D01*
X97362936Y-93825995D01*
X97363923Y-93826201D01*
X97364897Y-93826455D01*
X97365858Y-93826757D01*
X97366804Y-93827105D01*
X97367734Y-93827497D01*
X97368647Y-93827931D01*
X97369541Y-93828406D01*
X97370415Y-93828922D01*
X97371269Y-93829475D01*
X97372100Y-93830065D01*
X97372908Y-93830690D01*
X97373691Y-93831348D01*
X97374448Y-93832038D01*
X97375177Y-93832759D01*
X97375879Y-93833509D01*
X97376550Y-93834287D01*
X97377191Y-93835090D01*
X97377799Y-93835918D01*
X97378373Y-93836769D01*
X97378913Y-93837641D01*
X97379417Y-93838534D01*
X97379884Y-93839444D01*
X97380312Y-93840372D01*
X97380700Y-93841314D01*
X97381048Y-93842271D01*
X97381353Y-93843240D01*
X97381614Y-93844220D01*
X97381831Y-93845209D01*
X97382002Y-93846205D01*
X97382126Y-93847208D01*
X97382201Y-93848216D01*
X97382226Y-93849227D01*
X97382279Y-94296916D01*
X97382256Y-94297929D01*
X97382184Y-94298939D01*
X97382062Y-94299943D01*
X97381894Y-94300940D01*
X97381680Y-94301929D01*
X97381420Y-94302909D01*
X97381118Y-94303877D01*
X97380773Y-94304833D01*
X97380386Y-94305775D01*
X97379961Y-94306701D01*
X97378994Y-94308501D01*
X97377884Y-94310221D01*
X97376639Y-94311850D01*
X97375270Y-94313375D01*
X97373787Y-94314786D01*
X97372199Y-94316069D01*
X97370516Y-94317214D01*
X97369643Y-94317731D01*
X97368750Y-94318209D01*
X97367838Y-94318647D01*
X97366908Y-94319042D01*
X97365963Y-94319394D01*
X97365002Y-94319701D01*
X97364028Y-94319962D01*
X97363042Y-94320175D01*
X96928054Y-94401065D01*
X96926060Y-94401529D01*
X96924056Y-94402168D01*
X96922054Y-94402971D01*
X96920068Y-94403927D01*
X96918112Y-94405024D01*
X96916199Y-94406252D01*
X96914341Y-94407599D01*
X96912552Y-94409053D01*
X96910845Y-94410604D01*
X96909233Y-94412240D01*
X96907730Y-94413950D01*
X96906349Y-94415723D01*
X96905103Y-94417547D01*
X96904006Y-94419410D01*
X96903069Y-94421303D01*
X96902308Y-94423213D01*
X96768972Y-94734285D01*
X96768109Y-94736148D01*
X96767383Y-94738121D01*
X96766794Y-94740189D01*
X96766341Y-94742335D01*
X96766022Y-94744540D01*
X96765837Y-94746789D01*
X96765785Y-94749065D01*
X96765863Y-94751349D01*
X96766072Y-94753626D01*
X96766410Y-94755878D01*
X96766876Y-94758088D01*
X96767469Y-94760239D01*
X96768188Y-94762315D01*
X96769032Y-94764298D01*
X96769999Y-94766171D01*
X96771089Y-94767917D01*
X97024530Y-95137308D01*
X97025077Y-95138155D01*
X97025581Y-95139027D01*
X97026044Y-95139922D01*
X97026464Y-95140839D01*
X97026842Y-95141775D01*
X97027179Y-95142729D01*
X97027727Y-95144681D01*
X97028111Y-95146680D01*
X97028330Y-95148710D01*
X97028386Y-95150757D01*
X97028281Y-95152804D01*
X97028015Y-95154837D01*
X97027589Y-95156840D01*
X97027005Y-95158798D01*
X97026264Y-95160695D01*
X97025367Y-95162516D01*
X97024860Y-95163393D01*
X97024315Y-95164245D01*
X97023731Y-95165071D01*
X97023109Y-95165868D01*
X97022449Y-95166634D01*
X97021751Y-95167368D01*
X96705202Y-95483917D01*
X96704468Y-95484615D01*
X96703702Y-95485276D01*
X96702905Y-95485898D01*
X96702080Y-95486483D01*
X96701229Y-95487029D01*
X96700352Y-95487537D01*
X96699453Y-95488006D01*
X96698533Y-95488437D01*
X96697594Y-95488829D01*
X96696638Y-95489181D01*
X96694683Y-95489769D01*
X96692682Y-95490197D01*
X96690652Y-95490466D01*
X96688607Y-95490574D01*
X96686562Y-95490519D01*
X96684534Y-95490300D01*
X96683531Y-95490129D01*
X96682537Y-95489916D01*
X96681555Y-95489661D01*
X96680587Y-95489364D01*
X96679634Y-95489026D01*
X96678698Y-95488645D01*
X96677782Y-95488222D01*
X96676887Y-95487756D01*
X96676016Y-95487247D01*
X96675169Y-95486696D01*
X96299295Y-95228757D01*
X96297556Y-95227670D01*
X96295686Y-95226702D01*
X96293703Y-95225854D01*
X96291622Y-95225128D01*
X96289463Y-95224524D01*
X96287243Y-95224044D01*
X96284978Y-95223690D01*
X96282687Y-95223461D01*
X96280387Y-95223360D01*
X96278096Y-95223388D01*
X96275830Y-95223545D01*
X96273608Y-95223834D01*
X96271447Y-95224254D01*
X96269365Y-95224809D01*
X96267378Y-95225498D01*
X96265504Y-95226322D01*
X95963958Y-95349761D01*
X95962999Y-95350102D01*
X95962043Y-95350489D01*
X95961091Y-95350919D01*
X95960145Y-95351392D01*
X95958276Y-95352459D01*
X95956448Y-95353676D01*
X95954670Y-95355029D01*
X95952955Y-95356506D01*
X95951314Y-95358094D01*
X95949758Y-95359780D01*
X95948299Y-95361551D01*
X95946947Y-95363393D01*
X95945715Y-95365293D01*
X95944612Y-95367239D01*
X95943651Y-95369218D01*
X95942843Y-95371215D01*
X95942199Y-95373219D01*
X95941943Y-95374220D01*
X95941731Y-95375217D01*
X95857983Y-95825128D01*
X95857775Y-95826117D01*
X95857518Y-95827093D01*
X95857215Y-95828056D01*
X95856866Y-95829003D01*
X95856474Y-95829935D01*
X95856039Y-95830848D01*
X95855564Y-95831744D01*
X95855049Y-95832619D01*
X95854496Y-95833472D01*
X95853907Y-95834304D01*
X95853284Y-95835112D01*
X95852626Y-95835894D01*
X95851937Y-95836651D01*
X95851218Y-95837381D01*
X95850470Y-95838081D01*
X95849694Y-95838752D01*
X95848893Y-95839392D01*
X95848067Y-95839999D01*
X95847218Y-95840573D01*
X95846347Y-95841112D01*
X95845457Y-95841615D01*
X95844549Y-95842081D01*
X95843623Y-95842509D01*
X95842682Y-95842896D01*
X95841727Y-95843243D01*
X95840760Y-95843547D01*
X95839781Y-95843808D01*
X95838793Y-95844024D01*
X95837798Y-95844195D01*
X95836795Y-95844318D01*
X95835788Y-95844393D01*
X95834777Y-95844418D01*
X95387062Y-95844418D01*
X95386053Y-95844393D01*
X95385048Y-95844318D01*
X95384048Y-95844195D01*
X95383054Y-95844024D01*
X95382068Y-95843808D01*
X95381091Y-95843547D01*
X95380125Y-95843243D01*
X95379172Y-95842896D01*
X95378232Y-95842509D01*
X95377308Y-95842081D01*
X95375511Y-95841112D01*
X95373794Y-95839999D01*
X95372167Y-95838752D01*
X95370645Y-95837381D01*
X95369237Y-95835894D01*
X95367957Y-95834304D01*
X95367368Y-95833472D01*
X95366815Y-95832619D01*
X95366301Y-95831744D01*
X95365825Y-95830848D01*
X95365391Y-95829935D01*
X95364998Y-95829003D01*
X95364650Y-95828056D01*
X95364347Y-95827093D01*
X95364090Y-95826117D01*
X95363882Y-95825128D01*
X95280160Y-95375217D01*
X95279692Y-95373219D01*
X95279049Y-95371215D01*
X95278242Y-95369218D01*
X95277283Y-95367239D01*
X95276182Y-95365293D01*
X95274951Y-95363393D01*
X95273601Y-95361551D01*
X95272143Y-95359780D01*
X95270588Y-95358094D01*
X95268947Y-95356506D01*
X95267233Y-95355029D01*
X95265455Y-95353676D01*
X95263625Y-95352459D01*
X95261753Y-95351392D01*
X95259853Y-95350489D01*
X95257933Y-95349761D01*
X94956360Y-95226322D01*
X94954482Y-95225498D01*
X94952492Y-95224809D01*
X94950405Y-95224254D01*
X94948242Y-95223834D01*
X94946017Y-95223545D01*
X94943750Y-95223388D01*
X94941458Y-95223360D01*
X94939158Y-95223461D01*
X94936867Y-95223690D01*
X94934603Y-95224044D01*
X94932385Y-95224524D01*
X94930228Y-95225128D01*
X94928150Y-95225854D01*
X94926170Y-95226702D01*
X94924304Y-95227670D01*
X94922570Y-95228757D01*
X94546722Y-95486696D01*
X94545873Y-95487247D01*
X94544999Y-95487756D01*
X94544101Y-95488222D01*
X94543183Y-95488645D01*
X94542245Y-95489026D01*
X94541290Y-95489364D01*
X94539335Y-95489916D01*
X94537334Y-95490300D01*
X94535302Y-95490519D01*
X94533254Y-95490574D01*
X94531206Y-95490466D01*
X94529174Y-95490197D01*
X94527171Y-95489769D01*
X94525215Y-95489181D01*
X94523321Y-95488437D01*
X94521502Y-95487537D01*
X94520627Y-95487029D01*
X94519777Y-95486483D01*
X94518953Y-95485898D01*
X94518158Y-95485276D01*
X94517394Y-95484615D01*
X94516663Y-95483917D01*
X94200087Y-95167368D01*
X94199391Y-95166634D01*
X94198733Y-95165868D01*
X94198112Y-95165071D01*
X94197529Y-95164245D01*
X94196984Y-95163393D01*
X94196477Y-95162516D01*
X94196008Y-95161616D01*
X94195578Y-95160695D01*
X94195187Y-95159755D01*
X94194834Y-95158798D01*
X94194247Y-95156840D01*
X94193818Y-95154837D01*
X94193548Y-95152804D01*
X94193439Y-95150757D01*
X94193492Y-95148710D01*
X94193709Y-95146680D01*
X94193880Y-95145675D01*
X94194092Y-95144681D01*
X94194346Y-95143698D01*
X94194642Y-95142729D01*
X94194980Y-95141775D01*
X94195360Y-95140839D01*
X94195783Y-95139922D01*
X94196249Y-95139027D01*
X94196757Y-95138155D01*
X94197308Y-95137308D01*
X94450776Y-94767917D01*
X94451856Y-94766171D01*
X94452816Y-94764298D01*
X94453652Y-94762315D01*
X94454366Y-94760239D01*
X94454954Y-94758088D01*
X94455416Y-94755878D01*
X94455751Y-94753626D01*
X94455959Y-94751349D01*
X94456036Y-94749065D01*
X94455984Y-94746789D01*
X94455800Y-94744540D01*
X94455483Y-94742335D01*
X94455032Y-94740189D01*
X94454446Y-94738121D01*
X94453725Y-94736148D01*
X94452866Y-94734285D01*
X94319504Y-94423213D01*
X94319148Y-94422257D01*
X94318747Y-94421303D01*
X94317816Y-94419410D01*
X94316723Y-94417547D01*
X94315481Y-94415723D01*
X94314104Y-94413950D01*
X94312604Y-94412240D01*
X94310995Y-94410604D01*
X94309290Y-94409053D01*
X94307502Y-94407599D01*
X94305644Y-94406252D01*
X94303728Y-94405024D01*
X94301770Y-94403927D01*
X94299780Y-94402971D01*
X94297773Y-94402168D01*
X94295761Y-94401529D01*
X94294757Y-94401275D01*
X94293758Y-94401065D01*
X93858796Y-94320175D01*
X93857805Y-94319962D01*
X93856827Y-94319701D01*
X93855863Y-94319394D01*
X93854914Y-94319042D01*
X93853981Y-94318647D01*
X93853066Y-94318209D01*
X93852171Y-94317732D01*
X93851295Y-94317215D01*
X93850441Y-94316660D01*
X93849609Y-94316070D01*
X93848801Y-94315445D01*
X93848019Y-94314787D01*
X93847262Y-94314097D01*
X93846533Y-94313377D01*
X93845833Y-94312629D01*
X93845163Y-94311853D01*
X93844524Y-94311052D01*
X93843917Y-94310226D01*
X93843344Y-94309377D01*
X93842805Y-94308508D01*
X93842303Y-94307618D01*
X93841838Y-94306710D01*
X93841412Y-94305785D01*
X93841025Y-94304844D01*
X93840679Y-94303890D01*
X93840375Y-94302923D01*
X93840115Y-94301945D01*
X93839899Y-94300958D01*
X93839729Y-94299963D01*
X93839606Y-94298961D01*
X93839532Y-94297953D01*
X93839507Y-94296943D01*
X93839533Y-93849254D01*
X93839558Y-93848243D01*
X93839633Y-93847235D01*
X93839756Y-93846232D01*
X93839927Y-93845235D01*
X93840143Y-93844246D01*
X93840404Y-93843266D01*
X93840708Y-93842297D01*
X93841055Y-93841341D01*
X93841870Y-93839471D01*
X93842839Y-93837668D01*
X93843952Y-93835945D01*
X93845199Y-93834313D01*
X93846571Y-93832786D01*
X93848057Y-93831374D01*
X93849647Y-93830091D01*
X93850479Y-93829501D01*
X93851333Y-93828948D01*
X93852208Y-93828433D01*
X93853103Y-93827957D01*
X93854016Y-93827523D01*
X93854948Y-93827131D01*
X93855895Y-93826784D01*
X93856858Y-93826482D01*
X93857834Y-93826227D01*
X93858823Y-93826021D01*
X94283120Y-93747063D01*
X94284117Y-93746858D01*
X94285117Y-93746607D01*
X94287117Y-93745972D01*
X94289109Y-93745169D01*
X94291079Y-93744210D01*
X94293015Y-93743106D01*
X94294903Y-93741870D01*
X94296730Y-93740512D01*
X94298484Y-93739045D01*
X94300152Y-93737480D01*
X94301720Y-93735828D01*
X94303175Y-93734102D01*
X94304505Y-93732312D01*
X94305697Y-93730471D01*
X94306737Y-93728591D01*
X94307613Y-93726682D01*
X94307985Y-93725720D01*
X94308311Y-93724756D01*
X94440773Y-93393865D01*
X94441593Y-93391983D01*
X94442277Y-93389989D01*
X94442826Y-93387902D01*
X94443242Y-93385739D01*
X94443526Y-93383515D01*
X94443678Y-93381250D01*
X94443701Y-93378960D01*
X94443595Y-93376662D01*
X94443361Y-93374374D01*
X94443002Y-93372112D01*
X94442517Y-93369895D01*
X94441908Y-93367739D01*
X94441177Y-93365662D01*
X94440325Y-93363681D01*
X94439352Y-93361812D01*
X94438260Y-93360074D01*
X94197255Y-93008861D01*
X94196706Y-93008015D01*
X94196200Y-93007142D01*
X94195736Y-93006247D01*
X94195315Y-93005330D01*
X94194936Y-93004393D01*
X94194599Y-93003439D01*
X94194050Y-93001485D01*
X94193668Y-92999484D01*
X94193451Y-92997451D01*
X94193397Y-92995402D01*
X94193505Y-92993352D01*
X94193773Y-92991317D01*
X94194201Y-92989311D01*
X94194787Y-92987351D01*
X94195529Y-92985452D01*
X94196426Y-92983630D01*
X94196932Y-92982752D01*
X94197477Y-92981899D01*
X94198059Y-92981073D01*
X94198680Y-92980276D01*
X94199338Y-92979510D01*
X94200034Y-92978776D01*
X94516636Y-92662226D01*
X94517368Y-92661533D01*
X94518132Y-92660877D01*
X94518927Y-92660259D01*
X94519750Y-92659678D01*
X94520601Y-92659135D01*
X94521476Y-92658631D01*
X94522374Y-92658164D01*
X94523294Y-92657736D01*
X94524233Y-92657347D01*
X94525189Y-92656996D01*
X94527145Y-92656412D01*
X94529147Y-92655985D01*
X94531180Y-92655717D01*
X94533228Y-92655609D01*
X94535275Y-92655662D01*
X94537307Y-92655878D01*
X94538313Y-92656047D01*
X94539309Y-92656258D01*
X94540293Y-92656510D01*
X94541263Y-92656803D01*
X94542219Y-92657139D01*
X94543156Y-92657516D01*
X94544075Y-92657935D01*
X94544972Y-92658397D01*
X94545847Y-92658901D01*
X94546696Y-92659448D01*
X94891690Y-92896245D01*
X94893425Y-92897320D01*
X94895283Y-92898264D01*
X94897249Y-92899075D01*
X94899303Y-92899753D01*
X94901431Y-92900298D01*
X94903614Y-92900710D01*
X94905836Y-92900987D01*
X94908080Y-92901130D01*
X94910328Y-92901138D01*
X94912564Y-92901011D01*
X94914770Y-92900748D01*
X94916930Y-92900349D01*
X94919027Y-92899813D01*
X94921043Y-92899141D01*
X94922962Y-92898330D01*
X94924766Y-92897382D01*
X95076916Y-92816148D01*
X95077823Y-92815713D01*
X95078738Y-92815331D01*
X95079660Y-92815001D01*
X95080586Y-92814722D01*
X95081515Y-92814494D01*
X95082446Y-92814316D01*
X95083377Y-92814187D01*
X95084305Y-92814108D01*
X95085231Y-92814077D01*
X95086152Y-92814094D01*
X95087066Y-92814158D01*
X95087972Y-92814269D01*
X95088868Y-92814425D01*
X95089753Y-92814628D01*
X95090625Y-92814875D01*
X95091482Y-92815166D01*
X95092323Y-92815501D01*
X95093147Y-92815879D01*
X95093951Y-92816299D01*
X95094735Y-92816761D01*
X95095495Y-92817265D01*
X95096232Y-92817809D01*
X95096943Y-92818393D01*
X95097627Y-92819017D01*
X95098282Y-92819680D01*
X95098906Y-92820381D01*
X95099498Y-92821119D01*
X95100056Y-92821895D01*
X95100579Y-92822707D01*
X95101066Y-92823555D01*
X95101513Y-92824438D01*
X95101921Y-92825357D01*
X95415639Y-93583377D01*
X95416004Y-93584320D01*
X95416321Y-93585277D01*
X95416591Y-93586247D01*
X95416814Y-93587227D01*
X95416990Y-93588217D01*
X95417121Y-93589213D01*
X95417248Y-93591220D01*
X95417199Y-93593235D01*
X95416979Y-93595241D01*
X95416593Y-93597226D01*
X95416046Y-93599174D01*
X95415342Y-93601071D01*
X95414486Y-93602903D01*
X95413484Y-93604655D01*
X95412339Y-93606313D01*
X95411056Y-93607863D01*
X95410365Y-93608592D01*
X95409641Y-93609289D01*
X95408885Y-93609952D01*
X95408097Y-93610579D01*
X95407279Y-93611167D01*
X95406431Y-93611716D01*
X95368354Y-93635028D01*
X95365605Y-93636773D01*
X95362675Y-93638765D01*
X95359616Y-93640961D01*
X95356483Y-93643317D01*
X95353328Y-93645789D01*
X95350206Y-93648334D01*
X95347170Y-93650909D01*
X95344274Y-93653471D01*
X95319073Y-93670724D01*
X95295020Y-93689457D01*
X95272182Y-93709604D01*
X95250625Y-93731100D01*
X95230415Y-93753880D01*
X95211617Y-93777878D01*
X95194297Y-93803030D01*
X95178521Y-93829269D01*
X95164355Y-93856531D01*
X95157896Y-93870526D01*
X95151864Y-93884751D01*
X95146267Y-93899199D01*
X95141114Y-93913863D01*
X95136413Y-93928733D01*
X95132172Y-93943801D01*
X95128398Y-93959060D01*
X95125102Y-93974501D01*
X95122289Y-93990116D01*
X95119970Y-94005898D01*
X95118152Y-94021837D01*
X95116843Y-94037925D01*
X95116052Y-94054155D01*
X95115786Y-94070518D01*
X95116430Y-94095997D01*
X95118343Y-94121141D01*
X95121491Y-94145919D01*
X95125846Y-94170301D01*
X95131375Y-94194255D01*
X95138047Y-94217750D01*
X95145831Y-94240754D01*
X95154697Y-94263238D01*
X95164613Y-94285170D01*
X95175547Y-94306518D01*
X95187469Y-94327251D01*
X95200348Y-94347339D01*
X95214153Y-94366751D01*
X95228851Y-94385454D01*
X95244413Y-94403419D01*
X95260807Y-94420613D01*
X95278003Y-94437007D01*
X95295968Y-94452568D01*
X95314672Y-94467266D01*
X95334083Y-94481070D01*
X95354171Y-94493948D01*
X95374905Y-94505869D01*
X95396253Y-94516803D01*
X95418184Y-94526717D01*
X95440667Y-94535582D01*
X95463671Y-94543366D01*
X95487165Y-94550038D01*
X95511118Y-94555566D01*
X95535498Y-94559920D01*
X95560275Y-94563069D01*
X95585417Y-94564980D01*
X95610893Y-94565625D01*
X95636369Y-94564980D01*
X95661511Y-94563069D01*
X95686287Y-94559920D01*
X95710667Y-94555566D01*
X95734619Y-94550038D01*
X95758112Y-94543366D01*
X95781115Y-94535582D01*
X95803597Y-94526717D01*
X95825528Y-94516803D01*
X95846874Y-94505869D01*
X95867607Y-94493948D01*
X95887694Y-94481070D01*
X95907104Y-94467266D01*
X95925807Y-94452568D01*
X95943771Y-94437007D01*
X95960965Y-94420613D01*
X95977358Y-94403419D01*
X95992918Y-94385454D01*
X96007616Y-94366751D01*
X96021419Y-94347339D01*
X96034297Y-94327251D01*
X96046218Y-94306518D01*
X96057151Y-94285170D01*
X96067066Y-94263238D01*
X96075931Y-94240754D01*
X96083714Y-94217750D01*
X96090386Y-94194255D01*
X96095914Y-94170301D01*
X96100268Y-94145919D01*
X96103417Y-94121141D01*
X96105329Y-94095997D01*
X96105973Y-94070518D01*
X96104916Y-94037925D01*
X96101790Y-94005898D01*
X96096660Y-93974501D01*
X96089591Y-93943801D01*
X96080650Y-93913863D01*
X96069902Y-93884751D01*
X96057413Y-93856531D01*
X96043248Y-93829269D01*
X96027473Y-93803030D01*
X96010153Y-93777878D01*
X95991356Y-93753880D01*
X95971145Y-93731100D01*
X95949586Y-93709604D01*
X95926747Y-93689457D01*
X95902691Y-93670724D01*
X95877484Y-93653471D01*
X95874605Y-93650909D01*
X95871580Y-93648334D01*
X95868464Y-93645789D01*
X95865312Y-93643317D01*
X95862181Y-93640961D01*
X95859125Y-93638765D01*
X95856199Y-93636773D01*
X95853458Y-93635028D01*
X95815381Y-93611716D01*
X95814537Y-93611167D01*
X95813723Y-93610579D01*
X95812940Y-93609952D01*
X95812187Y-93609289D01*
X95811466Y-93608592D01*
X95810778Y-93607863D01*
X95810122Y-93607102D01*
X95809499Y-93606313D01*
X95808911Y-93605497D01*
X95808357Y-93604655D01*
X95807838Y-93603790D01*
X95807356Y-93602903D01*
X95806909Y-93601996D01*
X95806500Y-93601071D01*
X95806129Y-93600129D01*
X95805796Y-93599174D01*
X95805501Y-93598205D01*
X95805247Y-93597226D01*
X95805032Y-93596237D01*
X95804858Y-93595241D01*
X95804726Y-93594240D01*
X95804635Y-93593235D01*
X95804587Y-93592228D01*
X95804583Y-93591220D01*
X95804622Y-93590215D01*
X95804705Y-93589213D01*
X95804834Y-93588217D01*
X95805008Y-93587227D01*
X95805228Y-93586247D01*
X95805495Y-93585277D01*
X95805810Y-93584320D01*
X95806173Y-93583377D01*
X96119865Y-92825330D01*
X96120272Y-92824412D01*
X96120720Y-92823529D01*
X96121205Y-92822681D01*
X96121728Y-92821869D01*
X96122286Y-92821094D01*
X96122877Y-92820356D01*
X96123501Y-92819656D01*
X96124155Y-92818994D01*
X96124838Y-92818371D01*
X96125548Y-92817788D01*
X96126284Y-92817245D01*
X96127044Y-92816742D01*
X96127826Y-92816280D01*
X96128630Y-92815861D01*
X96129453Y-92815484D01*
X96130293Y-92815149D01*
X96131150Y-92814859D01*
X96132022Y-92814612D01*
X96132906Y-92814410D01*
X96133802Y-92814254D01*
X96134708Y-92814143D01*
X96135622Y-92814079D01*
X96136543Y-92814062D01*
X96137469Y-92814093D01*
X96138398Y-92814171D01*
X96139330Y-92814299D01*
X96140261Y-92814476D01*
X96141192Y-92814703D01*
X96142119Y-92814980D01*
X96143043Y-92815309D01*
X96143960Y-92815689D01*
X96144870Y-92816122D01*
X96297019Y-92897356D01*
X96298828Y-92898304D01*
X96300750Y-92899115D01*
X96302768Y-92899789D01*
X96304866Y-92900326D01*
X96307027Y-92900727D01*
X96309233Y-92900992D01*
X96311469Y-92901120D01*
X96313716Y-92901114D01*
X96315958Y-92900972D01*
X96318178Y-92900695D01*
X96320360Y-92900283D01*
X96322486Y-92899738D01*
X96324539Y-92899058D01*
X96326503Y-92898245D01*
X96328361Y-92897298D01*
X96330095Y-92896218D01*
X96675116Y-92659421D01*
X96675963Y-92658875D01*
X96676835Y-92658371D01*
X96677731Y-92657909D01*
X96678648Y-92657490D01*
X96679584Y-92657112D01*
X96680538Y-92656777D01*
X96682491Y-92656231D01*
X96684492Y-92655851D01*
X96686523Y-92655635D01*
X96688571Y-92655582D01*
X96690619Y-92655690D01*
G37*
%TD.AperFunction*%
D11*
X91460000Y-94250000D03*
D12*
X91460000Y-94250000D03*
D11*
X108040000Y-94250000D03*
D12*
X108040000Y-94250000D03*
D13*
X92500000Y-97499999D03*
D14*
X92500000Y-102499999D03*
X92500000Y-99999999D03*
D15*
X100000000Y-94399999D03*
X100000000Y-105599999D03*
D14*
X107000000Y-102499999D03*
X107000000Y-97499999D03*
D11*
X108040000Y-105750000D03*
D12*
X108040000Y-105750000D03*
D16*
X109040000Y-97474999D03*
D17*
X109040000Y-100014999D03*
X109040000Y-102554999D03*
D16*
X90460000Y-97474999D03*
D17*
X90460000Y-100014999D03*
X90460000Y-102554999D03*
D11*
X91460000Y-105750000D03*
D12*
X91460000Y-105750000D03*
D18*
X102800000Y-95750000D03*
D19*
X104250000Y-95750000D03*
D20*
X106650000Y-100000000D03*
X103350000Y-100000000D03*
D21*
X109027500Y-100027499D02*
X107000000Y-100027499D01*
D22*
X103350000Y-100000000D02*
X105850001Y-97499999D01*
X105999999Y-97499999D02*
X104500000Y-96000000D01*
X105850001Y-97499999D02*
X107000000Y-97499999D01*
X107000000Y-97499999D02*
X105999999Y-97499999D01*
%TA.AperFunction,Conductor*%
G36*
X93991998Y-92520185D02*
G01*
X94037753Y-92572989D01*
X94047697Y-92642147D01*
X94018672Y-92705703D01*
X94000315Y-92722976D01*
X93997693Y-92724981D01*
X93996829Y-92725809D01*
X93979246Y-92740588D01*
X93978986Y-92740279D01*
X93978552Y-92740669D01*
X93979050Y-92741188D01*
X93971217Y-92748696D01*
X93970753Y-92749330D01*
X93958321Y-92762304D01*
X93958357Y-92762336D01*
X93951190Y-92770481D01*
X93951131Y-92770579D01*
X93940017Y-92784307D01*
X93940144Y-92784402D01*
X93933140Y-92793817D01*
X93923909Y-92807327D01*
X93924097Y-92807445D01*
X93917455Y-92818056D01*
X93909876Y-92831308D01*
X93910107Y-92831428D01*
X93902463Y-92846109D01*
X93895349Y-92862489D01*
X93895096Y-92862982D01*
X93893523Y-92867155D01*
X93892867Y-92868699D01*
X93892556Y-92869727D01*
X93889508Y-92877789D01*
X93889205Y-92878458D01*
X93884777Y-92892146D01*
X93884754Y-92892189D01*
X93884745Y-92892243D01*
X93884318Y-92893566D01*
X93884018Y-92894324D01*
X93883988Y-92894471D01*
X93880258Y-92908228D01*
X93879842Y-92909443D01*
X93878675Y-92914679D01*
X93876733Y-92922516D01*
X93874025Y-92937949D01*
X93873829Y-92938702D01*
X93872517Y-92946799D01*
X93872220Y-92948115D01*
X93872019Y-92949605D01*
X93871985Y-92950332D01*
X93870830Y-92960983D01*
X93870050Y-92960898D01*
X93869565Y-92966171D01*
X93870339Y-92966230D01*
X93869543Y-92976801D01*
X93869445Y-92977512D01*
X93869362Y-92979203D01*
X93869358Y-92979244D01*
X93869411Y-92980615D01*
X93869203Y-92989510D01*
X93869272Y-92989511D01*
X93869124Y-93005098D01*
X93869601Y-93013246D01*
X93869783Y-93018402D01*
X93869949Y-93019534D01*
X93871123Y-93033936D01*
X93871129Y-93034201D01*
X93871306Y-93035109D01*
X93871463Y-93036320D01*
X93871462Y-93036362D01*
X93871473Y-93036397D01*
X93873336Y-93050731D01*
X93873522Y-93051486D01*
X93875051Y-93060005D01*
X93875162Y-93061007D01*
X93875501Y-93062546D01*
X93876263Y-93066812D01*
X93876342Y-93067077D01*
X93880462Y-93084951D01*
X93885317Y-93100840D01*
X93885054Y-93100920D01*
X93889960Y-93114969D01*
X93894650Y-93126869D01*
X93894431Y-93126955D01*
X93900893Y-93141604D01*
X93906163Y-93152364D01*
X93906029Y-93152429D01*
X93914467Y-93168000D01*
X93914530Y-93168165D01*
X93920087Y-93177483D01*
X93920054Y-93177502D01*
X93929920Y-93192549D01*
X93930289Y-93193316D01*
X93936618Y-93202126D01*
X93936043Y-93202538D01*
X93936461Y-93203080D01*
X93936763Y-93202832D01*
X93951079Y-93220226D01*
X93951871Y-93221327D01*
X93959510Y-93229803D01*
X93964581Y-93236238D01*
X94005252Y-93295509D01*
X94026951Y-93361923D01*
X94009300Y-93429526D01*
X93957901Y-93476855D01*
X93925694Y-93487574D01*
X93855018Y-93500726D01*
X93846708Y-93501699D01*
X93836465Y-93502202D01*
X93835271Y-93502394D01*
X93820750Y-93503773D01*
X93819479Y-93504037D01*
X93805339Y-93506026D01*
X93803738Y-93506433D01*
X93790610Y-93508861D01*
X93788939Y-93509363D01*
X93776165Y-93512294D01*
X93774461Y-93512886D01*
X93754383Y-93518395D01*
X93754482Y-93518683D01*
X93743839Y-93522326D01*
X93727956Y-93528493D01*
X93728035Y-93528675D01*
X93716301Y-93533786D01*
X93702914Y-93540259D01*
X93703043Y-93540501D01*
X93689011Y-93547979D01*
X93674324Y-93557074D01*
X93674039Y-93557226D01*
X93669310Y-93560492D01*
X93663509Y-93564207D01*
X93647914Y-93576136D01*
X93647141Y-93576652D01*
X93645706Y-93577798D01*
X93645096Y-93578381D01*
X93635522Y-93586453D01*
X93634717Y-93587047D01*
X93630047Y-93591374D01*
X93624113Y-93596668D01*
X93613007Y-93607943D01*
X93612005Y-93608836D01*
X93610519Y-93610487D01*
X93604030Y-93617312D01*
X93593487Y-93630094D01*
X93592281Y-93631374D01*
X93592151Y-93631547D01*
X93590207Y-93633990D01*
X93589996Y-93634241D01*
X93589094Y-93635593D01*
X93583841Y-93642447D01*
X93583136Y-93643260D01*
X93581662Y-93645292D01*
X93580770Y-93646456D01*
X93579937Y-93647831D01*
X93570866Y-93660824D01*
X93566488Y-93668084D01*
X93563779Y-93672365D01*
X93563204Y-93673544D01*
X93556392Y-93685469D01*
X93556143Y-93685849D01*
X93555742Y-93686779D01*
X93555273Y-93687698D01*
X93555226Y-93687763D01*
X93555205Y-93687832D01*
X93548585Y-93700832D01*
X93548329Y-93701515D01*
X93544913Y-93709104D01*
X93544383Y-93710097D01*
X93543642Y-93711933D01*
X93541835Y-93715948D01*
X93541697Y-93716378D01*
X93535086Y-93733230D01*
X93533425Y-93738544D01*
X93532845Y-93740255D01*
X93532690Y-93740892D01*
X93530148Y-93749025D01*
X93529880Y-93748941D01*
X93525999Y-93763303D01*
X93523146Y-93775804D01*
X93522930Y-93775754D01*
X93519923Y-93791890D01*
X93518242Y-93803476D01*
X93518090Y-93803454D01*
X93516271Y-93821049D01*
X93516236Y-93821192D01*
X93515564Y-93832023D01*
X93515256Y-93832003D01*
X93515274Y-93853967D01*
X93515178Y-93855448D01*
X93515793Y-93869088D01*
X93515761Y-93870639D01*
X93517036Y-93884961D01*
X93517067Y-93886233D01*
X93518473Y-93896659D01*
X93519029Y-93904957D01*
X93519009Y-94241145D01*
X93518456Y-94249405D01*
X93517023Y-94260067D01*
X93516989Y-94261497D01*
X93515743Y-94275436D01*
X93515771Y-94276802D01*
X93515142Y-94290913D01*
X93515247Y-94292530D01*
X93515232Y-94305958D01*
X93515425Y-94307743D01*
X93515955Y-94320638D01*
X93516244Y-94322565D01*
X93517275Y-94335023D01*
X93517632Y-94336872D01*
X93519198Y-94349414D01*
X93519685Y-94351476D01*
X93521648Y-94363298D01*
X93522167Y-94365153D01*
X93524735Y-94377435D01*
X93525465Y-94379693D01*
X93528165Y-94390508D01*
X93528916Y-94392553D01*
X93532774Y-94405735D01*
X93533080Y-94406574D01*
X93534417Y-94411325D01*
X93537144Y-94418276D01*
X93541483Y-94429334D01*
X93541694Y-94429992D01*
X93542327Y-94431400D01*
X93542334Y-94431418D01*
X93548361Y-94444827D01*
X93548573Y-94445393D01*
X93554033Y-94456104D01*
X93555518Y-94459238D01*
X93560213Y-94467472D01*
X93562542Y-94471914D01*
X93565162Y-94476054D01*
X93565164Y-94476058D01*
X93565166Y-94476060D01*
X93567152Y-94479198D01*
X93570077Y-94484269D01*
X93580099Y-94498641D01*
X93580819Y-94499831D01*
X93581794Y-94501103D01*
X93583256Y-94503110D01*
X93583954Y-94503913D01*
X93589052Y-94510582D01*
X93589927Y-94511896D01*
X93590234Y-94512262D01*
X93591783Y-94514211D01*
X93592516Y-94514985D01*
X93595730Y-94518823D01*
X93598637Y-94522349D01*
X93599375Y-94523368D01*
X93601259Y-94525541D01*
X93601557Y-94525903D01*
X93602754Y-94527072D01*
X93608377Y-94533337D01*
X93609002Y-94534126D01*
X93610730Y-94535956D01*
X93611725Y-94537065D01*
X93612978Y-94538186D01*
X93625012Y-94550468D01*
X93629549Y-94554353D01*
X93635886Y-94560252D01*
X93639924Y-94563427D01*
X93646931Y-94569380D01*
X93650021Y-94571625D01*
X93659026Y-94578576D01*
X93659779Y-94579034D01*
X93670426Y-94586474D01*
X93670429Y-94586477D01*
X93670432Y-94586478D01*
X93672571Y-94587973D01*
X93673029Y-94588222D01*
X93684716Y-94595559D01*
X93684719Y-94595561D01*
X93684721Y-94595562D01*
X93685526Y-94596067D01*
X93685530Y-94596070D01*
X93689498Y-94598561D01*
X93693752Y-94600665D01*
X93695353Y-94601608D01*
X93699295Y-94603608D01*
X93699298Y-94603610D01*
X93699300Y-94603610D01*
X93707430Y-94607735D01*
X93709399Y-94608907D01*
X93711555Y-94609896D01*
X93711558Y-94609898D01*
X93711560Y-94609898D01*
X93720154Y-94613841D01*
X93722060Y-94614876D01*
X93724267Y-94615783D01*
X93724270Y-94615785D01*
X93724272Y-94615785D01*
X93732846Y-94619310D01*
X93734839Y-94620291D01*
X93737069Y-94621106D01*
X93737074Y-94621109D01*
X93737079Y-94621109D01*
X93746411Y-94624521D01*
X93748257Y-94625339D01*
X93760200Y-94629155D01*
X93761995Y-94629863D01*
X93764332Y-94630504D01*
X93764336Y-94630506D01*
X93764339Y-94630506D01*
X93773669Y-94633066D01*
X93775646Y-94633753D01*
X93777976Y-94634291D01*
X93777979Y-94634293D01*
X93777981Y-94634293D01*
X93788588Y-94636746D01*
X93790181Y-94637226D01*
X93792587Y-94637673D01*
X93792593Y-94637676D01*
X93792599Y-94637676D01*
X93803468Y-94639699D01*
X93805026Y-94640096D01*
X93807454Y-94640439D01*
X93807458Y-94640441D01*
X93807461Y-94640440D01*
X93818282Y-94641973D01*
X93819887Y-94642308D01*
X93822332Y-94642547D01*
X93822336Y-94642548D01*
X93822339Y-94642547D01*
X93834527Y-94643739D01*
X93835665Y-94643924D01*
X93838179Y-94644053D01*
X93838187Y-94644055D01*
X93838194Y-94644054D01*
X93846842Y-94644499D01*
X93855000Y-94645463D01*
X93925716Y-94658614D01*
X93988025Y-94690225D01*
X94023353Y-94750505D01*
X94020484Y-94820315D01*
X94005287Y-94850681D01*
X93964607Y-94909966D01*
X93959484Y-94916459D01*
X93952191Y-94924530D01*
X93951441Y-94925571D01*
X93942314Y-94936639D01*
X93941489Y-94937899D01*
X93933199Y-94948905D01*
X93932398Y-94950252D01*
X93924709Y-94961446D01*
X93923896Y-94962958D01*
X93916936Y-94974080D01*
X93916100Y-94975807D01*
X93905955Y-94993624D01*
X93906227Y-94993757D01*
X93901159Y-95004102D01*
X93894434Y-95019354D01*
X93894630Y-95019431D01*
X93889997Y-95031202D01*
X93885037Y-95045438D01*
X93885290Y-95045516D01*
X93880556Y-95061047D01*
X93876586Y-95078185D01*
X93876441Y-95078669D01*
X93875572Y-95083485D01*
X93874049Y-95090405D01*
X93871410Y-95110455D01*
X93871201Y-95111517D01*
X93871144Y-95112032D01*
X93871127Y-95112755D01*
X93870001Y-95126287D01*
X93869846Y-95127328D01*
X93869640Y-95132966D01*
X93869171Y-95141074D01*
X93869307Y-95156866D01*
X93869222Y-95158369D01*
X93869316Y-95160131D01*
X93869383Y-95162511D01*
X93869495Y-95163475D01*
X93869938Y-95171852D01*
X93869917Y-95173504D01*
X93869982Y-95174176D01*
X93870159Y-95176685D01*
X93870324Y-95177719D01*
X93871181Y-95186597D01*
X93871235Y-95188389D01*
X93871574Y-95191361D01*
X93871598Y-95191643D01*
X93871893Y-95193117D01*
X93873042Y-95201747D01*
X93873115Y-95202802D01*
X93873498Y-95205235D01*
X93873688Y-95206676D01*
X93874057Y-95208179D01*
X93876847Y-95223938D01*
X93878872Y-95232126D01*
X93879934Y-95236875D01*
X93880333Y-95238038D01*
X93884060Y-95251744D01*
X93884097Y-95251923D01*
X93884253Y-95252312D01*
X93884837Y-95254075D01*
X93884843Y-95254112D01*
X93884860Y-95254143D01*
X93885623Y-95256445D01*
X93889265Y-95267707D01*
X93889535Y-95268304D01*
X93892690Y-95276654D01*
X93892981Y-95277615D01*
X93893672Y-95279247D01*
X93895152Y-95283163D01*
X93895391Y-95283629D01*
X93902627Y-95300290D01*
X93905935Y-95306623D01*
X93906308Y-95307424D01*
X93906626Y-95307946D01*
X93910332Y-95315042D01*
X93910086Y-95315170D01*
X93917472Y-95328050D01*
X93924288Y-95338920D01*
X93924096Y-95339039D01*
X93933292Y-95352475D01*
X93940343Y-95361937D01*
X93940099Y-95362118D01*
X93953125Y-95377506D01*
X93954333Y-95379144D01*
X93963178Y-95388769D01*
X93964269Y-95390126D01*
X93973846Y-95399693D01*
X93974892Y-95400885D01*
X93984970Y-95410111D01*
X93986044Y-95411232D01*
X93996933Y-95420358D01*
X93997904Y-95421285D01*
X94006716Y-95428021D01*
X94012898Y-95433431D01*
X94250628Y-95671141D01*
X94256117Y-95677423D01*
X94262356Y-95685617D01*
X94263277Y-95686584D01*
X94277775Y-95703949D01*
X94277501Y-95704177D01*
X94278143Y-95704895D01*
X94278628Y-95704433D01*
X94286117Y-95712276D01*
X94286118Y-95712277D01*
X94286450Y-95712521D01*
X94286780Y-95712764D01*
X94299746Y-95725235D01*
X94299774Y-95725204D01*
X94307902Y-95732381D01*
X94307905Y-95732382D01*
X94307906Y-95732384D01*
X94308040Y-95732466D01*
X94321792Y-95743636D01*
X94321882Y-95743517D01*
X94330614Y-95750033D01*
X94345123Y-95759967D01*
X94345219Y-95759815D01*
X94354412Y-95765573D01*
X94354416Y-95765576D01*
X94354420Y-95765577D01*
X94356169Y-95766673D01*
X94368946Y-95773991D01*
X94369075Y-95773745D01*
X94383411Y-95781221D01*
X94399306Y-95788191D01*
X94399805Y-95788448D01*
X94404606Y-95790277D01*
X94411122Y-95793047D01*
X94418170Y-95795342D01*
X94418173Y-95795344D01*
X94418175Y-95795344D01*
X94430081Y-95799222D01*
X94430187Y-95799264D01*
X94430196Y-95799269D01*
X94430200Y-95799269D01*
X94431269Y-95799695D01*
X94432154Y-95799964D01*
X94432974Y-95800137D01*
X94433497Y-95800280D01*
X94433502Y-95800283D01*
X94433506Y-95800283D01*
X94445502Y-95803581D01*
X94446521Y-95803932D01*
X94448992Y-95804490D01*
X94448997Y-95804492D01*
X94449001Y-95804492D01*
X94451999Y-95805169D01*
X94457402Y-95806500D01*
X94457405Y-95806502D01*
X94457407Y-95806502D01*
X94460056Y-95807155D01*
X94464215Y-95807898D01*
X94464216Y-95807899D01*
X94474899Y-95809809D01*
X94474626Y-95811335D01*
X94474691Y-95811346D01*
X94474926Y-95809888D01*
X94483659Y-95811292D01*
X94485262Y-95811654D01*
X94485827Y-95811717D01*
X94488003Y-95812012D01*
X94488859Y-95812053D01*
X94498247Y-95813094D01*
X94498176Y-95813733D01*
X94504407Y-95814309D01*
X94504455Y-95813671D01*
X94513665Y-95814349D01*
X94514570Y-95814473D01*
X94516915Y-95814590D01*
X94517568Y-95814638D01*
X94519205Y-95814576D01*
X94527533Y-95814788D01*
X94527534Y-95814699D01*
X94538390Y-95814794D01*
X94538395Y-95814795D01*
X94538399Y-95814794D01*
X94543043Y-95814835D01*
X94545720Y-95814682D01*
X94545726Y-95814683D01*
X94545731Y-95814681D01*
X94551688Y-95814342D01*
X94554202Y-95814249D01*
X94554206Y-95814250D01*
X94554209Y-95814249D01*
X94556719Y-95814157D01*
X94557861Y-95813988D01*
X94570072Y-95812975D01*
X94570073Y-95812976D01*
X94570073Y-95812975D01*
X94571435Y-95812863D01*
X94572158Y-95812846D01*
X94572243Y-95812836D01*
X94573583Y-95812574D01*
X94574012Y-95812518D01*
X94574120Y-95812522D01*
X94574212Y-95812491D01*
X94586159Y-95810935D01*
X94586165Y-95810936D01*
X94586170Y-95810934D01*
X94588698Y-95810605D01*
X94589110Y-95810504D01*
X94597234Y-95809016D01*
X94598656Y-95808856D01*
X94600709Y-95808402D01*
X94602716Y-95808040D01*
X94602718Y-95808040D01*
X94602719Y-95808039D01*
X94605250Y-95807583D01*
X94605944Y-95807377D01*
X94618984Y-95804370D01*
X94618991Y-95804370D01*
X94618997Y-95804367D01*
X94623028Y-95803438D01*
X94628298Y-95801828D01*
X94628303Y-95801828D01*
X94628307Y-95801825D01*
X94638691Y-95798655D01*
X94638766Y-95798902D01*
X94653321Y-95793814D01*
X94664876Y-95789254D01*
X94664955Y-95789455D01*
X94680039Y-95782788D01*
X94680769Y-95782429D01*
X94680771Y-95782429D01*
X94680772Y-95782427D01*
X94690511Y-95777647D01*
X94690577Y-95777782D01*
X94706143Y-95769329D01*
X94706285Y-95769275D01*
X94706286Y-95769273D01*
X94715598Y-95763709D01*
X94715612Y-95763733D01*
X94730688Y-95753825D01*
X94731509Y-95753429D01*
X94731516Y-95753420D01*
X94740313Y-95747086D01*
X94740744Y-95747685D01*
X94741096Y-95747414D01*
X94740829Y-95747089D01*
X94758543Y-95732489D01*
X94759532Y-95731775D01*
X94761390Y-95730095D01*
X94761394Y-95730093D01*
X94761396Y-95730089D01*
X94767545Y-95724532D01*
X94774029Y-95719412D01*
X94833364Y-95678692D01*
X94899775Y-95656990D01*
X94967380Y-95674638D01*
X95014711Y-95726033D01*
X95025433Y-95758248D01*
X95038585Y-95828924D01*
X95039554Y-95837170D01*
X95040084Y-95847756D01*
X95040305Y-95849125D01*
X95041640Y-95863189D01*
X95041922Y-95864547D01*
X95043871Y-95878451D01*
X95044293Y-95880118D01*
X95046683Y-95893100D01*
X95047117Y-95894545D01*
X95050196Y-95907933D01*
X95050858Y-95909841D01*
X95056156Y-95929208D01*
X95056441Y-95929111D01*
X95060249Y-95940277D01*
X95066124Y-95955472D01*
X95066329Y-95955384D01*
X95071287Y-95966823D01*
X95077946Y-95980650D01*
X95078173Y-95980530D01*
X95085801Y-95994885D01*
X95095297Y-96010154D01*
X95095447Y-96010434D01*
X95098127Y-96014298D01*
X95101987Y-96020341D01*
X95114187Y-96036258D01*
X95114828Y-96037215D01*
X95115230Y-96037718D01*
X95115757Y-96038271D01*
X95124529Y-96048657D01*
X95125123Y-96049459D01*
X95128730Y-96053346D01*
X95134293Y-96059596D01*
X95145684Y-96070821D01*
X95146629Y-96071881D01*
X95147829Y-96072961D01*
X95149341Y-96074393D01*
X95150067Y-96074970D01*
X95156425Y-96080700D01*
X95157627Y-96081936D01*
X95158306Y-96082497D01*
X95160587Y-96084477D01*
X95160649Y-96084534D01*
X95161641Y-96085253D01*
X95168238Y-96090704D01*
X95169451Y-96091846D01*
X95171545Y-96093513D01*
X95171853Y-96093771D01*
X95173053Y-96094573D01*
X95179998Y-96099898D01*
X95180689Y-96100500D01*
X95182646Y-96101925D01*
X95184117Y-96103052D01*
X95185420Y-96103841D01*
X95198326Y-96112862D01*
X95205384Y-96117132D01*
X95210003Y-96120058D01*
X95211157Y-96120622D01*
X95222693Y-96127219D01*
X95223339Y-96127641D01*
X95223379Y-96127662D01*
X95224435Y-96128119D01*
X95225082Y-96128448D01*
X95225112Y-96128471D01*
X95225144Y-96128480D01*
X95236235Y-96134134D01*
X95236238Y-96134136D01*
X95236240Y-96134136D01*
X95242860Y-96137511D01*
X95249451Y-96140173D01*
X95251286Y-96141000D01*
X95251290Y-96141003D01*
X95251293Y-96141003D01*
X95253691Y-96142085D01*
X95254061Y-96142204D01*
X95270749Y-96148750D01*
X95276101Y-96150433D01*
X95276104Y-96150435D01*
X95276106Y-96150435D01*
X95286459Y-96153692D01*
X95286374Y-96153961D01*
X95300482Y-96157795D01*
X95302562Y-96158273D01*
X95302566Y-96158275D01*
X95302569Y-96158275D01*
X95313141Y-96160707D01*
X95313093Y-96160915D01*
X95329418Y-96163983D01*
X95340872Y-96165661D01*
X95340830Y-96165947D01*
X95350693Y-96166784D01*
X95350695Y-96166785D01*
X95350696Y-96166784D01*
X95361592Y-96167710D01*
X95363230Y-96167958D01*
X95365670Y-96168059D01*
X95365674Y-96168060D01*
X95365677Y-96168059D01*
X95375734Y-96168477D01*
X95377653Y-96168685D01*
X95380078Y-96168685D01*
X95380083Y-96168686D01*
X95380087Y-96168685D01*
X95391530Y-96168686D01*
X95392996Y-96168781D01*
X95395458Y-96168672D01*
X95395464Y-96168673D01*
X95395469Y-96168671D01*
X95406685Y-96168177D01*
X95408207Y-96168209D01*
X95410670Y-96167991D01*
X95410675Y-96167992D01*
X95410679Y-96167990D01*
X95422600Y-96166939D01*
X95423856Y-96166909D01*
X95426339Y-96166575D01*
X95426341Y-96166576D01*
X95426342Y-96166575D01*
X95434584Y-96165470D01*
X95442840Y-96164918D01*
X95779028Y-96164918D01*
X95787309Y-96165473D01*
X95795367Y-96166557D01*
X95795369Y-96166558D01*
X95795370Y-96166557D01*
X95797838Y-96166890D01*
X95799120Y-96166921D01*
X95811005Y-96167976D01*
X95811008Y-96167977D01*
X95811010Y-96167976D01*
X95813469Y-96168195D01*
X95814965Y-96168164D01*
X95826284Y-96168667D01*
X95826291Y-96168669D01*
X95826297Y-96168668D01*
X95828766Y-96168778D01*
X95830279Y-96168681D01*
X95841547Y-96168686D01*
X95841549Y-96168687D01*
X95841550Y-96168686D01*
X95843974Y-96168688D01*
X95845850Y-96168486D01*
X95856055Y-96168064D01*
X95856059Y-96168065D01*
X95856062Y-96168064D01*
X95858490Y-96167964D01*
X95860210Y-96167705D01*
X95870888Y-96166807D01*
X95870893Y-96166808D01*
X95870897Y-96166806D01*
X95873288Y-96166606D01*
X95875244Y-96166226D01*
X95885147Y-96164980D01*
X95885156Y-96164981D01*
X95885164Y-96164978D01*
X95887529Y-96164681D01*
X95889605Y-96164190D01*
X95899015Y-96162619D01*
X95899024Y-96162620D01*
X95899032Y-96162617D01*
X95901364Y-96162228D01*
X95903499Y-96161632D01*
X95912615Y-96159735D01*
X95912623Y-96159735D01*
X95912630Y-96159732D01*
X95914962Y-96159247D01*
X95916985Y-96158594D01*
X95926286Y-96156264D01*
X95926293Y-96156264D01*
X95926299Y-96156261D01*
X95928596Y-96155686D01*
X95930728Y-96154902D01*
X95939461Y-96152344D01*
X95939468Y-96152344D01*
X95939473Y-96152341D01*
X95943675Y-96151111D01*
X95944462Y-96150826D01*
X95949151Y-96149509D01*
X95954613Y-96147366D01*
X95954622Y-96147365D01*
X95954629Y-96147360D01*
X95954809Y-96147290D01*
X95954819Y-96147286D01*
X95967714Y-96142231D01*
X95968108Y-96142104D01*
X95969364Y-96141538D01*
X95969391Y-96141526D01*
X95970503Y-96141024D01*
X95970510Y-96141023D01*
X95970515Y-96141019D01*
X95982428Y-96135651D01*
X95983215Y-96135354D01*
X95985496Y-96134191D01*
X95985503Y-96134190D01*
X95985508Y-96134185D01*
X95994318Y-96129699D01*
X95997275Y-96128291D01*
X96000281Y-96126572D01*
X96000291Y-96126569D01*
X96000298Y-96126562D01*
X96005312Y-96123697D01*
X96009883Y-96121298D01*
X96013830Y-96118798D01*
X96013836Y-96118796D01*
X96013840Y-96118791D01*
X96017076Y-96116743D01*
X96022100Y-96113858D01*
X96027084Y-96110372D01*
X96027090Y-96110370D01*
X96027094Y-96110365D01*
X96027407Y-96110147D01*
X96030010Y-96108422D01*
X96033907Y-96105979D01*
X96039206Y-96101922D01*
X96041501Y-96100247D01*
X96045999Y-96097119D01*
X96050248Y-96093560D01*
X96052498Y-96091768D01*
X96053666Y-96090667D01*
X96060071Y-96085372D01*
X96061116Y-96084613D01*
X96061154Y-96084580D01*
X96063462Y-96082578D01*
X96064081Y-96082066D01*
X96065079Y-96081041D01*
X96075435Y-96071695D01*
X96076585Y-96070405D01*
X96084239Y-96062876D01*
X96084245Y-96062873D01*
X96084249Y-96062867D01*
X96088535Y-96058652D01*
X96092239Y-96054315D01*
X96095212Y-96051106D01*
X96095217Y-96051103D01*
X96095219Y-96051098D01*
X96098199Y-96047884D01*
X96101251Y-96044011D01*
X96105324Y-96039197D01*
X96105327Y-96039195D01*
X96105328Y-96039192D01*
X96107407Y-96036736D01*
X96109124Y-96034371D01*
X96115521Y-96026021D01*
X96115525Y-96026019D01*
X96115526Y-96026015D01*
X96117085Y-96023982D01*
X96117526Y-96023251D01*
X96124903Y-96012612D01*
X96124911Y-96012605D01*
X96124915Y-96012595D01*
X96126431Y-96010410D01*
X96126543Y-96010203D01*
X96134131Y-95997988D01*
X96134137Y-95997983D01*
X96134139Y-95997975D01*
X96137035Y-95993316D01*
X96138730Y-95989979D01*
X96139109Y-95989286D01*
X96139293Y-95988869D01*
X96145874Y-95975898D01*
X96146929Y-95974122D01*
X96147921Y-95971951D01*
X96147925Y-95971946D01*
X96147926Y-95971939D01*
X96151732Y-95963616D01*
X96152808Y-95961628D01*
X96153709Y-95959430D01*
X96153713Y-95959425D01*
X96153714Y-95959419D01*
X96157102Y-95951162D01*
X96158135Y-95949062D01*
X96158946Y-95946841D01*
X96158948Y-95946839D01*
X96158948Y-95946836D01*
X96162613Y-95936810D01*
X96163323Y-95935204D01*
X96164056Y-95932895D01*
X96164059Y-95932891D01*
X96164059Y-95932886D01*
X96167031Y-95923537D01*
X96167778Y-95921635D01*
X96168407Y-95919332D01*
X96168411Y-95919326D01*
X96168411Y-95919318D01*
X96171006Y-95909836D01*
X96171670Y-95907921D01*
X96172207Y-95905585D01*
X96172209Y-95905581D01*
X96172209Y-95905576D01*
X96174658Y-95894929D01*
X96175133Y-95893346D01*
X96175577Y-95890942D01*
X96175579Y-95890939D01*
X96175579Y-95890935D01*
X96177681Y-95879574D01*
X96178027Y-95878205D01*
X96178368Y-95875752D01*
X96178371Y-95875745D01*
X96178370Y-95875737D01*
X96179855Y-95865083D01*
X96180197Y-95863432D01*
X96180430Y-95860995D01*
X96180432Y-95860990D01*
X96180431Y-95860984D01*
X96181624Y-95848540D01*
X96181794Y-95847483D01*
X96181917Y-95844969D01*
X96181918Y-95844967D01*
X96181917Y-95844964D01*
X96182293Y-95837317D01*
X96183267Y-95828999D01*
X96185169Y-95818782D01*
X96196439Y-95758233D01*
X96228059Y-95695930D01*
X96288345Y-95660611D01*
X96358155Y-95663491D01*
X96388505Y-95678684D01*
X96447857Y-95719414D01*
X96454377Y-95724564D01*
X96462168Y-95731615D01*
X96463129Y-95732309D01*
X96472502Y-95740043D01*
X96472504Y-95740045D01*
X96472506Y-95740046D01*
X96474405Y-95741613D01*
X96475775Y-95742513D01*
X96486435Y-95750562D01*
X96487783Y-95751366D01*
X96496954Y-95757682D01*
X96496957Y-95757685D01*
X96496959Y-95757686D01*
X96498979Y-95759077D01*
X96500451Y-95759870D01*
X96511679Y-95766912D01*
X96513315Y-95767706D01*
X96522408Y-95772887D01*
X96522410Y-95772889D01*
X96522412Y-95772889D01*
X96531168Y-95777879D01*
X96531298Y-95777615D01*
X96541640Y-95782696D01*
X96556903Y-95789443D01*
X96556980Y-95789249D01*
X96567068Y-95793230D01*
X96567072Y-95793233D01*
X96567075Y-95793233D01*
X96568442Y-95793773D01*
X96583131Y-95798905D01*
X96583204Y-95798668D01*
X96593579Y-95801834D01*
X96593582Y-95801836D01*
X96593584Y-95801836D01*
X96598685Y-95803393D01*
X96602550Y-95804288D01*
X96602556Y-95804291D01*
X96602561Y-95804291D01*
X96615403Y-95807267D01*
X96616166Y-95807495D01*
X96618682Y-95807951D01*
X96618689Y-95807954D01*
X96618696Y-95807954D01*
X96621105Y-95808391D01*
X96628030Y-95809923D01*
X96635275Y-95810877D01*
X96635277Y-95810878D01*
X96635278Y-95810877D01*
X96647783Y-95812525D01*
X96647801Y-95812531D01*
X96647820Y-95812530D01*
X96648122Y-95812570D01*
X96649249Y-95812792D01*
X96649833Y-95812857D01*
X96650622Y-95812876D01*
X96651538Y-95812952D01*
X96651539Y-95812953D01*
X96651539Y-95812952D01*
X96663816Y-95813983D01*
X96664906Y-95814145D01*
X96667424Y-95814239D01*
X96667431Y-95814241D01*
X96667437Y-95814240D01*
X96670128Y-95814341D01*
X96676169Y-95814685D01*
X96676174Y-95814686D01*
X96676178Y-95814685D01*
X96678751Y-95814832D01*
X96683261Y-95814795D01*
X96683267Y-95814796D01*
X96683272Y-95814795D01*
X96694157Y-95814706D01*
X96695810Y-95814801D01*
X96698260Y-95814674D01*
X96698264Y-95814675D01*
X96698267Y-95814674D01*
X96709318Y-95814104D01*
X96710913Y-95814127D01*
X96712048Y-95814020D01*
X96714955Y-95813813D01*
X96720518Y-95813548D01*
X96726055Y-95812786D01*
X96728937Y-95812458D01*
X96734739Y-95811934D01*
X96740014Y-95810985D01*
X96742796Y-95810550D01*
X96744742Y-95810290D01*
X96746142Y-95809945D01*
X96757313Y-95807956D01*
X96757321Y-95807956D01*
X96757327Y-95807953D01*
X96761779Y-95807161D01*
X96764384Y-95806519D01*
X96764393Y-95806519D01*
X96764401Y-95806515D01*
X96770142Y-95805102D01*
X96772680Y-95804530D01*
X96772689Y-95804530D01*
X96772696Y-95804526D01*
X96775156Y-95803973D01*
X96776176Y-95803622D01*
X96788902Y-95800133D01*
X96789717Y-95799961D01*
X96790332Y-95799774D01*
X96791559Y-95799286D01*
X96791653Y-95799273D01*
X96791770Y-95799209D01*
X96803305Y-95795467D01*
X96803308Y-95795467D01*
X96803310Y-95795465D01*
X96805791Y-95794661D01*
X96806511Y-95794336D01*
X96814360Y-95791378D01*
X96815427Y-95791054D01*
X96817344Y-95790238D01*
X96819219Y-95789526D01*
X96819225Y-95789526D01*
X96819229Y-95789523D01*
X96821626Y-95788615D01*
X96822258Y-95788291D01*
X96838311Y-95781290D01*
X96843194Y-95778743D01*
X96843199Y-95778742D01*
X96843202Y-95778739D01*
X96852834Y-95773717D01*
X96852961Y-95773961D01*
X96865755Y-95766629D01*
X96867491Y-95765541D01*
X96867494Y-95765540D01*
X96867496Y-95765538D01*
X96876688Y-95759779D01*
X96876784Y-95759933D01*
X96891257Y-95750020D01*
X96900012Y-95743486D01*
X96900185Y-95743717D01*
X96907710Y-95737353D01*
X96907714Y-95737351D01*
X96907716Y-95737347D01*
X96915859Y-95730462D01*
X96917275Y-95729416D01*
X96919058Y-95727772D01*
X96919064Y-95727769D01*
X96919067Y-95727763D01*
X96926915Y-95720533D01*
X96928269Y-95719441D01*
X96929982Y-95717721D01*
X96929986Y-95717719D01*
X96929988Y-95717715D01*
X96937543Y-95710134D01*
X96938834Y-95708998D01*
X96940481Y-95707197D01*
X96940488Y-95707192D01*
X96940492Y-95707184D01*
X96948180Y-95698781D01*
X96949249Y-95697755D01*
X96950828Y-95695866D01*
X96950831Y-95695865D01*
X96950832Y-95695862D01*
X96958521Y-95686673D01*
X96959385Y-95685765D01*
X96960902Y-95683773D01*
X96960907Y-95683770D01*
X96960909Y-95683764D01*
X96965760Y-95677402D01*
X96971230Y-95671143D01*
X97208929Y-95433444D01*
X97215117Y-95428028D01*
X97221948Y-95422805D01*
X97221955Y-95422802D01*
X97221959Y-95422796D01*
X97223936Y-95421286D01*
X97224909Y-95420358D01*
X97233907Y-95412817D01*
X97233910Y-95412816D01*
X97233911Y-95412814D01*
X97242233Y-95405841D01*
X97242464Y-95406117D01*
X97243154Y-95405498D01*
X97242686Y-95405010D01*
X97250516Y-95397507D01*
X97250516Y-95397505D01*
X97250521Y-95397503D01*
X97251022Y-95396817D01*
X97263481Y-95383817D01*
X97263454Y-95383793D01*
X97270619Y-95375647D01*
X97270619Y-95375645D01*
X97270622Y-95375644D01*
X97270737Y-95375454D01*
X97281891Y-95361666D01*
X97281778Y-95361582D01*
X97288246Y-95352874D01*
X97288250Y-95352871D01*
X97288252Y-95352866D01*
X97288835Y-95352082D01*
X97297999Y-95338651D01*
X97297808Y-95338532D01*
X97303556Y-95329334D01*
X97303560Y-95329331D01*
X97303561Y-95329326D01*
X97304426Y-95327944D01*
X97312026Y-95314638D01*
X97311798Y-95314520D01*
X97316802Y-95304885D01*
X97316807Y-95304880D01*
X97316809Y-95304872D01*
X97319274Y-95300128D01*
X97320758Y-95296723D01*
X97320764Y-95296716D01*
X97320766Y-95296706D01*
X97326272Y-95284084D01*
X97326528Y-95283584D01*
X97327441Y-95281170D01*
X97327445Y-95281164D01*
X97327446Y-95281156D01*
X97328273Y-95278972D01*
X97331032Y-95272466D01*
X97337128Y-95253668D01*
X97337133Y-95253660D01*
X97337134Y-95253649D01*
X97337271Y-95253229D01*
X97337709Y-95252122D01*
X97337819Y-95251759D01*
X97337965Y-95251066D01*
X97338280Y-95249911D01*
X97338282Y-95249908D01*
X97338282Y-95249903D01*
X97341568Y-95237874D01*
X97341905Y-95236891D01*
X97343130Y-95231415D01*
X97345062Y-95223567D01*
X97345832Y-95219215D01*
X97345834Y-95219211D01*
X97345834Y-95219206D01*
X97347726Y-95208519D01*
X97347791Y-95208530D01*
X97349216Y-95199652D01*
X97349550Y-95198166D01*
X97349580Y-95197894D01*
X97349829Y-95196039D01*
X97349865Y-95195283D01*
X97350967Y-95185182D01*
X97351740Y-95185266D01*
X97352217Y-95180094D01*
X97351429Y-95180035D01*
X97352226Y-95169433D01*
X97352339Y-95168610D01*
X97352420Y-95166969D01*
X97352374Y-95165747D01*
X97352589Y-95156676D01*
X97352505Y-95156676D01*
X97352607Y-95145824D01*
X97352608Y-95145820D01*
X97352607Y-95145815D01*
X97352654Y-95140840D01*
X97352461Y-95137590D01*
X97352462Y-95137585D01*
X97352460Y-95137579D01*
X97352157Y-95132459D01*
X97352087Y-95130474D01*
X97352089Y-95130467D01*
X97352087Y-95130459D01*
X97352000Y-95127947D01*
X97351829Y-95126772D01*
X97350855Y-95114699D01*
X97350856Y-95114691D01*
X97350853Y-95114683D01*
X97350644Y-95112080D01*
X97350296Y-95109589D01*
X97350297Y-95109582D01*
X97350294Y-95109574D01*
X97349965Y-95107211D01*
X97348486Y-95095755D01*
X97348235Y-95094721D01*
X97345597Y-95079782D01*
X97345463Y-95079327D01*
X97341341Y-95061268D01*
X97339503Y-95055264D01*
X97339503Y-95055261D01*
X97339501Y-95055258D01*
X97339230Y-95054371D01*
X97338950Y-95053293D01*
X97338696Y-95052625D01*
X97336314Y-95044844D01*
X97336582Y-95044761D01*
X97331840Y-95031234D01*
X97327002Y-95018991D01*
X97327215Y-95018906D01*
X97320716Y-95004215D01*
X97320227Y-95003219D01*
X97320225Y-95003212D01*
X97320220Y-95003205D01*
X97315442Y-94993475D01*
X97315575Y-94993409D01*
X97307112Y-94977830D01*
X97307054Y-94977678D01*
X97301488Y-94968369D01*
X97301564Y-94968322D01*
X97291753Y-94953373D01*
X97291528Y-94952905D01*
X97291526Y-94952903D01*
X97285198Y-94944090D01*
X97285766Y-94943681D01*
X97285312Y-94943091D01*
X97285014Y-94943337D01*
X97270859Y-94926136D01*
X97270016Y-94924965D01*
X97268353Y-94923117D01*
X97268350Y-94923112D01*
X97268344Y-94923107D01*
X97262262Y-94916349D01*
X97257217Y-94909942D01*
X97216553Y-94850674D01*
X97194856Y-94784258D01*
X97212511Y-94716656D01*
X97263912Y-94669330D01*
X97296124Y-94658612D01*
X97366753Y-94645478D01*
X97374837Y-94644518D01*
X97384006Y-94644035D01*
X97384011Y-94644036D01*
X97384015Y-94644035D01*
X97386525Y-94643903D01*
X97387638Y-94643720D01*
X97399886Y-94642507D01*
X97399897Y-94642508D01*
X97399907Y-94642505D01*
X97402353Y-94642263D01*
X97403875Y-94641943D01*
X97414933Y-94640357D01*
X97414937Y-94640358D01*
X97414940Y-94640357D01*
X97417368Y-94640009D01*
X97418947Y-94639604D01*
X97429699Y-94637585D01*
X97429702Y-94637585D01*
X97429704Y-94637584D01*
X97440064Y-94635639D01*
X97439989Y-94635341D01*
X97450503Y-94632674D01*
X97450508Y-94632674D01*
X97450631Y-94632618D01*
X97467597Y-94627566D01*
X97467547Y-94627421D01*
X97478217Y-94623760D01*
X97494081Y-94617589D01*
X97494002Y-94617406D01*
X97503941Y-94613068D01*
X97503947Y-94613067D01*
X97503952Y-94613063D01*
X97506057Y-94612145D01*
X97519023Y-94605874D01*
X97518886Y-94605616D01*
X97528479Y-94600497D01*
X97528485Y-94600496D01*
X97528489Y-94600492D01*
X97533660Y-94597734D01*
X97537392Y-94595384D01*
X97537401Y-94595381D01*
X97537408Y-94595374D01*
X97549058Y-94588041D01*
X97549563Y-94587765D01*
X97551604Y-94586334D01*
X97553948Y-94584767D01*
X97554231Y-94584586D01*
X97555164Y-94583836D01*
X97562158Y-94578930D01*
X97563044Y-94578389D01*
X97565049Y-94576837D01*
X97565055Y-94576835D01*
X97565059Y-94576830D01*
X97574371Y-94569627D01*
X97574484Y-94569570D01*
X97574579Y-94569467D01*
X97575266Y-94568936D01*
X97576217Y-94568292D01*
X97576551Y-94567973D01*
X97586987Y-94559084D01*
X97588010Y-94558320D01*
X97589837Y-94556615D01*
X97589841Y-94556613D01*
X97589843Y-94556609D01*
X97591853Y-94554735D01*
X97595715Y-94551286D01*
X97595719Y-94551284D01*
X97595721Y-94551280D01*
X97598064Y-94549189D01*
X97601477Y-94545696D01*
X97601482Y-94545694D01*
X97601484Y-94545689D01*
X97609292Y-94537704D01*
X97610428Y-94536684D01*
X97611372Y-94535632D01*
X97613192Y-94533695D01*
X97613812Y-94532909D01*
X97619396Y-94526676D01*
X97620538Y-94525558D01*
X97620775Y-94525271D01*
X97622585Y-94523177D01*
X97623583Y-94521807D01*
X97630640Y-94513348D01*
X97630648Y-94513342D01*
X97630652Y-94513333D01*
X97634554Y-94508658D01*
X97636242Y-94506314D01*
X97636250Y-94506307D01*
X97636254Y-94506297D01*
X97640110Y-94500946D01*
X97641394Y-94499262D01*
X97642247Y-94497848D01*
X97648463Y-94488921D01*
X97648468Y-94488917D01*
X97648470Y-94488911D01*
X97651086Y-94485156D01*
X97652553Y-94482720D01*
X97652559Y-94482714D01*
X97652561Y-94482706D01*
X97655394Y-94478006D01*
X97657035Y-94475399D01*
X97657040Y-94475395D01*
X97657042Y-94475389D01*
X97658383Y-94473261D01*
X97658869Y-94472261D01*
X97664960Y-94461520D01*
X97664964Y-94461516D01*
X97664966Y-94461510D01*
X97665438Y-94460678D01*
X97665851Y-94460041D01*
X97666099Y-94459575D01*
X97666654Y-94458282D01*
X97666710Y-94458207D01*
X97666735Y-94458120D01*
X97672214Y-94447333D01*
X97672219Y-94447328D01*
X97672221Y-94447320D01*
X97673427Y-94444947D01*
X97673697Y-94444231D01*
X97677109Y-94436681D01*
X97677524Y-94435903D01*
X97678300Y-94433975D01*
X97680367Y-94429350D01*
X97680574Y-94428702D01*
X97685466Y-94416152D01*
X97685468Y-94416150D01*
X97685468Y-94416147D01*
X97686839Y-94412632D01*
X97688497Y-94407346D01*
X97688936Y-94406054D01*
X97689071Y-94405512D01*
X97691704Y-94397112D01*
X97691947Y-94397188D01*
X97695940Y-94382399D01*
X97698715Y-94370222D01*
X97698942Y-94370273D01*
X97701880Y-94354478D01*
X97703597Y-94342634D01*
X97703901Y-94342678D01*
X97704756Y-94332180D01*
X97704757Y-94332178D01*
X97704756Y-94332175D01*
X97705542Y-94322537D01*
X97705848Y-94320485D01*
X97706395Y-94307051D01*
X97706565Y-94305450D01*
X97706558Y-94302997D01*
X97706560Y-94302988D01*
X97706558Y-94302978D01*
X97706528Y-94291713D01*
X97706623Y-94290190D01*
X97706508Y-94287735D01*
X97706509Y-94287732D01*
X97706508Y-94287728D01*
X97706002Y-94276870D01*
X97706033Y-94275209D01*
X97705813Y-94272769D01*
X97705814Y-94272765D01*
X97705812Y-94272760D01*
X97704705Y-94260439D01*
X97704676Y-94259325D01*
X97703345Y-94249592D01*
X97702772Y-94241185D01*
X97702741Y-93976649D01*
X97702732Y-93904962D01*
X97703281Y-93896720D01*
X97704395Y-93888394D01*
X97704397Y-93888390D01*
X97704396Y-93888385D01*
X97704726Y-93885927D01*
X97704760Y-93884492D01*
X97705996Y-93870598D01*
X97705967Y-93869199D01*
X97706478Y-93857600D01*
X97706480Y-93857596D01*
X97706479Y-93857590D01*
X97706588Y-93855129D01*
X97706488Y-93853584D01*
X97706490Y-93842369D01*
X97706491Y-93842366D01*
X97706490Y-93842362D01*
X97706491Y-93839937D01*
X97706291Y-93838084D01*
X97705860Y-93827767D01*
X97705861Y-93827764D01*
X97705860Y-93827760D01*
X97705760Y-93825356D01*
X97705469Y-93823424D01*
X97704432Y-93810958D01*
X97704078Y-93809131D01*
X97702784Y-93798851D01*
X97702785Y-93798845D01*
X97702783Y-93798839D01*
X97702486Y-93796477D01*
X97701975Y-93794313D01*
X97700060Y-93782792D01*
X97699499Y-93780784D01*
X97697031Y-93768938D01*
X97696313Y-93766713D01*
X97693577Y-93755739D01*
X97692815Y-93753662D01*
X97688914Y-93740310D01*
X97688657Y-93739604D01*
X97687361Y-93734998D01*
X97687319Y-93734856D01*
X97685174Y-93729390D01*
X97685173Y-93729382D01*
X97685168Y-93729374D01*
X97684623Y-93727984D01*
X97680061Y-93716350D01*
X97679920Y-93715912D01*
X97678841Y-93713518D01*
X97678841Y-93713515D01*
X97678839Y-93713512D01*
X97673246Y-93701094D01*
X97673037Y-93700539D01*
X97667767Y-93690218D01*
X97666190Y-93686884D01*
X97664404Y-93683760D01*
X97664404Y-93683758D01*
X97664402Y-93683756D01*
X97661538Y-93678744D01*
X97659165Y-93674210D01*
X97654590Y-93666990D01*
X97651649Y-93661890D01*
X97648225Y-93656981D01*
X97648223Y-93656977D01*
X97648219Y-93656973D01*
X97641559Y-93647425D01*
X97640854Y-93646260D01*
X97639944Y-93645072D01*
X97638571Y-93643186D01*
X97637973Y-93642500D01*
X97632506Y-93635369D01*
X97631645Y-93634080D01*
X97631492Y-93633897D01*
X97629530Y-93631433D01*
X97629481Y-93631369D01*
X97628197Y-93630005D01*
X97622930Y-93623618D01*
X97622225Y-93622646D01*
X97620468Y-93620619D01*
X97620150Y-93620232D01*
X97615255Y-93614927D01*
X97606476Y-93605185D01*
X97603801Y-93602901D01*
X97596604Y-93595596D01*
X97592329Y-93591934D01*
X97585824Y-93585898D01*
X97582212Y-93583052D01*
X97576852Y-93578524D01*
X97576850Y-93578521D01*
X97576846Y-93578518D01*
X97574878Y-93576856D01*
X97574238Y-93576427D01*
X97561656Y-93566788D01*
X97561225Y-93566529D01*
X97547619Y-93557135D01*
X97547189Y-93556904D01*
X97531098Y-93546931D01*
X97527841Y-93545279D01*
X97527088Y-93544866D01*
X97526625Y-93544663D01*
X97522387Y-93542512D01*
X97522386Y-93542512D01*
X97522384Y-93542511D01*
X97514539Y-93538531D01*
X97512509Y-93537321D01*
X97501465Y-93532244D01*
X97499655Y-93531260D01*
X97488612Y-93526721D01*
X97486683Y-93525772D01*
X97475366Y-93521643D01*
X97473453Y-93520796D01*
X97461735Y-93517051D01*
X97459879Y-93516318D01*
X97447210Y-93512834D01*
X97445587Y-93512270D01*
X97433420Y-93509478D01*
X97431547Y-93508914D01*
X97417608Y-93506316D01*
X97416318Y-93505988D01*
X97402342Y-93504028D01*
X97400986Y-93503747D01*
X97386845Y-93502404D01*
X97385512Y-93502189D01*
X97374953Y-93501662D01*
X97366699Y-93500692D01*
X97296079Y-93487550D01*
X97233772Y-93455933D01*
X97198449Y-93395650D01*
X97201326Y-93325840D01*
X97216521Y-93295484D01*
X97257251Y-93236136D01*
X97262402Y-93229617D01*
X97267759Y-93223698D01*
X97267764Y-93223695D01*
X97267767Y-93223689D01*
X97269448Y-93221833D01*
X97270175Y-93220828D01*
X97277819Y-93211568D01*
X97277823Y-93211565D01*
X97277825Y-93211560D01*
X97279411Y-93209640D01*
X97280151Y-93208512D01*
X97287209Y-93199134D01*
X97287213Y-93199132D01*
X97287214Y-93199128D01*
X97288677Y-93197186D01*
X97289596Y-93195643D01*
X97295559Y-93186979D01*
X97295565Y-93186974D01*
X97295567Y-93186967D01*
X97296954Y-93184954D01*
X97297747Y-93183483D01*
X97303521Y-93174265D01*
X97303527Y-93174260D01*
X97303529Y-93174252D01*
X97304816Y-93172200D01*
X97305615Y-93170554D01*
X97315752Y-93152752D01*
X97315488Y-93152623D01*
X97320627Y-93142155D01*
X97327293Y-93127073D01*
X97327089Y-93126993D01*
X97331071Y-93116901D01*
X97331073Y-93116899D01*
X97331073Y-93116896D01*
X97331812Y-93115025D01*
X97336696Y-93101062D01*
X97336432Y-93100982D01*
X97339608Y-93090596D01*
X97339611Y-93090592D01*
X97339611Y-93090587D01*
X97341239Y-93085267D01*
X97342122Y-93081453D01*
X97342125Y-93081448D01*
X97342125Y-93081442D01*
X97345156Y-93068364D01*
X97345355Y-93067696D01*
X97345813Y-93065163D01*
X97345817Y-93065154D01*
X97345817Y-93065144D01*
X97346236Y-93062830D01*
X97347762Y-93055950D01*
X97348729Y-93048582D01*
X97348731Y-93048578D01*
X97348730Y-93048573D01*
X97350358Y-93036181D01*
X97350369Y-93036148D01*
X97350367Y-93036109D01*
X97350414Y-93035756D01*
X97350647Y-93034567D01*
X97350691Y-93034173D01*
X97350710Y-93033385D01*
X97350797Y-93032332D01*
X97350799Y-93032328D01*
X97350798Y-93032323D01*
X97351805Y-93020254D01*
X97351980Y-93019076D01*
X97352073Y-93016577D01*
X97352075Y-93016570D01*
X97352074Y-93016562D01*
X97352191Y-93013435D01*
X97352496Y-93008182D01*
X97352498Y-93008175D01*
X97352497Y-93008167D01*
X97352666Y-93005261D01*
X97352631Y-93000825D01*
X97352632Y-93000820D01*
X97352631Y-93000814D01*
X97352539Y-92989107D01*
X97352615Y-92987783D01*
X97352526Y-92986079D01*
X97352442Y-92983134D01*
X97352415Y-92977864D01*
X97351864Y-92972053D01*
X97351655Y-92969092D01*
X97351500Y-92968124D01*
X97350690Y-92959761D01*
X97350637Y-92958016D01*
X97350289Y-92954936D01*
X97350257Y-92954578D01*
X97349974Y-92953156D01*
X97348799Y-92944298D01*
X97348734Y-92943366D01*
X97348376Y-92941085D01*
X97348141Y-92939315D01*
X97347789Y-92937879D01*
X97345022Y-92922315D01*
X97344332Y-92919518D01*
X97344332Y-92919511D01*
X97344329Y-92919504D01*
X97343010Y-92914154D01*
X97342440Y-92911611D01*
X97342440Y-92911605D01*
X97342437Y-92911599D01*
X97341886Y-92909137D01*
X97341509Y-92908037D01*
X97337926Y-92894897D01*
X97337768Y-92894148D01*
X97337760Y-92894120D01*
X97337283Y-92892916D01*
X97337114Y-92892395D01*
X97337102Y-92892314D01*
X97337066Y-92892248D01*
X97333284Y-92880593D01*
X97333284Y-92880591D01*
X97333282Y-92880588D01*
X97330974Y-92873474D01*
X97328165Y-92866854D01*
X97327446Y-92864956D01*
X97327446Y-92864953D01*
X97327444Y-92864950D01*
X97326518Y-92862503D01*
X97326328Y-92862132D01*
X97319173Y-92845756D01*
X97316636Y-92840888D01*
X97316635Y-92840884D01*
X97316631Y-92840879D01*
X97311617Y-92831257D01*
X97311845Y-92831137D01*
X97304221Y-92817826D01*
X97297600Y-92807262D01*
X97297793Y-92807140D01*
X97288657Y-92793785D01*
X97288043Y-92792961D01*
X97288042Y-92792958D01*
X97288039Y-92792955D01*
X97281563Y-92784258D01*
X97281806Y-92784076D01*
X97268533Y-92768383D01*
X97267407Y-92766857D01*
X97265770Y-92765078D01*
X97265769Y-92765076D01*
X97265767Y-92765074D01*
X97258848Y-92757554D01*
X97257658Y-92756074D01*
X97247819Y-92746237D01*
X97246860Y-92745145D01*
X97236619Y-92735776D01*
X97235600Y-92734714D01*
X97224896Y-92725757D01*
X97223864Y-92724773D01*
X97221593Y-92723038D01*
X97220540Y-92721603D01*
X97219064Y-92720195D01*
X97214549Y-92715291D01*
X97215361Y-92714542D01*
X97180269Y-92666698D01*
X97175965Y-92596962D01*
X97210046Y-92535968D01*
X97271693Y-92503083D01*
X97296868Y-92500500D01*
X98985532Y-92500500D01*
X99052571Y-92520185D01*
X99098326Y-92572989D01*
X99108270Y-92642147D01*
X99079245Y-92705703D01*
X99044959Y-92733332D01*
X98959052Y-92780240D01*
X98959044Y-92780245D01*
X98739134Y-92944867D01*
X98739116Y-92944883D01*
X98544884Y-93139115D01*
X98544868Y-93139133D01*
X98380246Y-93359043D01*
X98380241Y-93359051D01*
X98248591Y-93600149D01*
X98213738Y-93693595D01*
X98152586Y-93857549D01*
X98152585Y-93857552D01*
X98152584Y-93857556D01*
X98094193Y-94125977D01*
X98094192Y-94125984D01*
X98074594Y-94399997D01*
X98074594Y-94400000D01*
X98094192Y-94674013D01*
X98094193Y-94674020D01*
X98148914Y-94925571D01*
X98152586Y-94942449D01*
X98224007Y-95133935D01*
X98248591Y-95199848D01*
X98380241Y-95440946D01*
X98380246Y-95440954D01*
X98544868Y-95660864D01*
X98544884Y-95660882D01*
X98739116Y-95855114D01*
X98739134Y-95855130D01*
X98959044Y-96019752D01*
X98959052Y-96019757D01*
X99200151Y-96151407D01*
X99200150Y-96151407D01*
X99200154Y-96151408D01*
X99200157Y-96151410D01*
X99457550Y-96247413D01*
X99725986Y-96305807D01*
X99980401Y-96324003D01*
X99999999Y-96325405D01*
X100000000Y-96325405D01*
X100000001Y-96325405D01*
X100018290Y-96324096D01*
X100274014Y-96305807D01*
X100542450Y-96247413D01*
X100799843Y-96151410D01*
X100799847Y-96151407D01*
X100799849Y-96151407D01*
X100929339Y-96080700D01*
X101040953Y-96019754D01*
X101260873Y-95855124D01*
X101455125Y-95660872D01*
X101619755Y-95440952D01*
X101705660Y-95283629D01*
X101751408Y-95199848D01*
X101751408Y-95199846D01*
X101751411Y-95199842D01*
X101847414Y-94942449D01*
X101905808Y-94674013D01*
X101925406Y-94399999D01*
X101924873Y-94392553D01*
X101922071Y-94353376D01*
X101905808Y-94125985D01*
X101847414Y-93857549D01*
X101751411Y-93600156D01*
X101751409Y-93600153D01*
X101751408Y-93600149D01*
X101619758Y-93359051D01*
X101619753Y-93359043D01*
X101455131Y-93139133D01*
X101455115Y-93139115D01*
X101260883Y-92944883D01*
X101260865Y-92944867D01*
X101040955Y-92780245D01*
X101040947Y-92780240D01*
X100955041Y-92733332D01*
X100905636Y-92683927D01*
X100890784Y-92615654D01*
X100915201Y-92550190D01*
X100971134Y-92508318D01*
X101014468Y-92500500D01*
X107852405Y-92500500D01*
X107897962Y-92500500D01*
X107902018Y-92500633D01*
X108086433Y-92512719D01*
X108143883Y-92516484D01*
X108151920Y-92517542D01*
X108387641Y-92564431D01*
X108395470Y-92566528D01*
X108623054Y-92643783D01*
X108630542Y-92646883D01*
X108846107Y-92753188D01*
X108853129Y-92757243D01*
X109052964Y-92890768D01*
X109059400Y-92895707D01*
X109240090Y-93054169D01*
X109245830Y-93059909D01*
X109404292Y-93240599D01*
X109409235Y-93247040D01*
X109542755Y-93446868D01*
X109546813Y-93453897D01*
X109652022Y-93667239D01*
X109653110Y-93669444D01*
X109656216Y-93676945D01*
X109733468Y-93904520D01*
X109735569Y-93912362D01*
X109782455Y-94148069D01*
X109783515Y-94156118D01*
X109799367Y-94397980D01*
X109799500Y-94402036D01*
X109799500Y-96180499D01*
X109779815Y-96247538D01*
X109727011Y-96293293D01*
X109675500Y-96304499D01*
X108152445Y-96304499D01*
X108105770Y-96310643D01*
X108003334Y-96358410D01*
X107940395Y-96421349D01*
X107879071Y-96454833D01*
X107809380Y-96449848D01*
X107781594Y-96435244D01*
X107662772Y-96352044D01*
X107453363Y-96254395D01*
X107453359Y-96254394D01*
X107453355Y-96254392D01*
X107230183Y-96194594D01*
X107230179Y-96194593D01*
X107230178Y-96194593D01*
X107230177Y-96194592D01*
X107230172Y-96194592D01*
X107000002Y-96174455D01*
X106999998Y-96174455D01*
X106769827Y-96194592D01*
X106769816Y-96194594D01*
X106546644Y-96254392D01*
X106546635Y-96254396D01*
X106337227Y-96352044D01*
X106337223Y-96352046D01*
X106148231Y-96484380D01*
X106082025Y-96506707D01*
X106014258Y-96489697D01*
X105989427Y-96470486D01*
X105111763Y-95592822D01*
X105078278Y-95531499D01*
X105075444Y-95505141D01*
X105075444Y-94999999D01*
X105070500Y-94943488D01*
X105070119Y-94942441D01*
X105031843Y-94837278D01*
X104987354Y-94784258D01*
X104959193Y-94750697D01*
X104959192Y-94750696D01*
X104959191Y-94750695D01*
X104959188Y-94750693D01*
X104959185Y-94750691D01*
X104861311Y-94694184D01*
X104861309Y-94694183D01*
X104750000Y-94674556D01*
X103600000Y-94674556D01*
X103579054Y-94675231D01*
X103579050Y-94675231D01*
X103469241Y-94701979D01*
X103375197Y-94764675D01*
X103308269Y-94855753D01*
X103276528Y-94964230D01*
X103276528Y-94964235D01*
X103283801Y-95077022D01*
X103303358Y-95121594D01*
X103329214Y-95180524D01*
X103497825Y-95433441D01*
X103663008Y-95681216D01*
X103683816Y-95747916D01*
X103665261Y-95815276D01*
X103663008Y-95818782D01*
X103329214Y-96319476D01*
X103318157Y-96337276D01*
X103282501Y-96435242D01*
X103279500Y-96443487D01*
X103279500Y-96556513D01*
X103318157Y-96662722D01*
X103390809Y-96749305D01*
X103390813Y-96749307D01*
X103390814Y-96749308D01*
X103488688Y-96805815D01*
X103488690Y-96805816D01*
X103488692Y-96805817D01*
X103600000Y-96825444D01*
X104255141Y-96825444D01*
X104322180Y-96845129D01*
X104342822Y-96861763D01*
X104818378Y-97337319D01*
X104851863Y-97398642D01*
X104846879Y-97468334D01*
X104818378Y-97512681D01*
X103287878Y-99043181D01*
X103226555Y-99076666D01*
X103200197Y-99079500D01*
X103082289Y-99079500D01*
X102994631Y-99090026D01*
X102994630Y-99090027D01*
X102855130Y-99145038D01*
X102855128Y-99145039D01*
X102735647Y-99235647D01*
X102645039Y-99355128D01*
X102645038Y-99355130D01*
X102590027Y-99494630D01*
X102590026Y-99494631D01*
X102579500Y-99582289D01*
X102579500Y-100417710D01*
X102590026Y-100505368D01*
X102590027Y-100505369D01*
X102645038Y-100644869D01*
X102645039Y-100644871D01*
X102662769Y-100668251D01*
X102735647Y-100764353D01*
X102855131Y-100854962D01*
X102994631Y-100909973D01*
X103082289Y-100920500D01*
X103082290Y-100920500D01*
X103617711Y-100920500D01*
X103661539Y-100915236D01*
X103705369Y-100909973D01*
X103844869Y-100854962D01*
X103964353Y-100764353D01*
X104054962Y-100644869D01*
X104109973Y-100505369D01*
X104120500Y-100417710D01*
X104120500Y-100299802D01*
X104140185Y-100232763D01*
X104156819Y-100212121D01*
X105913055Y-98455885D01*
X105974378Y-98422400D01*
X106044070Y-98427384D01*
X106088417Y-98455885D01*
X106147955Y-98515423D01*
X106147961Y-98515428D01*
X106337223Y-98647951D01*
X106337225Y-98647952D01*
X106337228Y-98647954D01*
X106546637Y-98745603D01*
X106769822Y-98805405D01*
X106934234Y-98819789D01*
X106999998Y-98825543D01*
X107000000Y-98825543D01*
X107000002Y-98825543D01*
X107057653Y-98820499D01*
X107230178Y-98805405D01*
X107453363Y-98745603D01*
X107662772Y-98647954D01*
X107811000Y-98544163D01*
X107877204Y-98521837D01*
X107944972Y-98538847D01*
X107969802Y-98558057D01*
X107995974Y-98584228D01*
X108003333Y-98591587D01*
X108105769Y-98639354D01*
X108152445Y-98645499D01*
X108152446Y-98645499D01*
X108671531Y-98645499D01*
X108738570Y-98665184D01*
X108784325Y-98717988D01*
X108794269Y-98787146D01*
X108765244Y-98850702D01*
X108716325Y-98885126D01*
X108516030Y-98962719D01*
X108516029Y-98962720D01*
X108331592Y-99076919D01*
X108224402Y-99174636D01*
X108161598Y-99205253D01*
X108140864Y-99206999D01*
X107268275Y-99206999D01*
X107201236Y-99187314D01*
X107193349Y-99181802D01*
X107144871Y-99145039D01*
X107144869Y-99145038D01*
X107005369Y-99090027D01*
X107005368Y-99090026D01*
X106917711Y-99079500D01*
X106917710Y-99079500D01*
X106382290Y-99079500D01*
X106382289Y-99079500D01*
X106294631Y-99090026D01*
X106294630Y-99090027D01*
X106155130Y-99145038D01*
X106155128Y-99145039D01*
X106035647Y-99235647D01*
X105945039Y-99355128D01*
X105945038Y-99355130D01*
X105890027Y-99494630D01*
X105890026Y-99494631D01*
X105879500Y-99582289D01*
X105879500Y-100417710D01*
X105890026Y-100505368D01*
X105890027Y-100505369D01*
X105945038Y-100644869D01*
X105945039Y-100644871D01*
X105962769Y-100668251D01*
X106035647Y-100764353D01*
X106155131Y-100854962D01*
X106294631Y-100909973D01*
X106382289Y-100920500D01*
X106382290Y-100920500D01*
X106917711Y-100920500D01*
X106946929Y-100916990D01*
X107005369Y-100909973D01*
X107140605Y-100856643D01*
X107186092Y-100847999D01*
X108168288Y-100847999D01*
X108235327Y-100867684D01*
X108251826Y-100880362D01*
X108305860Y-100929620D01*
X108331594Y-100953080D01*
X108516028Y-101067277D01*
X108718305Y-101145639D01*
X108811770Y-101163110D01*
X108874050Y-101194778D01*
X108909323Y-101255091D01*
X108906389Y-101324899D01*
X108866180Y-101382039D01*
X108811770Y-101406887D01*
X108718305Y-101424359D01*
X108718302Y-101424359D01*
X108718302Y-101424360D01*
X108516030Y-101502720D01*
X108516029Y-101502720D01*
X108331592Y-101616919D01*
X108229567Y-101709927D01*
X108166763Y-101740544D01*
X108097376Y-101732346D01*
X108044456Y-101689416D01*
X108015426Y-101647956D01*
X107852043Y-101484573D01*
X107852041Y-101484572D01*
X107852038Y-101484569D01*
X107662776Y-101352046D01*
X107662772Y-101352044D01*
X107662771Y-101352043D01*
X107453363Y-101254395D01*
X107453359Y-101254394D01*
X107453355Y-101254392D01*
X107230183Y-101194594D01*
X107230179Y-101194593D01*
X107230178Y-101194593D01*
X107230177Y-101194592D01*
X107230172Y-101194592D01*
X107000002Y-101174455D01*
X106999998Y-101174455D01*
X106769827Y-101194592D01*
X106769816Y-101194594D01*
X106546644Y-101254392D01*
X106546637Y-101254394D01*
X106546637Y-101254395D01*
X106520194Y-101266725D01*
X106337227Y-101352044D01*
X106337223Y-101352046D01*
X106147961Y-101484569D01*
X106147955Y-101484574D01*
X105984575Y-101647954D01*
X105984570Y-101647960D01*
X105852047Y-101837222D01*
X105852045Y-101837226D01*
X105754397Y-102046634D01*
X105754393Y-102046643D01*
X105694595Y-102269815D01*
X105694593Y-102269826D01*
X105674456Y-102499997D01*
X105674456Y-102500000D01*
X105694593Y-102730171D01*
X105694595Y-102730182D01*
X105754393Y-102953354D01*
X105754395Y-102953358D01*
X105754396Y-102953362D01*
X105852045Y-103162770D01*
X105852045Y-103162771D01*
X105852047Y-103162775D01*
X105984570Y-103352037D01*
X105984575Y-103352043D01*
X106147955Y-103515423D01*
X106147961Y-103515428D01*
X106337223Y-103647951D01*
X106337225Y-103647952D01*
X106337228Y-103647954D01*
X106546637Y-103745603D01*
X106769822Y-103805405D01*
X106934234Y-103819789D01*
X106999998Y-103825543D01*
X107000000Y-103825543D01*
X107000002Y-103825543D01*
X107057544Y-103820508D01*
X107230178Y-103805405D01*
X107453363Y-103745603D01*
X107662772Y-103647954D01*
X107852043Y-103515425D01*
X108008701Y-103358766D01*
X108070024Y-103325282D01*
X108139716Y-103330266D01*
X108179920Y-103354811D01*
X108331594Y-103493080D01*
X108516028Y-103607277D01*
X108718305Y-103685639D01*
X108931537Y-103725499D01*
X108931539Y-103725499D01*
X109148461Y-103725499D01*
X109148463Y-103725499D01*
X109361695Y-103685639D01*
X109563972Y-103607277D01*
X109610223Y-103578639D01*
X109677582Y-103560083D01*
X109744281Y-103580891D01*
X109789143Y-103634455D01*
X109799500Y-103684066D01*
X109799500Y-105552406D01*
X109799499Y-105597964D01*
X109799366Y-105602018D01*
X109783515Y-105843880D01*
X109782455Y-105851930D01*
X109735569Y-106087637D01*
X109733468Y-106095479D01*
X109656216Y-106323054D01*
X109653110Y-106330555D01*
X109546814Y-106546101D01*
X109542755Y-106553131D01*
X109409235Y-106752959D01*
X109404292Y-106759400D01*
X109245830Y-106940090D01*
X109240090Y-106945830D01*
X109059400Y-107104292D01*
X109052959Y-107109235D01*
X108853131Y-107242755D01*
X108846101Y-107246814D01*
X108630555Y-107353110D01*
X108623054Y-107356216D01*
X108395479Y-107433468D01*
X108387637Y-107435569D01*
X108151930Y-107482455D01*
X108143881Y-107483515D01*
X107902018Y-107499367D01*
X107897962Y-107499500D01*
X101014464Y-107499500D01*
X100947425Y-107479815D01*
X100901670Y-107427011D01*
X100891726Y-107357853D01*
X100920751Y-107294297D01*
X100955037Y-107266668D01*
X101001278Y-107241417D01*
X101040953Y-107219754D01*
X101260873Y-107055124D01*
X101455125Y-106860872D01*
X101619755Y-106640952D01*
X101751411Y-106399842D01*
X101847414Y-106142449D01*
X101905808Y-105874013D01*
X101925406Y-105599999D01*
X101925260Y-105597964D01*
X101922002Y-105552404D01*
X101905808Y-105325985D01*
X101847414Y-105057549D01*
X101751411Y-104800156D01*
X101751409Y-104800153D01*
X101751408Y-104800149D01*
X101619758Y-104559051D01*
X101619753Y-104559043D01*
X101455131Y-104339133D01*
X101455115Y-104339115D01*
X101260883Y-104144883D01*
X101260865Y-104144867D01*
X101040955Y-103980245D01*
X101040947Y-103980240D01*
X100799848Y-103848590D01*
X100799849Y-103848590D01*
X100684065Y-103805405D01*
X100542450Y-103752585D01*
X100542443Y-103752583D01*
X100542442Y-103752583D01*
X100274021Y-103694192D01*
X100274014Y-103694191D01*
X100000001Y-103674593D01*
X99999999Y-103674593D01*
X99725985Y-103694191D01*
X99725978Y-103694192D01*
X99457557Y-103752583D01*
X99457553Y-103752584D01*
X99457550Y-103752585D01*
X99328853Y-103800586D01*
X99200150Y-103848590D01*
X98959052Y-103980240D01*
X98959044Y-103980245D01*
X98739134Y-104144867D01*
X98739116Y-104144883D01*
X98544884Y-104339115D01*
X98544868Y-104339133D01*
X98380246Y-104559043D01*
X98380241Y-104559051D01*
X98248591Y-104800149D01*
X98200587Y-104928852D01*
X98152586Y-105057549D01*
X98152585Y-105057552D01*
X98152584Y-105057556D01*
X98094193Y-105325977D01*
X98094192Y-105325984D01*
X98074594Y-105599997D01*
X98074594Y-105600000D01*
X98094192Y-105874013D01*
X98094193Y-105874020D01*
X98141530Y-106091627D01*
X98152586Y-106142449D01*
X98221386Y-106326907D01*
X98248591Y-106399848D01*
X98380241Y-106640946D01*
X98380246Y-106640954D01*
X98544868Y-106860864D01*
X98544884Y-106860882D01*
X98739116Y-107055114D01*
X98739134Y-107055130D01*
X98959044Y-107219752D01*
X98959052Y-107219757D01*
X99044963Y-107266668D01*
X99094368Y-107316073D01*
X99109220Y-107384346D01*
X99084803Y-107449810D01*
X99028870Y-107491682D01*
X98985536Y-107499500D01*
X91602038Y-107499500D01*
X91597982Y-107499367D01*
X91356118Y-107483515D01*
X91348069Y-107482455D01*
X91112362Y-107435569D01*
X91104520Y-107433468D01*
X90876945Y-107356216D01*
X90869450Y-107353112D01*
X90653897Y-107246813D01*
X90646868Y-107242755D01*
X90447040Y-107109235D01*
X90440599Y-107104292D01*
X90259909Y-106945830D01*
X90254169Y-106940090D01*
X90095707Y-106759400D01*
X90090768Y-106752964D01*
X89957243Y-106553129D01*
X89953188Y-106546107D01*
X89846883Y-106330542D01*
X89843783Y-106323054D01*
X89766528Y-106095470D01*
X89764430Y-106087637D01*
X89757252Y-106051551D01*
X89717542Y-105851920D01*
X89716484Y-105843880D01*
X89700633Y-105602018D01*
X89700500Y-105597962D01*
X89700500Y-103684066D01*
X89720185Y-103617027D01*
X89772989Y-103571272D01*
X89842147Y-103561328D01*
X89889776Y-103578638D01*
X89936028Y-103607277D01*
X90138305Y-103685639D01*
X90351537Y-103725499D01*
X90351539Y-103725499D01*
X90568461Y-103725499D01*
X90568463Y-103725499D01*
X90781695Y-103685639D01*
X90983972Y-103607277D01*
X91168406Y-103493080D01*
X91320079Y-103354811D01*
X91382884Y-103324194D01*
X91452271Y-103332391D01*
X91491299Y-103358767D01*
X91647955Y-103515423D01*
X91647961Y-103515428D01*
X91837223Y-103647951D01*
X91837225Y-103647952D01*
X91837228Y-103647954D01*
X92046637Y-103745603D01*
X92269822Y-103805405D01*
X92434234Y-103819789D01*
X92499998Y-103825543D01*
X92500000Y-103825543D01*
X92500002Y-103825543D01*
X92557544Y-103820508D01*
X92730178Y-103805405D01*
X92953363Y-103745603D01*
X93162772Y-103647954D01*
X93352043Y-103515425D01*
X93515426Y-103352042D01*
X93647955Y-103162771D01*
X93745604Y-102953362D01*
X93805406Y-102730177D01*
X93825544Y-102499999D01*
X93805406Y-102269821D01*
X93745604Y-102046636D01*
X93647955Y-101837227D01*
X93647953Y-101837224D01*
X93647952Y-101837222D01*
X93515429Y-101647960D01*
X93515424Y-101647954D01*
X93352044Y-101484574D01*
X93352038Y-101484569D01*
X93162776Y-101352046D01*
X93162772Y-101352044D01*
X92953363Y-101254395D01*
X92953359Y-101254394D01*
X92953355Y-101254392D01*
X92730183Y-101194594D01*
X92730179Y-101194593D01*
X92730178Y-101194593D01*
X92730177Y-101194592D01*
X92730172Y-101194592D01*
X92500002Y-101174455D01*
X92499998Y-101174455D01*
X92269827Y-101194592D01*
X92269816Y-101194594D01*
X92046644Y-101254392D01*
X92046637Y-101254394D01*
X92046637Y-101254395D01*
X92020194Y-101266725D01*
X91837227Y-101352044D01*
X91837223Y-101352046D01*
X91647961Y-101484569D01*
X91647955Y-101484574D01*
X91484577Y-101647952D01*
X91484572Y-101647958D01*
X91455544Y-101689414D01*
X91400966Y-101733038D01*
X91331468Y-101740230D01*
X91270432Y-101709926D01*
X91168407Y-101616919D01*
X91168406Y-101616918D01*
X90983972Y-101502721D01*
X90781695Y-101424359D01*
X90568463Y-101384499D01*
X90351537Y-101384499D01*
X90138305Y-101424359D01*
X90138302Y-101424359D01*
X90138302Y-101424360D01*
X89936030Y-101502720D01*
X89936024Y-101502722D01*
X89889777Y-101531358D01*
X89822416Y-101549913D01*
X89755717Y-101529105D01*
X89710856Y-101475540D01*
X89700500Y-101425931D01*
X89700500Y-100075372D01*
X97745723Y-100075372D01*
X97775881Y-100375159D01*
X97775882Y-100375161D01*
X97845728Y-100668251D01*
X97845733Y-100668265D01*
X97954020Y-100949426D01*
X97954024Y-100949435D01*
X98098825Y-101213664D01*
X98098829Y-101213670D01*
X98224697Y-101384499D01*
X98277554Y-101456237D01*
X98368151Y-101549913D01*
X98487019Y-101672822D01*
X98723478Y-101859552D01*
X98723480Y-101859553D01*
X98723485Y-101859557D01*
X98982730Y-102013108D01*
X99260128Y-102130735D01*
X99550729Y-102210339D01*
X99849347Y-102250499D01*
X99849351Y-102250499D01*
X100075252Y-102250499D01*
X100239164Y-102239525D01*
X100300634Y-102235411D01*
X100595903Y-102175395D01*
X100880537Y-102076559D01*
X101149459Y-101940667D01*
X101397869Y-101770143D01*
X101621333Y-101568031D01*
X101815865Y-101337938D01*
X101977993Y-101083969D01*
X102104823Y-100810657D01*
X102194093Y-100522878D01*
X102244209Y-100225769D01*
X102254277Y-99924630D01*
X102224118Y-99624837D01*
X102154269Y-99331738D01*
X102045977Y-99050565D01*
X101901175Y-98786334D01*
X101722446Y-98543761D01*
X101512980Y-98327175D01*
X101389742Y-98229855D01*
X101276521Y-98140445D01*
X101276517Y-98140442D01*
X101276515Y-98140441D01*
X101017270Y-97986890D01*
X100739872Y-97869263D01*
X100739863Y-97869260D01*
X100449272Y-97789659D01*
X100374616Y-97779619D01*
X100150653Y-97749499D01*
X99924756Y-97749499D01*
X99924748Y-97749499D01*
X99699368Y-97764586D01*
X99699359Y-97764588D01*
X99404094Y-97824603D01*
X99119464Y-97923438D01*
X99119459Y-97923440D01*
X98850546Y-98059327D01*
X98602125Y-98229859D01*
X98378665Y-98431968D01*
X98184132Y-98662063D01*
X98022006Y-98916029D01*
X98022005Y-98916031D01*
X97895181Y-99189332D01*
X97895177Y-99189341D01*
X97880813Y-99235647D01*
X97805907Y-99477117D01*
X97755791Y-99774229D01*
X97745723Y-100075372D01*
X89700500Y-100075372D01*
X89700500Y-98769499D01*
X89720185Y-98702460D01*
X89772989Y-98656705D01*
X89824500Y-98645499D01*
X91140883Y-98645499D01*
X91207922Y-98665184D01*
X91228564Y-98681818D01*
X91233412Y-98686666D01*
X91313333Y-98766587D01*
X91415769Y-98814354D01*
X91462445Y-98820499D01*
X91462446Y-98820499D01*
X93537555Y-98820499D01*
X93553112Y-98818450D01*
X93584231Y-98814354D01*
X93686667Y-98766587D01*
X93766588Y-98686666D01*
X93814355Y-98584230D01*
X93820500Y-98537553D01*
X93820500Y-96462445D01*
X93814355Y-96415768D01*
X93766588Y-96313332D01*
X93686667Y-96233411D01*
X93584231Y-96185644D01*
X93584229Y-96185643D01*
X93584230Y-96185643D01*
X93537555Y-96179499D01*
X93537554Y-96179499D01*
X91462446Y-96179499D01*
X91462445Y-96179499D01*
X91415770Y-96185643D01*
X91313332Y-96233411D01*
X91278564Y-96268180D01*
X91217241Y-96301665D01*
X91190883Y-96304499D01*
X89824500Y-96304499D01*
X89757461Y-96284814D01*
X89711706Y-96232010D01*
X89700500Y-96180499D01*
X89700500Y-94402036D01*
X89700633Y-94397980D01*
X89713260Y-94205306D01*
X89716484Y-94156114D01*
X89717542Y-94148081D01*
X89764432Y-93912354D01*
X89766527Y-93904532D01*
X89843785Y-93676939D01*
X89846881Y-93669462D01*
X89953191Y-93453886D01*
X89957239Y-93446876D01*
X90090773Y-93247027D01*
X90095702Y-93240605D01*
X90254170Y-93059907D01*
X90259909Y-93054169D01*
X90440605Y-92895702D01*
X90447027Y-92890773D01*
X90646876Y-92757239D01*
X90653886Y-92753191D01*
X90869462Y-92646881D01*
X90876939Y-92643785D01*
X91104532Y-92566527D01*
X91112354Y-92564432D01*
X91348081Y-92517542D01*
X91356114Y-92516484D01*
X91425268Y-92511952D01*
X91597982Y-92500633D01*
X91602038Y-92500500D01*
X91647595Y-92500500D01*
X93924959Y-92500500D01*
X93991998Y-92520185D01*
G37*
%TD.AperFunction*%
M02*
