%TF.GenerationSoftware,KiCad,Pcbnew,7.0.7*%
%TF.CreationDate,2023-09-18T16:36:30-04:00*%
%TF.ProjectId,Encoder Mount,456e636f-6465-4722-904d-6f756e742e6b,rev?*%
%TF.SameCoordinates,Original*%
%TF.FileFunction,Drillmap*%
%TF.FilePolarity,Positive*%
%FSLAX45Y45*%
G04 Gerber Fmt 4.5, Leading zero omitted, Abs format (unit mm)*
G04 Created by KiCad (PCBNEW 7.0.7) date 2023-09-18 16:36:30*
%MOMM*%
%LPD*%
G01*
G04 APERTURE LIST*
%ADD10C,0.100000*%
%ADD11C,0.200000*%
%ADD12C,0.220000*%
%ADD13C,0.260000*%
G04 APERTURE END LIST*
D10*
X9160000Y-9220000D02*
X10790000Y-9220000D01*
X8940000Y-10560000D02*
G75*
G03*
X9160000Y-10780000I220000J0D01*
G01*
X10790000Y-10780000D02*
G75*
G03*
X11010000Y-10560000I0J220000D01*
G01*
X8940000Y-10560000D02*
X8940000Y-9440000D01*
X11010000Y-9440000D02*
G75*
G03*
X10790000Y-9220000I-220000J0D01*
G01*
X11010000Y-9440000D02*
X11010000Y-10560000D01*
X9160000Y-9220000D02*
G75*
G03*
X8940000Y-9440000I0J-220000D01*
G01*
X10790000Y-10780000D02*
X9160000Y-10780000D01*
D11*
D10*
X8996000Y-9697500D02*
X9096000Y-9797500D01*
X9096000Y-9697500D02*
X8996000Y-9797500D01*
X8996000Y-9951500D02*
X9096000Y-10051500D01*
X9096000Y-9951500D02*
X8996000Y-10051500D01*
X8996000Y-10205500D02*
X9096000Y-10305500D01*
X9096000Y-10205500D02*
X8996000Y-10305500D01*
X9200000Y-9700000D02*
X9300000Y-9800000D01*
X9300000Y-9700000D02*
X9200000Y-9800000D01*
X9200000Y-9950000D02*
X9300000Y-10050000D01*
X9300000Y-9950000D02*
X9200000Y-10050000D01*
X9200000Y-10200000D02*
X9300000Y-10300000D01*
X9300000Y-10200000D02*
X9200000Y-10300000D01*
X10650000Y-9700000D02*
X10750000Y-9800000D01*
X10750000Y-9700000D02*
X10650000Y-9800000D01*
X10650000Y-10200000D02*
X10750000Y-10300000D01*
X10750000Y-10200000D02*
X10650000Y-10300000D01*
X10854000Y-9697500D02*
X10954000Y-9797500D01*
X10954000Y-9697500D02*
X10854000Y-9797500D01*
X10854000Y-9951500D02*
X10954000Y-10051500D01*
X10954000Y-9951500D02*
X10854000Y-10051500D01*
X10854000Y-10205500D02*
X10954000Y-10305500D01*
X10954000Y-10205500D02*
X10854000Y-10305500D01*
D12*
X9256000Y-9425000D02*
G75*
G03*
X9256000Y-9425000I-110000J0D01*
G01*
X9256000Y-10575000D02*
G75*
G03*
X9256000Y-10575000I-110000J0D01*
G01*
X10914000Y-9425000D02*
G75*
G03*
X10914000Y-9425000I-110000J0D01*
G01*
X10914000Y-10575000D02*
G75*
G03*
X10914000Y-10575000I-110000J0D01*
G01*
D13*
X10000000Y-9310000D02*
X10000000Y-9570000D01*
X9870000Y-9440000D02*
X10130000Y-9440000D01*
X10000000Y-10430000D02*
X10000000Y-10690000D01*
X9870000Y-10560000D02*
X10130000Y-10560000D01*
D11*
X9195777Y-11096484D02*
X9195777Y-10896484D01*
X9195777Y-10896484D02*
X9243396Y-10896484D01*
X9243396Y-10896484D02*
X9271967Y-10906008D01*
X9271967Y-10906008D02*
X9291015Y-10925055D01*
X9291015Y-10925055D02*
X9300539Y-10944103D01*
X9300539Y-10944103D02*
X9310063Y-10982198D01*
X9310063Y-10982198D02*
X9310063Y-11010770D01*
X9310063Y-11010770D02*
X9300539Y-11048865D01*
X9300539Y-11048865D02*
X9291015Y-11067912D01*
X9291015Y-11067912D02*
X9271967Y-11086960D01*
X9271967Y-11086960D02*
X9243396Y-11096484D01*
X9243396Y-11096484D02*
X9195777Y-11096484D01*
X9395777Y-11096484D02*
X9395777Y-10963150D01*
X9395777Y-11001246D02*
X9405301Y-10982198D01*
X9405301Y-10982198D02*
X9414824Y-10972674D01*
X9414824Y-10972674D02*
X9433872Y-10963150D01*
X9433872Y-10963150D02*
X9452920Y-10963150D01*
X9519586Y-11096484D02*
X9519586Y-10963150D01*
X9519586Y-10896484D02*
X9510063Y-10906008D01*
X9510063Y-10906008D02*
X9519586Y-10915531D01*
X9519586Y-10915531D02*
X9529110Y-10906008D01*
X9529110Y-10906008D02*
X9519586Y-10896484D01*
X9519586Y-10896484D02*
X9519586Y-10915531D01*
X9643396Y-11096484D02*
X9624348Y-11086960D01*
X9624348Y-11086960D02*
X9614824Y-11067912D01*
X9614824Y-11067912D02*
X9614824Y-10896484D01*
X9748158Y-11096484D02*
X9729110Y-11086960D01*
X9729110Y-11086960D02*
X9719586Y-11067912D01*
X9719586Y-11067912D02*
X9719586Y-10896484D01*
X9976729Y-11096484D02*
X9976729Y-10896484D01*
X9976729Y-10896484D02*
X10043396Y-11039341D01*
X10043396Y-11039341D02*
X10110063Y-10896484D01*
X10110063Y-10896484D02*
X10110063Y-11096484D01*
X10291015Y-11096484D02*
X10291015Y-10991722D01*
X10291015Y-10991722D02*
X10281491Y-10972674D01*
X10281491Y-10972674D02*
X10262444Y-10963150D01*
X10262444Y-10963150D02*
X10224348Y-10963150D01*
X10224348Y-10963150D02*
X10205301Y-10972674D01*
X10291015Y-11086960D02*
X10271967Y-11096484D01*
X10271967Y-11096484D02*
X10224348Y-11096484D01*
X10224348Y-11096484D02*
X10205301Y-11086960D01*
X10205301Y-11086960D02*
X10195777Y-11067912D01*
X10195777Y-11067912D02*
X10195777Y-11048865D01*
X10195777Y-11048865D02*
X10205301Y-11029817D01*
X10205301Y-11029817D02*
X10224348Y-11020293D01*
X10224348Y-11020293D02*
X10271967Y-11020293D01*
X10271967Y-11020293D02*
X10291015Y-11010770D01*
X10386253Y-10963150D02*
X10386253Y-11163150D01*
X10386253Y-10972674D02*
X10405301Y-10963150D01*
X10405301Y-10963150D02*
X10443396Y-10963150D01*
X10443396Y-10963150D02*
X10462444Y-10972674D01*
X10462444Y-10972674D02*
X10471967Y-10982198D01*
X10471967Y-10982198D02*
X10481491Y-11001246D01*
X10481491Y-11001246D02*
X10481491Y-11058389D01*
X10481491Y-11058389D02*
X10471967Y-11077436D01*
X10471967Y-11077436D02*
X10462444Y-11086960D01*
X10462444Y-11086960D02*
X10443396Y-11096484D01*
X10443396Y-11096484D02*
X10405301Y-11096484D01*
X10405301Y-11096484D02*
X10386253Y-11086960D01*
X10567205Y-11077436D02*
X10576729Y-11086960D01*
X10576729Y-11086960D02*
X10567205Y-11096484D01*
X10567205Y-11096484D02*
X10557682Y-11086960D01*
X10557682Y-11086960D02*
X10567205Y-11077436D01*
X10567205Y-11077436D02*
X10567205Y-11096484D01*
X10567205Y-10972674D02*
X10576729Y-10982198D01*
X10576729Y-10982198D02*
X10567205Y-10991722D01*
X10567205Y-10991722D02*
X10557682Y-10982198D01*
X10557682Y-10982198D02*
X10567205Y-10972674D01*
X10567205Y-10972674D02*
X10567205Y-10991722D01*
D10*
X8835000Y-11375000D02*
X8935000Y-11475000D01*
X8935000Y-11375000D02*
X8835000Y-11475000D01*
D11*
X9300539Y-11516484D02*
X9186253Y-11516484D01*
X9243396Y-11516484D02*
X9243396Y-11316484D01*
X9243396Y-11316484D02*
X9224348Y-11345055D01*
X9224348Y-11345055D02*
X9205301Y-11364103D01*
X9205301Y-11364103D02*
X9186253Y-11373627D01*
X9386253Y-11497436D02*
X9395777Y-11506960D01*
X9395777Y-11506960D02*
X9386253Y-11516484D01*
X9386253Y-11516484D02*
X9376729Y-11506960D01*
X9376729Y-11506960D02*
X9386253Y-11497436D01*
X9386253Y-11497436D02*
X9386253Y-11516484D01*
X9519586Y-11316484D02*
X9538634Y-11316484D01*
X9538634Y-11316484D02*
X9557682Y-11326008D01*
X9557682Y-11326008D02*
X9567205Y-11335531D01*
X9567205Y-11335531D02*
X9576729Y-11354579D01*
X9576729Y-11354579D02*
X9586253Y-11392674D01*
X9586253Y-11392674D02*
X9586253Y-11440293D01*
X9586253Y-11440293D02*
X9576729Y-11478388D01*
X9576729Y-11478388D02*
X9567205Y-11497436D01*
X9567205Y-11497436D02*
X9557682Y-11506960D01*
X9557682Y-11506960D02*
X9538634Y-11516484D01*
X9538634Y-11516484D02*
X9519586Y-11516484D01*
X9519586Y-11516484D02*
X9500539Y-11506960D01*
X9500539Y-11506960D02*
X9491015Y-11497436D01*
X9491015Y-11497436D02*
X9481491Y-11478388D01*
X9481491Y-11478388D02*
X9471967Y-11440293D01*
X9471967Y-11440293D02*
X9471967Y-11392674D01*
X9471967Y-11392674D02*
X9481491Y-11354579D01*
X9481491Y-11354579D02*
X9491015Y-11335531D01*
X9491015Y-11335531D02*
X9500539Y-11326008D01*
X9500539Y-11326008D02*
X9519586Y-11316484D01*
X9710063Y-11316484D02*
X9729110Y-11316484D01*
X9729110Y-11316484D02*
X9748158Y-11326008D01*
X9748158Y-11326008D02*
X9757682Y-11335531D01*
X9757682Y-11335531D02*
X9767205Y-11354579D01*
X9767205Y-11354579D02*
X9776729Y-11392674D01*
X9776729Y-11392674D02*
X9776729Y-11440293D01*
X9776729Y-11440293D02*
X9767205Y-11478388D01*
X9767205Y-11478388D02*
X9757682Y-11497436D01*
X9757682Y-11497436D02*
X9748158Y-11506960D01*
X9748158Y-11506960D02*
X9729110Y-11516484D01*
X9729110Y-11516484D02*
X9710063Y-11516484D01*
X9710063Y-11516484D02*
X9691015Y-11506960D01*
X9691015Y-11506960D02*
X9681491Y-11497436D01*
X9681491Y-11497436D02*
X9671967Y-11478388D01*
X9671967Y-11478388D02*
X9662444Y-11440293D01*
X9662444Y-11440293D02*
X9662444Y-11392674D01*
X9662444Y-11392674D02*
X9671967Y-11354579D01*
X9671967Y-11354579D02*
X9681491Y-11335531D01*
X9681491Y-11335531D02*
X9691015Y-11326008D01*
X9691015Y-11326008D02*
X9710063Y-11316484D01*
X9900539Y-11316484D02*
X9919586Y-11316484D01*
X9919586Y-11316484D02*
X9938634Y-11326008D01*
X9938634Y-11326008D02*
X9948158Y-11335531D01*
X9948158Y-11335531D02*
X9957682Y-11354579D01*
X9957682Y-11354579D02*
X9967205Y-11392674D01*
X9967205Y-11392674D02*
X9967205Y-11440293D01*
X9967205Y-11440293D02*
X9957682Y-11478388D01*
X9957682Y-11478388D02*
X9948158Y-11497436D01*
X9948158Y-11497436D02*
X9938634Y-11506960D01*
X9938634Y-11506960D02*
X9919586Y-11516484D01*
X9919586Y-11516484D02*
X9900539Y-11516484D01*
X9900539Y-11516484D02*
X9881491Y-11506960D01*
X9881491Y-11506960D02*
X9871967Y-11497436D01*
X9871967Y-11497436D02*
X9862444Y-11478388D01*
X9862444Y-11478388D02*
X9852920Y-11440293D01*
X9852920Y-11440293D02*
X9852920Y-11392674D01*
X9852920Y-11392674D02*
X9862444Y-11354579D01*
X9862444Y-11354579D02*
X9871967Y-11335531D01*
X9871967Y-11335531D02*
X9881491Y-11326008D01*
X9881491Y-11326008D02*
X9900539Y-11316484D01*
X10052920Y-11516484D02*
X10052920Y-11383150D01*
X10052920Y-11402198D02*
X10062444Y-11392674D01*
X10062444Y-11392674D02*
X10081491Y-11383150D01*
X10081491Y-11383150D02*
X10110063Y-11383150D01*
X10110063Y-11383150D02*
X10129110Y-11392674D01*
X10129110Y-11392674D02*
X10138634Y-11411722D01*
X10138634Y-11411722D02*
X10138634Y-11516484D01*
X10138634Y-11411722D02*
X10148158Y-11392674D01*
X10148158Y-11392674D02*
X10167205Y-11383150D01*
X10167205Y-11383150D02*
X10195777Y-11383150D01*
X10195777Y-11383150D02*
X10214825Y-11392674D01*
X10214825Y-11392674D02*
X10224348Y-11411722D01*
X10224348Y-11411722D02*
X10224348Y-11516484D01*
X10319586Y-11516484D02*
X10319586Y-11383150D01*
X10319586Y-11402198D02*
X10329110Y-11392674D01*
X10329110Y-11392674D02*
X10348158Y-11383150D01*
X10348158Y-11383150D02*
X10376729Y-11383150D01*
X10376729Y-11383150D02*
X10395777Y-11392674D01*
X10395777Y-11392674D02*
X10405301Y-11411722D01*
X10405301Y-11411722D02*
X10405301Y-11516484D01*
X10405301Y-11411722D02*
X10414825Y-11392674D01*
X10414825Y-11392674D02*
X10433872Y-11383150D01*
X10433872Y-11383150D02*
X10462444Y-11383150D01*
X10462444Y-11383150D02*
X10481491Y-11392674D01*
X10481491Y-11392674D02*
X10491015Y-11411722D01*
X10491015Y-11411722D02*
X10491015Y-11516484D01*
X10881491Y-11306960D02*
X10710063Y-11564103D01*
X11138634Y-11316484D02*
X11157682Y-11316484D01*
X11157682Y-11316484D02*
X11176729Y-11326008D01*
X11176729Y-11326008D02*
X11186253Y-11335531D01*
X11186253Y-11335531D02*
X11195777Y-11354579D01*
X11195777Y-11354579D02*
X11205301Y-11392674D01*
X11205301Y-11392674D02*
X11205301Y-11440293D01*
X11205301Y-11440293D02*
X11195777Y-11478388D01*
X11195777Y-11478388D02*
X11186253Y-11497436D01*
X11186253Y-11497436D02*
X11176729Y-11506960D01*
X11176729Y-11506960D02*
X11157682Y-11516484D01*
X11157682Y-11516484D02*
X11138634Y-11516484D01*
X11138634Y-11516484D02*
X11119587Y-11506960D01*
X11119587Y-11506960D02*
X11110063Y-11497436D01*
X11110063Y-11497436D02*
X11100539Y-11478388D01*
X11100539Y-11478388D02*
X11091015Y-11440293D01*
X11091015Y-11440293D02*
X11091015Y-11392674D01*
X11091015Y-11392674D02*
X11100539Y-11354579D01*
X11100539Y-11354579D02*
X11110063Y-11335531D01*
X11110063Y-11335531D02*
X11119587Y-11326008D01*
X11119587Y-11326008D02*
X11138634Y-11316484D01*
X11291015Y-11497436D02*
X11300539Y-11506960D01*
X11300539Y-11506960D02*
X11291015Y-11516484D01*
X11291015Y-11516484D02*
X11281491Y-11506960D01*
X11281491Y-11506960D02*
X11291015Y-11497436D01*
X11291015Y-11497436D02*
X11291015Y-11516484D01*
X11424348Y-11316484D02*
X11443396Y-11316484D01*
X11443396Y-11316484D02*
X11462444Y-11326008D01*
X11462444Y-11326008D02*
X11471967Y-11335531D01*
X11471967Y-11335531D02*
X11481491Y-11354579D01*
X11481491Y-11354579D02*
X11491015Y-11392674D01*
X11491015Y-11392674D02*
X11491015Y-11440293D01*
X11491015Y-11440293D02*
X11481491Y-11478388D01*
X11481491Y-11478388D02*
X11471967Y-11497436D01*
X11471967Y-11497436D02*
X11462444Y-11506960D01*
X11462444Y-11506960D02*
X11443396Y-11516484D01*
X11443396Y-11516484D02*
X11424348Y-11516484D01*
X11424348Y-11516484D02*
X11405301Y-11506960D01*
X11405301Y-11506960D02*
X11395777Y-11497436D01*
X11395777Y-11497436D02*
X11386253Y-11478388D01*
X11386253Y-11478388D02*
X11376729Y-11440293D01*
X11376729Y-11440293D02*
X11376729Y-11392674D01*
X11376729Y-11392674D02*
X11386253Y-11354579D01*
X11386253Y-11354579D02*
X11395777Y-11335531D01*
X11395777Y-11335531D02*
X11405301Y-11326008D01*
X11405301Y-11326008D02*
X11424348Y-11316484D01*
X11557682Y-11316484D02*
X11681491Y-11316484D01*
X11681491Y-11316484D02*
X11614825Y-11392674D01*
X11614825Y-11392674D02*
X11643396Y-11392674D01*
X11643396Y-11392674D02*
X11662444Y-11402198D01*
X11662444Y-11402198D02*
X11671967Y-11411722D01*
X11671967Y-11411722D02*
X11681491Y-11430769D01*
X11681491Y-11430769D02*
X11681491Y-11478388D01*
X11681491Y-11478388D02*
X11671967Y-11497436D01*
X11671967Y-11497436D02*
X11662444Y-11506960D01*
X11662444Y-11506960D02*
X11643396Y-11516484D01*
X11643396Y-11516484D02*
X11586253Y-11516484D01*
X11586253Y-11516484D02*
X11567206Y-11506960D01*
X11567206Y-11506960D02*
X11557682Y-11497436D01*
X11776729Y-11516484D02*
X11814825Y-11516484D01*
X11814825Y-11516484D02*
X11833872Y-11506960D01*
X11833872Y-11506960D02*
X11843396Y-11497436D01*
X11843396Y-11497436D02*
X11862444Y-11468865D01*
X11862444Y-11468865D02*
X11871967Y-11430769D01*
X11871967Y-11430769D02*
X11871967Y-11354579D01*
X11871967Y-11354579D02*
X11862444Y-11335531D01*
X11862444Y-11335531D02*
X11852920Y-11326008D01*
X11852920Y-11326008D02*
X11833872Y-11316484D01*
X11833872Y-11316484D02*
X11795777Y-11316484D01*
X11795777Y-11316484D02*
X11776729Y-11326008D01*
X11776729Y-11326008D02*
X11767206Y-11335531D01*
X11767206Y-11335531D02*
X11757682Y-11354579D01*
X11757682Y-11354579D02*
X11757682Y-11402198D01*
X11757682Y-11402198D02*
X11767206Y-11421246D01*
X11767206Y-11421246D02*
X11776729Y-11430769D01*
X11776729Y-11430769D02*
X11795777Y-11440293D01*
X11795777Y-11440293D02*
X11833872Y-11440293D01*
X11833872Y-11440293D02*
X11852920Y-11430769D01*
X11852920Y-11430769D02*
X11862444Y-11421246D01*
X11862444Y-11421246D02*
X11871967Y-11402198D01*
X12043396Y-11383150D02*
X12043396Y-11516484D01*
X11995777Y-11306960D02*
X11948158Y-11449817D01*
X11948158Y-11449817D02*
X12071967Y-11449817D01*
X12138634Y-11316484D02*
X12138634Y-11354579D01*
X12214825Y-11316484D02*
X12214825Y-11354579D01*
X12510063Y-11592674D02*
X12500539Y-11583150D01*
X12500539Y-11583150D02*
X12481491Y-11554579D01*
X12481491Y-11554579D02*
X12471968Y-11535531D01*
X12471968Y-11535531D02*
X12462444Y-11506960D01*
X12462444Y-11506960D02*
X12452920Y-11459341D01*
X12452920Y-11459341D02*
X12452920Y-11421246D01*
X12452920Y-11421246D02*
X12462444Y-11373627D01*
X12462444Y-11373627D02*
X12471968Y-11345055D01*
X12471968Y-11345055D02*
X12481491Y-11326008D01*
X12481491Y-11326008D02*
X12500539Y-11297436D01*
X12500539Y-11297436D02*
X12510063Y-11287912D01*
X12691015Y-11516484D02*
X12576729Y-11516484D01*
X12633872Y-11516484D02*
X12633872Y-11316484D01*
X12633872Y-11316484D02*
X12614825Y-11345055D01*
X12614825Y-11345055D02*
X12595777Y-11364103D01*
X12595777Y-11364103D02*
X12576729Y-11373627D01*
X12881491Y-11516484D02*
X12767206Y-11516484D01*
X12824348Y-11516484D02*
X12824348Y-11316484D01*
X12824348Y-11316484D02*
X12805301Y-11345055D01*
X12805301Y-11345055D02*
X12786253Y-11364103D01*
X12786253Y-11364103D02*
X12767206Y-11373627D01*
X13119587Y-11516484D02*
X13119587Y-11316484D01*
X13205301Y-11516484D02*
X13205301Y-11411722D01*
X13205301Y-11411722D02*
X13195777Y-11392674D01*
X13195777Y-11392674D02*
X13176730Y-11383150D01*
X13176730Y-11383150D02*
X13148158Y-11383150D01*
X13148158Y-11383150D02*
X13129110Y-11392674D01*
X13129110Y-11392674D02*
X13119587Y-11402198D01*
X13329110Y-11516484D02*
X13310063Y-11506960D01*
X13310063Y-11506960D02*
X13300539Y-11497436D01*
X13300539Y-11497436D02*
X13291015Y-11478388D01*
X13291015Y-11478388D02*
X13291015Y-11421246D01*
X13291015Y-11421246D02*
X13300539Y-11402198D01*
X13300539Y-11402198D02*
X13310063Y-11392674D01*
X13310063Y-11392674D02*
X13329110Y-11383150D01*
X13329110Y-11383150D02*
X13357682Y-11383150D01*
X13357682Y-11383150D02*
X13376730Y-11392674D01*
X13376730Y-11392674D02*
X13386253Y-11402198D01*
X13386253Y-11402198D02*
X13395777Y-11421246D01*
X13395777Y-11421246D02*
X13395777Y-11478388D01*
X13395777Y-11478388D02*
X13386253Y-11497436D01*
X13386253Y-11497436D02*
X13376730Y-11506960D01*
X13376730Y-11506960D02*
X13357682Y-11516484D01*
X13357682Y-11516484D02*
X13329110Y-11516484D01*
X13510063Y-11516484D02*
X13491015Y-11506960D01*
X13491015Y-11506960D02*
X13481491Y-11487912D01*
X13481491Y-11487912D02*
X13481491Y-11316484D01*
X13662444Y-11506960D02*
X13643396Y-11516484D01*
X13643396Y-11516484D02*
X13605301Y-11516484D01*
X13605301Y-11516484D02*
X13586253Y-11506960D01*
X13586253Y-11506960D02*
X13576730Y-11487912D01*
X13576730Y-11487912D02*
X13576730Y-11411722D01*
X13576730Y-11411722D02*
X13586253Y-11392674D01*
X13586253Y-11392674D02*
X13605301Y-11383150D01*
X13605301Y-11383150D02*
X13643396Y-11383150D01*
X13643396Y-11383150D02*
X13662444Y-11392674D01*
X13662444Y-11392674D02*
X13671968Y-11411722D01*
X13671968Y-11411722D02*
X13671968Y-11430769D01*
X13671968Y-11430769D02*
X13576730Y-11449817D01*
X13748158Y-11506960D02*
X13767206Y-11516484D01*
X13767206Y-11516484D02*
X13805301Y-11516484D01*
X13805301Y-11516484D02*
X13824349Y-11506960D01*
X13824349Y-11506960D02*
X13833872Y-11487912D01*
X13833872Y-11487912D02*
X13833872Y-11478388D01*
X13833872Y-11478388D02*
X13824349Y-11459341D01*
X13824349Y-11459341D02*
X13805301Y-11449817D01*
X13805301Y-11449817D02*
X13776730Y-11449817D01*
X13776730Y-11449817D02*
X13757682Y-11440293D01*
X13757682Y-11440293D02*
X13748158Y-11421246D01*
X13748158Y-11421246D02*
X13748158Y-11411722D01*
X13748158Y-11411722D02*
X13757682Y-11392674D01*
X13757682Y-11392674D02*
X13776730Y-11383150D01*
X13776730Y-11383150D02*
X13805301Y-11383150D01*
X13805301Y-11383150D02*
X13824349Y-11392674D01*
X13900539Y-11592674D02*
X13910063Y-11583150D01*
X13910063Y-11583150D02*
X13929111Y-11554579D01*
X13929111Y-11554579D02*
X13938634Y-11535531D01*
X13938634Y-11535531D02*
X13948158Y-11506960D01*
X13948158Y-11506960D02*
X13957682Y-11459341D01*
X13957682Y-11459341D02*
X13957682Y-11421246D01*
X13957682Y-11421246D02*
X13948158Y-11373627D01*
X13948158Y-11373627D02*
X13938634Y-11345055D01*
X13938634Y-11345055D02*
X13929111Y-11326008D01*
X13929111Y-11326008D02*
X13910063Y-11297436D01*
X13910063Y-11297436D02*
X13900539Y-11287912D01*
X8935000Y-11689000D02*
G75*
G03*
X8935000Y-11689000I-100000J0D01*
G01*
X9186253Y-11599531D02*
X9195777Y-11590008D01*
X9195777Y-11590008D02*
X9214824Y-11580484D01*
X9214824Y-11580484D02*
X9262444Y-11580484D01*
X9262444Y-11580484D02*
X9281491Y-11590008D01*
X9281491Y-11590008D02*
X9291015Y-11599531D01*
X9291015Y-11599531D02*
X9300539Y-11618579D01*
X9300539Y-11618579D02*
X9300539Y-11637627D01*
X9300539Y-11637627D02*
X9291015Y-11666198D01*
X9291015Y-11666198D02*
X9176729Y-11780484D01*
X9176729Y-11780484D02*
X9300539Y-11780484D01*
X9386253Y-11761436D02*
X9395777Y-11770960D01*
X9395777Y-11770960D02*
X9386253Y-11780484D01*
X9386253Y-11780484D02*
X9376729Y-11770960D01*
X9376729Y-11770960D02*
X9386253Y-11761436D01*
X9386253Y-11761436D02*
X9386253Y-11780484D01*
X9471967Y-11599531D02*
X9481491Y-11590008D01*
X9481491Y-11590008D02*
X9500539Y-11580484D01*
X9500539Y-11580484D02*
X9548158Y-11580484D01*
X9548158Y-11580484D02*
X9567205Y-11590008D01*
X9567205Y-11590008D02*
X9576729Y-11599531D01*
X9576729Y-11599531D02*
X9586253Y-11618579D01*
X9586253Y-11618579D02*
X9586253Y-11637627D01*
X9586253Y-11637627D02*
X9576729Y-11666198D01*
X9576729Y-11666198D02*
X9462444Y-11780484D01*
X9462444Y-11780484D02*
X9586253Y-11780484D01*
X9710063Y-11580484D02*
X9729110Y-11580484D01*
X9729110Y-11580484D02*
X9748158Y-11590008D01*
X9748158Y-11590008D02*
X9757682Y-11599531D01*
X9757682Y-11599531D02*
X9767205Y-11618579D01*
X9767205Y-11618579D02*
X9776729Y-11656674D01*
X9776729Y-11656674D02*
X9776729Y-11704293D01*
X9776729Y-11704293D02*
X9767205Y-11742388D01*
X9767205Y-11742388D02*
X9757682Y-11761436D01*
X9757682Y-11761436D02*
X9748158Y-11770960D01*
X9748158Y-11770960D02*
X9729110Y-11780484D01*
X9729110Y-11780484D02*
X9710063Y-11780484D01*
X9710063Y-11780484D02*
X9691015Y-11770960D01*
X9691015Y-11770960D02*
X9681491Y-11761436D01*
X9681491Y-11761436D02*
X9671967Y-11742388D01*
X9671967Y-11742388D02*
X9662444Y-11704293D01*
X9662444Y-11704293D02*
X9662444Y-11656674D01*
X9662444Y-11656674D02*
X9671967Y-11618579D01*
X9671967Y-11618579D02*
X9681491Y-11599531D01*
X9681491Y-11599531D02*
X9691015Y-11590008D01*
X9691015Y-11590008D02*
X9710063Y-11580484D01*
X9900539Y-11580484D02*
X9919586Y-11580484D01*
X9919586Y-11580484D02*
X9938634Y-11590008D01*
X9938634Y-11590008D02*
X9948158Y-11599531D01*
X9948158Y-11599531D02*
X9957682Y-11618579D01*
X9957682Y-11618579D02*
X9967205Y-11656674D01*
X9967205Y-11656674D02*
X9967205Y-11704293D01*
X9967205Y-11704293D02*
X9957682Y-11742388D01*
X9957682Y-11742388D02*
X9948158Y-11761436D01*
X9948158Y-11761436D02*
X9938634Y-11770960D01*
X9938634Y-11770960D02*
X9919586Y-11780484D01*
X9919586Y-11780484D02*
X9900539Y-11780484D01*
X9900539Y-11780484D02*
X9881491Y-11770960D01*
X9881491Y-11770960D02*
X9871967Y-11761436D01*
X9871967Y-11761436D02*
X9862444Y-11742388D01*
X9862444Y-11742388D02*
X9852920Y-11704293D01*
X9852920Y-11704293D02*
X9852920Y-11656674D01*
X9852920Y-11656674D02*
X9862444Y-11618579D01*
X9862444Y-11618579D02*
X9871967Y-11599531D01*
X9871967Y-11599531D02*
X9881491Y-11590008D01*
X9881491Y-11590008D02*
X9900539Y-11580484D01*
X10052920Y-11780484D02*
X10052920Y-11647150D01*
X10052920Y-11666198D02*
X10062444Y-11656674D01*
X10062444Y-11656674D02*
X10081491Y-11647150D01*
X10081491Y-11647150D02*
X10110063Y-11647150D01*
X10110063Y-11647150D02*
X10129110Y-11656674D01*
X10129110Y-11656674D02*
X10138634Y-11675722D01*
X10138634Y-11675722D02*
X10138634Y-11780484D01*
X10138634Y-11675722D02*
X10148158Y-11656674D01*
X10148158Y-11656674D02*
X10167205Y-11647150D01*
X10167205Y-11647150D02*
X10195777Y-11647150D01*
X10195777Y-11647150D02*
X10214825Y-11656674D01*
X10214825Y-11656674D02*
X10224348Y-11675722D01*
X10224348Y-11675722D02*
X10224348Y-11780484D01*
X10319586Y-11780484D02*
X10319586Y-11647150D01*
X10319586Y-11666198D02*
X10329110Y-11656674D01*
X10329110Y-11656674D02*
X10348158Y-11647150D01*
X10348158Y-11647150D02*
X10376729Y-11647150D01*
X10376729Y-11647150D02*
X10395777Y-11656674D01*
X10395777Y-11656674D02*
X10405301Y-11675722D01*
X10405301Y-11675722D02*
X10405301Y-11780484D01*
X10405301Y-11675722D02*
X10414825Y-11656674D01*
X10414825Y-11656674D02*
X10433872Y-11647150D01*
X10433872Y-11647150D02*
X10462444Y-11647150D01*
X10462444Y-11647150D02*
X10481491Y-11656674D01*
X10481491Y-11656674D02*
X10491015Y-11675722D01*
X10491015Y-11675722D02*
X10491015Y-11780484D01*
X10881491Y-11570960D02*
X10710063Y-11828103D01*
X11138634Y-11580484D02*
X11157682Y-11580484D01*
X11157682Y-11580484D02*
X11176729Y-11590008D01*
X11176729Y-11590008D02*
X11186253Y-11599531D01*
X11186253Y-11599531D02*
X11195777Y-11618579D01*
X11195777Y-11618579D02*
X11205301Y-11656674D01*
X11205301Y-11656674D02*
X11205301Y-11704293D01*
X11205301Y-11704293D02*
X11195777Y-11742388D01*
X11195777Y-11742388D02*
X11186253Y-11761436D01*
X11186253Y-11761436D02*
X11176729Y-11770960D01*
X11176729Y-11770960D02*
X11157682Y-11780484D01*
X11157682Y-11780484D02*
X11138634Y-11780484D01*
X11138634Y-11780484D02*
X11119587Y-11770960D01*
X11119587Y-11770960D02*
X11110063Y-11761436D01*
X11110063Y-11761436D02*
X11100539Y-11742388D01*
X11100539Y-11742388D02*
X11091015Y-11704293D01*
X11091015Y-11704293D02*
X11091015Y-11656674D01*
X11091015Y-11656674D02*
X11100539Y-11618579D01*
X11100539Y-11618579D02*
X11110063Y-11599531D01*
X11110063Y-11599531D02*
X11119587Y-11590008D01*
X11119587Y-11590008D02*
X11138634Y-11580484D01*
X11291015Y-11761436D02*
X11300539Y-11770960D01*
X11300539Y-11770960D02*
X11291015Y-11780484D01*
X11291015Y-11780484D02*
X11281491Y-11770960D01*
X11281491Y-11770960D02*
X11291015Y-11761436D01*
X11291015Y-11761436D02*
X11291015Y-11780484D01*
X11424348Y-11580484D02*
X11443396Y-11580484D01*
X11443396Y-11580484D02*
X11462444Y-11590008D01*
X11462444Y-11590008D02*
X11471967Y-11599531D01*
X11471967Y-11599531D02*
X11481491Y-11618579D01*
X11481491Y-11618579D02*
X11491015Y-11656674D01*
X11491015Y-11656674D02*
X11491015Y-11704293D01*
X11491015Y-11704293D02*
X11481491Y-11742388D01*
X11481491Y-11742388D02*
X11471967Y-11761436D01*
X11471967Y-11761436D02*
X11462444Y-11770960D01*
X11462444Y-11770960D02*
X11443396Y-11780484D01*
X11443396Y-11780484D02*
X11424348Y-11780484D01*
X11424348Y-11780484D02*
X11405301Y-11770960D01*
X11405301Y-11770960D02*
X11395777Y-11761436D01*
X11395777Y-11761436D02*
X11386253Y-11742388D01*
X11386253Y-11742388D02*
X11376729Y-11704293D01*
X11376729Y-11704293D02*
X11376729Y-11656674D01*
X11376729Y-11656674D02*
X11386253Y-11618579D01*
X11386253Y-11618579D02*
X11395777Y-11599531D01*
X11395777Y-11599531D02*
X11405301Y-11590008D01*
X11405301Y-11590008D02*
X11424348Y-11580484D01*
X11605301Y-11666198D02*
X11586253Y-11656674D01*
X11586253Y-11656674D02*
X11576729Y-11647150D01*
X11576729Y-11647150D02*
X11567206Y-11628103D01*
X11567206Y-11628103D02*
X11567206Y-11618579D01*
X11567206Y-11618579D02*
X11576729Y-11599531D01*
X11576729Y-11599531D02*
X11586253Y-11590008D01*
X11586253Y-11590008D02*
X11605301Y-11580484D01*
X11605301Y-11580484D02*
X11643396Y-11580484D01*
X11643396Y-11580484D02*
X11662444Y-11590008D01*
X11662444Y-11590008D02*
X11671967Y-11599531D01*
X11671967Y-11599531D02*
X11681491Y-11618579D01*
X11681491Y-11618579D02*
X11681491Y-11628103D01*
X11681491Y-11628103D02*
X11671967Y-11647150D01*
X11671967Y-11647150D02*
X11662444Y-11656674D01*
X11662444Y-11656674D02*
X11643396Y-11666198D01*
X11643396Y-11666198D02*
X11605301Y-11666198D01*
X11605301Y-11666198D02*
X11586253Y-11675722D01*
X11586253Y-11675722D02*
X11576729Y-11685246D01*
X11576729Y-11685246D02*
X11567206Y-11704293D01*
X11567206Y-11704293D02*
X11567206Y-11742388D01*
X11567206Y-11742388D02*
X11576729Y-11761436D01*
X11576729Y-11761436D02*
X11586253Y-11770960D01*
X11586253Y-11770960D02*
X11605301Y-11780484D01*
X11605301Y-11780484D02*
X11643396Y-11780484D01*
X11643396Y-11780484D02*
X11662444Y-11770960D01*
X11662444Y-11770960D02*
X11671967Y-11761436D01*
X11671967Y-11761436D02*
X11681491Y-11742388D01*
X11681491Y-11742388D02*
X11681491Y-11704293D01*
X11681491Y-11704293D02*
X11671967Y-11685246D01*
X11671967Y-11685246D02*
X11662444Y-11675722D01*
X11662444Y-11675722D02*
X11643396Y-11666198D01*
X11852920Y-11580484D02*
X11814825Y-11580484D01*
X11814825Y-11580484D02*
X11795777Y-11590008D01*
X11795777Y-11590008D02*
X11786253Y-11599531D01*
X11786253Y-11599531D02*
X11767206Y-11628103D01*
X11767206Y-11628103D02*
X11757682Y-11666198D01*
X11757682Y-11666198D02*
X11757682Y-11742388D01*
X11757682Y-11742388D02*
X11767206Y-11761436D01*
X11767206Y-11761436D02*
X11776729Y-11770960D01*
X11776729Y-11770960D02*
X11795777Y-11780484D01*
X11795777Y-11780484D02*
X11833872Y-11780484D01*
X11833872Y-11780484D02*
X11852920Y-11770960D01*
X11852920Y-11770960D02*
X11862444Y-11761436D01*
X11862444Y-11761436D02*
X11871967Y-11742388D01*
X11871967Y-11742388D02*
X11871967Y-11694769D01*
X11871967Y-11694769D02*
X11862444Y-11675722D01*
X11862444Y-11675722D02*
X11852920Y-11666198D01*
X11852920Y-11666198D02*
X11833872Y-11656674D01*
X11833872Y-11656674D02*
X11795777Y-11656674D01*
X11795777Y-11656674D02*
X11776729Y-11666198D01*
X11776729Y-11666198D02*
X11767206Y-11675722D01*
X11767206Y-11675722D02*
X11757682Y-11694769D01*
X12043396Y-11580484D02*
X12005301Y-11580484D01*
X12005301Y-11580484D02*
X11986253Y-11590008D01*
X11986253Y-11590008D02*
X11976729Y-11599531D01*
X11976729Y-11599531D02*
X11957682Y-11628103D01*
X11957682Y-11628103D02*
X11948158Y-11666198D01*
X11948158Y-11666198D02*
X11948158Y-11742388D01*
X11948158Y-11742388D02*
X11957682Y-11761436D01*
X11957682Y-11761436D02*
X11967206Y-11770960D01*
X11967206Y-11770960D02*
X11986253Y-11780484D01*
X11986253Y-11780484D02*
X12024348Y-11780484D01*
X12024348Y-11780484D02*
X12043396Y-11770960D01*
X12043396Y-11770960D02*
X12052920Y-11761436D01*
X12052920Y-11761436D02*
X12062444Y-11742388D01*
X12062444Y-11742388D02*
X12062444Y-11694769D01*
X12062444Y-11694769D02*
X12052920Y-11675722D01*
X12052920Y-11675722D02*
X12043396Y-11666198D01*
X12043396Y-11666198D02*
X12024348Y-11656674D01*
X12024348Y-11656674D02*
X11986253Y-11656674D01*
X11986253Y-11656674D02*
X11967206Y-11666198D01*
X11967206Y-11666198D02*
X11957682Y-11675722D01*
X11957682Y-11675722D02*
X11948158Y-11694769D01*
X12138634Y-11580484D02*
X12138634Y-11618579D01*
X12214825Y-11580484D02*
X12214825Y-11618579D01*
X12510063Y-11856674D02*
X12500539Y-11847150D01*
X12500539Y-11847150D02*
X12481491Y-11818579D01*
X12481491Y-11818579D02*
X12471968Y-11799531D01*
X12471968Y-11799531D02*
X12462444Y-11770960D01*
X12462444Y-11770960D02*
X12452920Y-11723341D01*
X12452920Y-11723341D02*
X12452920Y-11685246D01*
X12452920Y-11685246D02*
X12462444Y-11637627D01*
X12462444Y-11637627D02*
X12471968Y-11609055D01*
X12471968Y-11609055D02*
X12481491Y-11590008D01*
X12481491Y-11590008D02*
X12500539Y-11561436D01*
X12500539Y-11561436D02*
X12510063Y-11551912D01*
X12671968Y-11647150D02*
X12671968Y-11780484D01*
X12624348Y-11570960D02*
X12576729Y-11713817D01*
X12576729Y-11713817D02*
X12700539Y-11713817D01*
X12929110Y-11780484D02*
X12929110Y-11580484D01*
X13014825Y-11780484D02*
X13014825Y-11675722D01*
X13014825Y-11675722D02*
X13005301Y-11656674D01*
X13005301Y-11656674D02*
X12986253Y-11647150D01*
X12986253Y-11647150D02*
X12957682Y-11647150D01*
X12957682Y-11647150D02*
X12938634Y-11656674D01*
X12938634Y-11656674D02*
X12929110Y-11666198D01*
X13138634Y-11780484D02*
X13119587Y-11770960D01*
X13119587Y-11770960D02*
X13110063Y-11761436D01*
X13110063Y-11761436D02*
X13100539Y-11742388D01*
X13100539Y-11742388D02*
X13100539Y-11685246D01*
X13100539Y-11685246D02*
X13110063Y-11666198D01*
X13110063Y-11666198D02*
X13119587Y-11656674D01*
X13119587Y-11656674D02*
X13138634Y-11647150D01*
X13138634Y-11647150D02*
X13167206Y-11647150D01*
X13167206Y-11647150D02*
X13186253Y-11656674D01*
X13186253Y-11656674D02*
X13195777Y-11666198D01*
X13195777Y-11666198D02*
X13205301Y-11685246D01*
X13205301Y-11685246D02*
X13205301Y-11742388D01*
X13205301Y-11742388D02*
X13195777Y-11761436D01*
X13195777Y-11761436D02*
X13186253Y-11770960D01*
X13186253Y-11770960D02*
X13167206Y-11780484D01*
X13167206Y-11780484D02*
X13138634Y-11780484D01*
X13319587Y-11780484D02*
X13300539Y-11770960D01*
X13300539Y-11770960D02*
X13291015Y-11751912D01*
X13291015Y-11751912D02*
X13291015Y-11580484D01*
X13471968Y-11770960D02*
X13452920Y-11780484D01*
X13452920Y-11780484D02*
X13414825Y-11780484D01*
X13414825Y-11780484D02*
X13395777Y-11770960D01*
X13395777Y-11770960D02*
X13386253Y-11751912D01*
X13386253Y-11751912D02*
X13386253Y-11675722D01*
X13386253Y-11675722D02*
X13395777Y-11656674D01*
X13395777Y-11656674D02*
X13414825Y-11647150D01*
X13414825Y-11647150D02*
X13452920Y-11647150D01*
X13452920Y-11647150D02*
X13471968Y-11656674D01*
X13471968Y-11656674D02*
X13481491Y-11675722D01*
X13481491Y-11675722D02*
X13481491Y-11694769D01*
X13481491Y-11694769D02*
X13386253Y-11713817D01*
X13557682Y-11770960D02*
X13576730Y-11780484D01*
X13576730Y-11780484D02*
X13614825Y-11780484D01*
X13614825Y-11780484D02*
X13633872Y-11770960D01*
X13633872Y-11770960D02*
X13643396Y-11751912D01*
X13643396Y-11751912D02*
X13643396Y-11742388D01*
X13643396Y-11742388D02*
X13633872Y-11723341D01*
X13633872Y-11723341D02*
X13614825Y-11713817D01*
X13614825Y-11713817D02*
X13586253Y-11713817D01*
X13586253Y-11713817D02*
X13567206Y-11704293D01*
X13567206Y-11704293D02*
X13557682Y-11685246D01*
X13557682Y-11685246D02*
X13557682Y-11675722D01*
X13557682Y-11675722D02*
X13567206Y-11656674D01*
X13567206Y-11656674D02*
X13586253Y-11647150D01*
X13586253Y-11647150D02*
X13614825Y-11647150D01*
X13614825Y-11647150D02*
X13633872Y-11656674D01*
X13710063Y-11856674D02*
X13719587Y-11847150D01*
X13719587Y-11847150D02*
X13738634Y-11818579D01*
X13738634Y-11818579D02*
X13748158Y-11799531D01*
X13748158Y-11799531D02*
X13757682Y-11770960D01*
X13757682Y-11770960D02*
X13767206Y-11723341D01*
X13767206Y-11723341D02*
X13767206Y-11685246D01*
X13767206Y-11685246D02*
X13757682Y-11637627D01*
X13757682Y-11637627D02*
X13748158Y-11609055D01*
X13748158Y-11609055D02*
X13738634Y-11590008D01*
X13738634Y-11590008D02*
X13719587Y-11561436D01*
X13719587Y-11561436D02*
X13710063Y-11551912D01*
X8835000Y-11909000D02*
X8835000Y-12109000D01*
X8735000Y-12009000D02*
X8935000Y-12009000D01*
X9186253Y-11919531D02*
X9195777Y-11910008D01*
X9195777Y-11910008D02*
X9214824Y-11900484D01*
X9214824Y-11900484D02*
X9262444Y-11900484D01*
X9262444Y-11900484D02*
X9281491Y-11910008D01*
X9281491Y-11910008D02*
X9291015Y-11919531D01*
X9291015Y-11919531D02*
X9300539Y-11938579D01*
X9300539Y-11938579D02*
X9300539Y-11957627D01*
X9300539Y-11957627D02*
X9291015Y-11986198D01*
X9291015Y-11986198D02*
X9176729Y-12100484D01*
X9176729Y-12100484D02*
X9300539Y-12100484D01*
X9386253Y-12081436D02*
X9395777Y-12090960D01*
X9395777Y-12090960D02*
X9386253Y-12100484D01*
X9386253Y-12100484D02*
X9376729Y-12090960D01*
X9376729Y-12090960D02*
X9386253Y-12081436D01*
X9386253Y-12081436D02*
X9386253Y-12100484D01*
X9567205Y-11900484D02*
X9529110Y-11900484D01*
X9529110Y-11900484D02*
X9510063Y-11910008D01*
X9510063Y-11910008D02*
X9500539Y-11919531D01*
X9500539Y-11919531D02*
X9481491Y-11948103D01*
X9481491Y-11948103D02*
X9471967Y-11986198D01*
X9471967Y-11986198D02*
X9471967Y-12062388D01*
X9471967Y-12062388D02*
X9481491Y-12081436D01*
X9481491Y-12081436D02*
X9491015Y-12090960D01*
X9491015Y-12090960D02*
X9510063Y-12100484D01*
X9510063Y-12100484D02*
X9548158Y-12100484D01*
X9548158Y-12100484D02*
X9567205Y-12090960D01*
X9567205Y-12090960D02*
X9576729Y-12081436D01*
X9576729Y-12081436D02*
X9586253Y-12062388D01*
X9586253Y-12062388D02*
X9586253Y-12014769D01*
X9586253Y-12014769D02*
X9576729Y-11995722D01*
X9576729Y-11995722D02*
X9567205Y-11986198D01*
X9567205Y-11986198D02*
X9548158Y-11976674D01*
X9548158Y-11976674D02*
X9510063Y-11976674D01*
X9510063Y-11976674D02*
X9491015Y-11986198D01*
X9491015Y-11986198D02*
X9481491Y-11995722D01*
X9481491Y-11995722D02*
X9471967Y-12014769D01*
X9710063Y-11900484D02*
X9729110Y-11900484D01*
X9729110Y-11900484D02*
X9748158Y-11910008D01*
X9748158Y-11910008D02*
X9757682Y-11919531D01*
X9757682Y-11919531D02*
X9767205Y-11938579D01*
X9767205Y-11938579D02*
X9776729Y-11976674D01*
X9776729Y-11976674D02*
X9776729Y-12024293D01*
X9776729Y-12024293D02*
X9767205Y-12062388D01*
X9767205Y-12062388D02*
X9757682Y-12081436D01*
X9757682Y-12081436D02*
X9748158Y-12090960D01*
X9748158Y-12090960D02*
X9729110Y-12100484D01*
X9729110Y-12100484D02*
X9710063Y-12100484D01*
X9710063Y-12100484D02*
X9691015Y-12090960D01*
X9691015Y-12090960D02*
X9681491Y-12081436D01*
X9681491Y-12081436D02*
X9671967Y-12062388D01*
X9671967Y-12062388D02*
X9662444Y-12024293D01*
X9662444Y-12024293D02*
X9662444Y-11976674D01*
X9662444Y-11976674D02*
X9671967Y-11938579D01*
X9671967Y-11938579D02*
X9681491Y-11919531D01*
X9681491Y-11919531D02*
X9691015Y-11910008D01*
X9691015Y-11910008D02*
X9710063Y-11900484D01*
X9900539Y-11900484D02*
X9919586Y-11900484D01*
X9919586Y-11900484D02*
X9938634Y-11910008D01*
X9938634Y-11910008D02*
X9948158Y-11919531D01*
X9948158Y-11919531D02*
X9957682Y-11938579D01*
X9957682Y-11938579D02*
X9967205Y-11976674D01*
X9967205Y-11976674D02*
X9967205Y-12024293D01*
X9967205Y-12024293D02*
X9957682Y-12062388D01*
X9957682Y-12062388D02*
X9948158Y-12081436D01*
X9948158Y-12081436D02*
X9938634Y-12090960D01*
X9938634Y-12090960D02*
X9919586Y-12100484D01*
X9919586Y-12100484D02*
X9900539Y-12100484D01*
X9900539Y-12100484D02*
X9881491Y-12090960D01*
X9881491Y-12090960D02*
X9871967Y-12081436D01*
X9871967Y-12081436D02*
X9862444Y-12062388D01*
X9862444Y-12062388D02*
X9852920Y-12024293D01*
X9852920Y-12024293D02*
X9852920Y-11976674D01*
X9852920Y-11976674D02*
X9862444Y-11938579D01*
X9862444Y-11938579D02*
X9871967Y-11919531D01*
X9871967Y-11919531D02*
X9881491Y-11910008D01*
X9881491Y-11910008D02*
X9900539Y-11900484D01*
X10052920Y-12100484D02*
X10052920Y-11967150D01*
X10052920Y-11986198D02*
X10062444Y-11976674D01*
X10062444Y-11976674D02*
X10081491Y-11967150D01*
X10081491Y-11967150D02*
X10110063Y-11967150D01*
X10110063Y-11967150D02*
X10129110Y-11976674D01*
X10129110Y-11976674D02*
X10138634Y-11995722D01*
X10138634Y-11995722D02*
X10138634Y-12100484D01*
X10138634Y-11995722D02*
X10148158Y-11976674D01*
X10148158Y-11976674D02*
X10167205Y-11967150D01*
X10167205Y-11967150D02*
X10195777Y-11967150D01*
X10195777Y-11967150D02*
X10214825Y-11976674D01*
X10214825Y-11976674D02*
X10224348Y-11995722D01*
X10224348Y-11995722D02*
X10224348Y-12100484D01*
X10319586Y-12100484D02*
X10319586Y-11967150D01*
X10319586Y-11986198D02*
X10329110Y-11976674D01*
X10329110Y-11976674D02*
X10348158Y-11967150D01*
X10348158Y-11967150D02*
X10376729Y-11967150D01*
X10376729Y-11967150D02*
X10395777Y-11976674D01*
X10395777Y-11976674D02*
X10405301Y-11995722D01*
X10405301Y-11995722D02*
X10405301Y-12100484D01*
X10405301Y-11995722D02*
X10414825Y-11976674D01*
X10414825Y-11976674D02*
X10433872Y-11967150D01*
X10433872Y-11967150D02*
X10462444Y-11967150D01*
X10462444Y-11967150D02*
X10481491Y-11976674D01*
X10481491Y-11976674D02*
X10491015Y-11995722D01*
X10491015Y-11995722D02*
X10491015Y-12100484D01*
X10881491Y-11890960D02*
X10710063Y-12148103D01*
X11138634Y-11900484D02*
X11157682Y-11900484D01*
X11157682Y-11900484D02*
X11176729Y-11910008D01*
X11176729Y-11910008D02*
X11186253Y-11919531D01*
X11186253Y-11919531D02*
X11195777Y-11938579D01*
X11195777Y-11938579D02*
X11205301Y-11976674D01*
X11205301Y-11976674D02*
X11205301Y-12024293D01*
X11205301Y-12024293D02*
X11195777Y-12062388D01*
X11195777Y-12062388D02*
X11186253Y-12081436D01*
X11186253Y-12081436D02*
X11176729Y-12090960D01*
X11176729Y-12090960D02*
X11157682Y-12100484D01*
X11157682Y-12100484D02*
X11138634Y-12100484D01*
X11138634Y-12100484D02*
X11119587Y-12090960D01*
X11119587Y-12090960D02*
X11110063Y-12081436D01*
X11110063Y-12081436D02*
X11100539Y-12062388D01*
X11100539Y-12062388D02*
X11091015Y-12024293D01*
X11091015Y-12024293D02*
X11091015Y-11976674D01*
X11091015Y-11976674D02*
X11100539Y-11938579D01*
X11100539Y-11938579D02*
X11110063Y-11919531D01*
X11110063Y-11919531D02*
X11119587Y-11910008D01*
X11119587Y-11910008D02*
X11138634Y-11900484D01*
X11291015Y-12081436D02*
X11300539Y-12090960D01*
X11300539Y-12090960D02*
X11291015Y-12100484D01*
X11291015Y-12100484D02*
X11281491Y-12090960D01*
X11281491Y-12090960D02*
X11291015Y-12081436D01*
X11291015Y-12081436D02*
X11291015Y-12100484D01*
X11491015Y-12100484D02*
X11376729Y-12100484D01*
X11433872Y-12100484D02*
X11433872Y-11900484D01*
X11433872Y-11900484D02*
X11414825Y-11929055D01*
X11414825Y-11929055D02*
X11395777Y-11948103D01*
X11395777Y-11948103D02*
X11376729Y-11957627D01*
X11614825Y-11900484D02*
X11633872Y-11900484D01*
X11633872Y-11900484D02*
X11652920Y-11910008D01*
X11652920Y-11910008D02*
X11662444Y-11919531D01*
X11662444Y-11919531D02*
X11671967Y-11938579D01*
X11671967Y-11938579D02*
X11681491Y-11976674D01*
X11681491Y-11976674D02*
X11681491Y-12024293D01*
X11681491Y-12024293D02*
X11671967Y-12062388D01*
X11671967Y-12062388D02*
X11662444Y-12081436D01*
X11662444Y-12081436D02*
X11652920Y-12090960D01*
X11652920Y-12090960D02*
X11633872Y-12100484D01*
X11633872Y-12100484D02*
X11614825Y-12100484D01*
X11614825Y-12100484D02*
X11595777Y-12090960D01*
X11595777Y-12090960D02*
X11586253Y-12081436D01*
X11586253Y-12081436D02*
X11576729Y-12062388D01*
X11576729Y-12062388D02*
X11567206Y-12024293D01*
X11567206Y-12024293D02*
X11567206Y-11976674D01*
X11567206Y-11976674D02*
X11576729Y-11938579D01*
X11576729Y-11938579D02*
X11586253Y-11919531D01*
X11586253Y-11919531D02*
X11595777Y-11910008D01*
X11595777Y-11910008D02*
X11614825Y-11900484D01*
X11757682Y-11919531D02*
X11767206Y-11910008D01*
X11767206Y-11910008D02*
X11786253Y-11900484D01*
X11786253Y-11900484D02*
X11833872Y-11900484D01*
X11833872Y-11900484D02*
X11852920Y-11910008D01*
X11852920Y-11910008D02*
X11862444Y-11919531D01*
X11862444Y-11919531D02*
X11871967Y-11938579D01*
X11871967Y-11938579D02*
X11871967Y-11957627D01*
X11871967Y-11957627D02*
X11862444Y-11986198D01*
X11862444Y-11986198D02*
X11748158Y-12100484D01*
X11748158Y-12100484D02*
X11871967Y-12100484D01*
X12043396Y-11967150D02*
X12043396Y-12100484D01*
X11995777Y-11890960D02*
X11948158Y-12033817D01*
X11948158Y-12033817D02*
X12071967Y-12033817D01*
X12138634Y-11900484D02*
X12138634Y-11938579D01*
X12214825Y-11900484D02*
X12214825Y-11938579D01*
X12510063Y-12176674D02*
X12500539Y-12167150D01*
X12500539Y-12167150D02*
X12481491Y-12138579D01*
X12481491Y-12138579D02*
X12471968Y-12119531D01*
X12471968Y-12119531D02*
X12462444Y-12090960D01*
X12462444Y-12090960D02*
X12452920Y-12043341D01*
X12452920Y-12043341D02*
X12452920Y-12005246D01*
X12452920Y-12005246D02*
X12462444Y-11957627D01*
X12462444Y-11957627D02*
X12471968Y-11929055D01*
X12471968Y-11929055D02*
X12481491Y-11910008D01*
X12481491Y-11910008D02*
X12500539Y-11881436D01*
X12500539Y-11881436D02*
X12510063Y-11871912D01*
X12576729Y-11919531D02*
X12586253Y-11910008D01*
X12586253Y-11910008D02*
X12605301Y-11900484D01*
X12605301Y-11900484D02*
X12652920Y-11900484D01*
X12652920Y-11900484D02*
X12671968Y-11910008D01*
X12671968Y-11910008D02*
X12681491Y-11919531D01*
X12681491Y-11919531D02*
X12691015Y-11938579D01*
X12691015Y-11938579D02*
X12691015Y-11957627D01*
X12691015Y-11957627D02*
X12681491Y-11986198D01*
X12681491Y-11986198D02*
X12567206Y-12100484D01*
X12567206Y-12100484D02*
X12691015Y-12100484D01*
X12929110Y-12100484D02*
X12929110Y-11900484D01*
X13014825Y-12100484D02*
X13014825Y-11995722D01*
X13014825Y-11995722D02*
X13005301Y-11976674D01*
X13005301Y-11976674D02*
X12986253Y-11967150D01*
X12986253Y-11967150D02*
X12957682Y-11967150D01*
X12957682Y-11967150D02*
X12938634Y-11976674D01*
X12938634Y-11976674D02*
X12929110Y-11986198D01*
X13138634Y-12100484D02*
X13119587Y-12090960D01*
X13119587Y-12090960D02*
X13110063Y-12081436D01*
X13110063Y-12081436D02*
X13100539Y-12062388D01*
X13100539Y-12062388D02*
X13100539Y-12005246D01*
X13100539Y-12005246D02*
X13110063Y-11986198D01*
X13110063Y-11986198D02*
X13119587Y-11976674D01*
X13119587Y-11976674D02*
X13138634Y-11967150D01*
X13138634Y-11967150D02*
X13167206Y-11967150D01*
X13167206Y-11967150D02*
X13186253Y-11976674D01*
X13186253Y-11976674D02*
X13195777Y-11986198D01*
X13195777Y-11986198D02*
X13205301Y-12005246D01*
X13205301Y-12005246D02*
X13205301Y-12062388D01*
X13205301Y-12062388D02*
X13195777Y-12081436D01*
X13195777Y-12081436D02*
X13186253Y-12090960D01*
X13186253Y-12090960D02*
X13167206Y-12100484D01*
X13167206Y-12100484D02*
X13138634Y-12100484D01*
X13319587Y-12100484D02*
X13300539Y-12090960D01*
X13300539Y-12090960D02*
X13291015Y-12071912D01*
X13291015Y-12071912D02*
X13291015Y-11900484D01*
X13471968Y-12090960D02*
X13452920Y-12100484D01*
X13452920Y-12100484D02*
X13414825Y-12100484D01*
X13414825Y-12100484D02*
X13395777Y-12090960D01*
X13395777Y-12090960D02*
X13386253Y-12071912D01*
X13386253Y-12071912D02*
X13386253Y-11995722D01*
X13386253Y-11995722D02*
X13395777Y-11976674D01*
X13395777Y-11976674D02*
X13414825Y-11967150D01*
X13414825Y-11967150D02*
X13452920Y-11967150D01*
X13452920Y-11967150D02*
X13471968Y-11976674D01*
X13471968Y-11976674D02*
X13481491Y-11995722D01*
X13481491Y-11995722D02*
X13481491Y-12014769D01*
X13481491Y-12014769D02*
X13386253Y-12033817D01*
X13557682Y-12090960D02*
X13576730Y-12100484D01*
X13576730Y-12100484D02*
X13614825Y-12100484D01*
X13614825Y-12100484D02*
X13633872Y-12090960D01*
X13633872Y-12090960D02*
X13643396Y-12071912D01*
X13643396Y-12071912D02*
X13643396Y-12062388D01*
X13643396Y-12062388D02*
X13633872Y-12043341D01*
X13633872Y-12043341D02*
X13614825Y-12033817D01*
X13614825Y-12033817D02*
X13586253Y-12033817D01*
X13586253Y-12033817D02*
X13567206Y-12024293D01*
X13567206Y-12024293D02*
X13557682Y-12005246D01*
X13557682Y-12005246D02*
X13557682Y-11995722D01*
X13557682Y-11995722D02*
X13567206Y-11976674D01*
X13567206Y-11976674D02*
X13586253Y-11967150D01*
X13586253Y-11967150D02*
X13614825Y-11967150D01*
X13614825Y-11967150D02*
X13633872Y-11976674D01*
X13710063Y-12176674D02*
X13719587Y-12167150D01*
X13719587Y-12167150D02*
X13738634Y-12138579D01*
X13738634Y-12138579D02*
X13748158Y-12119531D01*
X13748158Y-12119531D02*
X13757682Y-12090960D01*
X13757682Y-12090960D02*
X13767206Y-12043341D01*
X13767206Y-12043341D02*
X13767206Y-12005246D01*
X13767206Y-12005246D02*
X13757682Y-11957627D01*
X13757682Y-11957627D02*
X13748158Y-11929055D01*
X13748158Y-11929055D02*
X13738634Y-11910008D01*
X13738634Y-11910008D02*
X13719587Y-11881436D01*
X13719587Y-11881436D02*
X13710063Y-11871912D01*
M02*
