%TF.GenerationSoftware,KiCad,Pcbnew,7.0.7*%
%TF.CreationDate,2023-09-18T16:38:50-04:00*%
%TF.ProjectId,Encoder Mount,456e636f-6465-4722-904d-6f756e742e6b,rev?*%
%TF.SameCoordinates,Original*%
%TF.FileFunction,Copper,L2,Bot*%
%TF.FilePolarity,Positive*%
%FSLAX46Y46*%
G04 Gerber Fmt 4.6, Leading zero omitted, Abs format (unit mm)*
G04 Created by KiCad (PCBNEW 7.0.7) date 2023-09-18 16:38:50*
%MOMM*%
%LPD*%
G01*
G04 APERTURE LIST*
G04 Aperture macros list*
%AMRoundRect*
0 Rectangle with rounded corners*
0 $1 Rounding radius*
0 $2 $3 $4 $5 $6 $7 $8 $9 X,Y pos of 4 corners*
0 Add a 4 corners polygon primitive as box body*
4,1,4,$2,$3,$4,$5,$6,$7,$8,$9,$2,$3,0*
0 Add four circle primitives for the rounded corners*
1,1,$1+$1,$2,$3*
1,1,$1+$1,$4,$5*
1,1,$1+$1,$6,$7*
1,1,$1+$1,$8,$9*
0 Add four rect primitives between the rounded corners*
20,1,$1+$1,$2,$3,$4,$5,0*
20,1,$1+$1,$4,$5,$6,$7,0*
20,1,$1+$1,$6,$7,$8,$9,0*
20,1,$1+$1,$8,$9,$2,$3,0*%
%AMFreePoly0*
4,1,6,1.000000,0.000000,0.500000,-0.750000,-0.500000,-0.750000,-0.500000,0.750000,0.500000,0.750000,1.000000,0.000000,1.000000,0.000000,$1*%
%AMFreePoly1*
4,1,6,0.500000,-0.750000,-0.650000,-0.750000,-0.150000,0.000000,-0.650000,0.750000,0.500000,0.750000,0.500000,-0.750000,0.500000,-0.750000,$1*%
G04 Aperture macros list end*
%TA.AperFunction,NonConductor*%
%ADD10C,0.000000*%
%TD*%
%TA.AperFunction,ComponentPad*%
%ADD11C,2.600000*%
%TD*%
%TA.AperFunction,ConnectorPad*%
%ADD12C,3.500000*%
%TD*%
%TA.AperFunction,ComponentPad*%
%ADD13R,2.000000X2.000000*%
%TD*%
%TA.AperFunction,ComponentPad*%
%ADD14C,2.000000*%
%TD*%
%TA.AperFunction,ComponentPad*%
%ADD15C,3.200000*%
%TD*%
%TA.AperFunction,ComponentPad*%
%ADD16R,1.700000X1.700000*%
%TD*%
%TA.AperFunction,ComponentPad*%
%ADD17O,1.700000X1.700000*%
%TD*%
%TA.AperFunction,SMDPad,CuDef*%
%ADD18FreePoly0,0.000000*%
%TD*%
%TA.AperFunction,SMDPad,CuDef*%
%ADD19FreePoly1,0.000000*%
%TD*%
%TA.AperFunction,SMDPad,CuDef*%
%ADD20RoundRect,0.225000X0.225000X0.375000X-0.225000X0.375000X-0.225000X-0.375000X0.225000X-0.375000X0*%
%TD*%
%TA.AperFunction,Conductor*%
%ADD21C,1.000000*%
%TD*%
%TA.AperFunction,Conductor*%
%ADD22C,0.800000*%
%TD*%
G04 APERTURE END LIST*
D10*
%TA.AperFunction,NonConductor*%
G36*
X96379952Y-92628973D02*
G01*
X96381984Y-92629242D01*
X96383986Y-92629668D01*
X96385942Y-92630253D01*
X96387836Y-92630993D01*
X96389652Y-92631887D01*
X96390526Y-92632392D01*
X96391376Y-92632934D01*
X96392198Y-92633515D01*
X96392991Y-92634133D01*
X96393753Y-92634789D01*
X96394482Y-92635483D01*
X96711084Y-92952032D01*
X96711783Y-92952766D01*
X96712443Y-92953532D01*
X96713066Y-92954330D01*
X96713650Y-92955156D01*
X96714196Y-92956009D01*
X96714704Y-92956886D01*
X96715174Y-92957787D01*
X96715604Y-92958709D01*
X96715996Y-92959650D01*
X96716349Y-92960608D01*
X96716936Y-92962568D01*
X96717365Y-92964573D01*
X96717634Y-92966609D01*
X96717741Y-92968659D01*
X96717686Y-92970708D01*
X96717467Y-92972741D01*
X96717296Y-92973746D01*
X96717083Y-92974742D01*
X96716828Y-92975725D01*
X96716532Y-92976695D01*
X96716193Y-92977650D01*
X96715812Y-92978586D01*
X96715389Y-92979503D01*
X96714923Y-92980399D01*
X96714414Y-92981271D01*
X96713863Y-92982118D01*
X96472832Y-93333331D01*
X96471749Y-93335069D01*
X96470784Y-93336937D01*
X96469937Y-93338919D01*
X96469210Y-93340996D01*
X96468605Y-93343152D01*
X96468122Y-93345369D01*
X96467763Y-93347630D01*
X96467530Y-93349919D01*
X96467424Y-93352216D01*
X96467446Y-93354507D01*
X96467597Y-93356772D01*
X96467880Y-93358995D01*
X96468294Y-93361159D01*
X96468842Y-93363246D01*
X96469526Y-93365239D01*
X96470345Y-93367121D01*
X96602807Y-93698013D01*
X96603135Y-93698977D01*
X96603509Y-93699938D01*
X96604386Y-93701847D01*
X96605426Y-93703728D01*
X96606616Y-93705569D01*
X96607943Y-93707358D01*
X96609395Y-93709085D01*
X96610958Y-93710736D01*
X96612621Y-93712301D01*
X96614370Y-93713769D01*
X96616193Y-93715126D01*
X96618077Y-93716363D01*
X96620010Y-93717466D01*
X96621978Y-93718425D01*
X96623970Y-93719228D01*
X96624970Y-93719567D01*
X96625972Y-93719863D01*
X96626973Y-93720114D01*
X96627971Y-93720319D01*
X97052269Y-93799278D01*
X97053256Y-93799484D01*
X97054230Y-93799738D01*
X97055191Y-93800040D01*
X97056137Y-93800388D01*
X97057067Y-93800780D01*
X97057980Y-93801214D01*
X97058874Y-93801689D01*
X97059748Y-93802205D01*
X97060602Y-93802758D01*
X97061433Y-93803348D01*
X97062241Y-93803973D01*
X97063024Y-93804631D01*
X97063781Y-93805321D01*
X97064510Y-93806042D01*
X97065212Y-93806792D01*
X97065883Y-93807570D01*
X97066524Y-93808373D01*
X97067132Y-93809201D01*
X97067706Y-93810052D01*
X97068246Y-93810924D01*
X97068750Y-93811817D01*
X97069217Y-93812727D01*
X97069645Y-93813655D01*
X97070033Y-93814597D01*
X97070381Y-93815554D01*
X97070686Y-93816523D01*
X97070947Y-93817503D01*
X97071164Y-93818492D01*
X97071335Y-93819488D01*
X97071459Y-93820491D01*
X97071534Y-93821499D01*
X97071559Y-93822510D01*
X97071612Y-94270199D01*
X97071589Y-94271212D01*
X97071517Y-94272222D01*
X97071395Y-94273226D01*
X97071227Y-94274223D01*
X97071013Y-94275212D01*
X97070753Y-94276192D01*
X97070451Y-94277160D01*
X97070106Y-94278116D01*
X97069719Y-94279058D01*
X97069294Y-94279984D01*
X97068327Y-94281784D01*
X97067217Y-94283504D01*
X97065972Y-94285133D01*
X97064603Y-94286658D01*
X97063120Y-94288069D01*
X97061532Y-94289352D01*
X97059849Y-94290497D01*
X97058976Y-94291014D01*
X97058083Y-94291492D01*
X97057171Y-94291930D01*
X97056241Y-94292325D01*
X97055296Y-94292677D01*
X97054335Y-94292984D01*
X97053361Y-94293245D01*
X97052375Y-94293458D01*
X96617387Y-94374348D01*
X96615393Y-94374812D01*
X96613389Y-94375451D01*
X96611387Y-94376254D01*
X96609401Y-94377210D01*
X96607445Y-94378307D01*
X96605532Y-94379535D01*
X96603674Y-94380882D01*
X96601885Y-94382336D01*
X96600178Y-94383887D01*
X96598566Y-94385523D01*
X96597063Y-94387233D01*
X96595682Y-94389006D01*
X96594436Y-94390830D01*
X96593339Y-94392693D01*
X96592402Y-94394586D01*
X96591641Y-94396496D01*
X96458305Y-94707568D01*
X96457442Y-94709431D01*
X96456716Y-94711404D01*
X96456127Y-94713472D01*
X96455674Y-94715618D01*
X96455355Y-94717823D01*
X96455170Y-94720072D01*
X96455118Y-94722348D01*
X96455196Y-94724632D01*
X96455405Y-94726909D01*
X96455743Y-94729161D01*
X96456209Y-94731371D01*
X96456802Y-94733522D01*
X96457521Y-94735598D01*
X96458365Y-94737581D01*
X96459332Y-94739454D01*
X96460422Y-94741200D01*
X96713863Y-95110591D01*
X96714410Y-95111438D01*
X96714914Y-95112310D01*
X96715377Y-95113205D01*
X96715797Y-95114122D01*
X96716175Y-95115058D01*
X96716512Y-95116012D01*
X96717060Y-95117964D01*
X96717444Y-95119963D01*
X96717663Y-95121993D01*
X96717719Y-95124040D01*
X96717614Y-95126087D01*
X96717348Y-95128120D01*
X96716922Y-95130123D01*
X96716338Y-95132081D01*
X96715597Y-95133978D01*
X96714700Y-95135799D01*
X96714193Y-95136676D01*
X96713648Y-95137528D01*
X96713064Y-95138354D01*
X96712442Y-95139151D01*
X96711782Y-95139917D01*
X96711084Y-95140651D01*
X96394535Y-95457200D01*
X96393801Y-95457898D01*
X96393035Y-95458559D01*
X96392238Y-95459181D01*
X96391413Y-95459766D01*
X96390562Y-95460312D01*
X96389685Y-95460820D01*
X96388786Y-95461289D01*
X96387866Y-95461720D01*
X96386927Y-95462112D01*
X96385971Y-95462464D01*
X96384016Y-95463052D01*
X96382015Y-95463480D01*
X96379985Y-95463749D01*
X96377940Y-95463857D01*
X96375895Y-95463802D01*
X96373867Y-95463583D01*
X96372864Y-95463412D01*
X96371870Y-95463199D01*
X96370888Y-95462944D01*
X96369920Y-95462647D01*
X96368967Y-95462309D01*
X96368031Y-95461928D01*
X96367115Y-95461505D01*
X96366220Y-95461039D01*
X96365349Y-95460530D01*
X96364502Y-95459979D01*
X95988628Y-95202040D01*
X95986889Y-95200953D01*
X95985019Y-95199985D01*
X95983036Y-95199137D01*
X95980955Y-95198411D01*
X95978796Y-95197807D01*
X95976576Y-95197327D01*
X95974311Y-95196973D01*
X95972020Y-95196744D01*
X95969720Y-95196643D01*
X95967429Y-95196671D01*
X95965163Y-95196828D01*
X95962941Y-95197117D01*
X95960780Y-95197537D01*
X95958698Y-95198092D01*
X95956711Y-95198781D01*
X95954837Y-95199605D01*
X95653291Y-95323044D01*
X95652332Y-95323385D01*
X95651376Y-95323772D01*
X95650424Y-95324202D01*
X95649478Y-95324675D01*
X95647609Y-95325742D01*
X95645781Y-95326959D01*
X95644003Y-95328312D01*
X95642288Y-95329789D01*
X95640647Y-95331377D01*
X95639091Y-95333063D01*
X95637632Y-95334834D01*
X95636280Y-95336676D01*
X95635048Y-95338576D01*
X95633945Y-95340522D01*
X95632984Y-95342501D01*
X95632176Y-95344498D01*
X95631532Y-95346502D01*
X95631276Y-95347503D01*
X95631064Y-95348500D01*
X95547316Y-95798411D01*
X95547108Y-95799400D01*
X95546851Y-95800376D01*
X95546548Y-95801339D01*
X95546199Y-95802286D01*
X95545807Y-95803218D01*
X95545372Y-95804131D01*
X95544897Y-95805027D01*
X95544382Y-95805902D01*
X95543829Y-95806755D01*
X95543240Y-95807587D01*
X95542617Y-95808395D01*
X95541959Y-95809177D01*
X95541270Y-95809934D01*
X95540551Y-95810664D01*
X95539803Y-95811364D01*
X95539027Y-95812035D01*
X95538226Y-95812675D01*
X95537400Y-95813282D01*
X95536551Y-95813856D01*
X95535680Y-95814395D01*
X95534790Y-95814898D01*
X95533882Y-95815364D01*
X95532956Y-95815792D01*
X95532015Y-95816179D01*
X95531060Y-95816526D01*
X95530093Y-95816830D01*
X95529114Y-95817091D01*
X95528126Y-95817307D01*
X95527131Y-95817478D01*
X95526128Y-95817601D01*
X95525121Y-95817676D01*
X95524110Y-95817701D01*
X95076395Y-95817701D01*
X95075386Y-95817676D01*
X95074381Y-95817601D01*
X95073381Y-95817478D01*
X95072387Y-95817307D01*
X95071401Y-95817091D01*
X95070424Y-95816830D01*
X95069458Y-95816526D01*
X95068505Y-95816179D01*
X95067565Y-95815792D01*
X95066641Y-95815364D01*
X95064844Y-95814395D01*
X95063127Y-95813282D01*
X95061500Y-95812035D01*
X95059978Y-95810664D01*
X95058570Y-95809177D01*
X95057290Y-95807587D01*
X95056701Y-95806755D01*
X95056148Y-95805902D01*
X95055634Y-95805027D01*
X95055158Y-95804131D01*
X95054724Y-95803218D01*
X95054331Y-95802286D01*
X95053983Y-95801339D01*
X95053680Y-95800376D01*
X95053423Y-95799400D01*
X95053215Y-95798411D01*
X94969493Y-95348500D01*
X94969025Y-95346502D01*
X94968382Y-95344498D01*
X94967575Y-95342501D01*
X94966616Y-95340522D01*
X94965515Y-95338576D01*
X94964284Y-95336676D01*
X94962934Y-95334834D01*
X94961476Y-95333063D01*
X94959921Y-95331377D01*
X94958280Y-95329789D01*
X94956566Y-95328312D01*
X94954788Y-95326959D01*
X94952958Y-95325742D01*
X94951086Y-95324675D01*
X94949186Y-95323772D01*
X94947266Y-95323044D01*
X94645693Y-95199605D01*
X94643815Y-95198781D01*
X94641825Y-95198092D01*
X94639738Y-95197537D01*
X94637575Y-95197117D01*
X94635350Y-95196828D01*
X94633083Y-95196671D01*
X94630791Y-95196643D01*
X94628491Y-95196744D01*
X94626200Y-95196973D01*
X94623936Y-95197327D01*
X94621718Y-95197807D01*
X94619561Y-95198411D01*
X94617483Y-95199137D01*
X94615503Y-95199985D01*
X94613637Y-95200953D01*
X94611903Y-95202040D01*
X94236055Y-95459979D01*
X94235206Y-95460530D01*
X94234332Y-95461039D01*
X94233434Y-95461505D01*
X94232516Y-95461928D01*
X94231578Y-95462309D01*
X94230623Y-95462647D01*
X94228668Y-95463199D01*
X94226667Y-95463583D01*
X94224635Y-95463802D01*
X94222587Y-95463857D01*
X94220539Y-95463749D01*
X94218507Y-95463480D01*
X94216504Y-95463052D01*
X94214548Y-95462464D01*
X94212654Y-95461720D01*
X94210835Y-95460820D01*
X94209960Y-95460312D01*
X94209110Y-95459766D01*
X94208286Y-95459181D01*
X94207491Y-95458559D01*
X94206727Y-95457898D01*
X94205996Y-95457200D01*
X93889420Y-95140651D01*
X93888724Y-95139917D01*
X93888066Y-95139151D01*
X93887445Y-95138354D01*
X93886862Y-95137528D01*
X93886317Y-95136676D01*
X93885810Y-95135799D01*
X93885341Y-95134899D01*
X93884911Y-95133978D01*
X93884520Y-95133038D01*
X93884167Y-95132081D01*
X93883580Y-95130123D01*
X93883151Y-95128120D01*
X93882881Y-95126087D01*
X93882772Y-95124040D01*
X93882825Y-95121993D01*
X93883042Y-95119963D01*
X93883213Y-95118958D01*
X93883425Y-95117964D01*
X93883679Y-95116981D01*
X93883975Y-95116012D01*
X93884313Y-95115058D01*
X93884693Y-95114122D01*
X93885116Y-95113205D01*
X93885582Y-95112310D01*
X93886090Y-95111438D01*
X93886641Y-95110591D01*
X94140109Y-94741200D01*
X94141189Y-94739454D01*
X94142149Y-94737581D01*
X94142985Y-94735598D01*
X94143699Y-94733522D01*
X94144287Y-94731371D01*
X94144749Y-94729161D01*
X94145084Y-94726909D01*
X94145292Y-94724632D01*
X94145369Y-94722348D01*
X94145317Y-94720072D01*
X94145133Y-94717823D01*
X94144816Y-94715618D01*
X94144365Y-94713472D01*
X94143779Y-94711404D01*
X94143058Y-94709431D01*
X94142199Y-94707568D01*
X94008837Y-94396496D01*
X94008481Y-94395540D01*
X94008080Y-94394586D01*
X94007149Y-94392693D01*
X94006056Y-94390830D01*
X94004814Y-94389006D01*
X94003437Y-94387233D01*
X94001937Y-94385523D01*
X94000328Y-94383887D01*
X93998623Y-94382336D01*
X93996835Y-94380882D01*
X93994977Y-94379535D01*
X93993061Y-94378307D01*
X93991103Y-94377210D01*
X93989113Y-94376254D01*
X93987106Y-94375451D01*
X93985094Y-94374812D01*
X93984090Y-94374558D01*
X93983091Y-94374348D01*
X93548129Y-94293458D01*
X93547138Y-94293245D01*
X93546160Y-94292984D01*
X93545196Y-94292677D01*
X93544247Y-94292325D01*
X93543314Y-94291930D01*
X93542399Y-94291492D01*
X93541504Y-94291015D01*
X93540628Y-94290498D01*
X93539774Y-94289943D01*
X93538942Y-94289353D01*
X93538134Y-94288728D01*
X93537352Y-94288070D01*
X93536595Y-94287380D01*
X93535866Y-94286660D01*
X93535166Y-94285912D01*
X93534496Y-94285136D01*
X93533857Y-94284335D01*
X93533250Y-94283509D01*
X93532677Y-94282660D01*
X93532138Y-94281791D01*
X93531636Y-94280901D01*
X93531171Y-94279993D01*
X93530745Y-94279068D01*
X93530358Y-94278127D01*
X93530012Y-94277173D01*
X93529708Y-94276206D01*
X93529448Y-94275228D01*
X93529232Y-94274241D01*
X93529062Y-94273246D01*
X93528939Y-94272244D01*
X93528865Y-94271236D01*
X93528840Y-94270226D01*
X93528866Y-93822537D01*
X93528891Y-93821526D01*
X93528966Y-93820518D01*
X93529089Y-93819515D01*
X93529260Y-93818518D01*
X93529476Y-93817529D01*
X93529737Y-93816549D01*
X93530041Y-93815580D01*
X93530388Y-93814624D01*
X93531203Y-93812754D01*
X93532172Y-93810951D01*
X93533285Y-93809228D01*
X93534532Y-93807596D01*
X93535904Y-93806069D01*
X93537390Y-93804657D01*
X93538980Y-93803374D01*
X93539812Y-93802784D01*
X93540666Y-93802231D01*
X93541541Y-93801716D01*
X93542436Y-93801240D01*
X93543349Y-93800806D01*
X93544281Y-93800414D01*
X93545228Y-93800067D01*
X93546191Y-93799765D01*
X93547167Y-93799510D01*
X93548156Y-93799304D01*
X93972453Y-93720346D01*
X93973450Y-93720141D01*
X93974450Y-93719890D01*
X93976450Y-93719255D01*
X93978442Y-93718452D01*
X93980412Y-93717493D01*
X93982348Y-93716389D01*
X93984236Y-93715153D01*
X93986063Y-93713795D01*
X93987817Y-93712328D01*
X93989485Y-93710763D01*
X93991053Y-93709111D01*
X93992508Y-93707385D01*
X93993838Y-93705595D01*
X93995030Y-93703754D01*
X93996070Y-93701874D01*
X93996946Y-93699965D01*
X93997318Y-93699003D01*
X93997644Y-93698039D01*
X94130106Y-93367148D01*
X94130926Y-93365266D01*
X94131610Y-93363272D01*
X94132159Y-93361185D01*
X94132575Y-93359022D01*
X94132859Y-93356798D01*
X94133011Y-93354533D01*
X94133034Y-93352243D01*
X94132928Y-93349945D01*
X94132694Y-93347657D01*
X94132335Y-93345395D01*
X94131850Y-93343178D01*
X94131241Y-93341022D01*
X94130510Y-93338945D01*
X94129658Y-93336964D01*
X94128685Y-93335095D01*
X94127593Y-93333357D01*
X93886588Y-92982144D01*
X93886039Y-92981298D01*
X93885533Y-92980425D01*
X93885069Y-92979530D01*
X93884648Y-92978613D01*
X93884269Y-92977676D01*
X93883932Y-92976722D01*
X93883383Y-92974768D01*
X93883001Y-92972767D01*
X93882784Y-92970734D01*
X93882730Y-92968685D01*
X93882838Y-92966635D01*
X93883106Y-92964600D01*
X93883534Y-92962594D01*
X93884120Y-92960634D01*
X93884862Y-92958735D01*
X93885759Y-92956913D01*
X93886265Y-92956035D01*
X93886810Y-92955182D01*
X93887392Y-92954356D01*
X93888013Y-92953559D01*
X93888671Y-92952793D01*
X93889367Y-92952059D01*
X94205969Y-92635509D01*
X94206701Y-92634816D01*
X94207465Y-92634160D01*
X94208260Y-92633542D01*
X94209083Y-92632961D01*
X94209934Y-92632418D01*
X94210809Y-92631914D01*
X94211707Y-92631447D01*
X94212627Y-92631019D01*
X94213566Y-92630630D01*
X94214522Y-92630279D01*
X94216478Y-92629695D01*
X94218480Y-92629268D01*
X94220513Y-92629000D01*
X94222561Y-92628892D01*
X94224608Y-92628945D01*
X94226640Y-92629161D01*
X94227646Y-92629330D01*
X94228642Y-92629541D01*
X94229626Y-92629793D01*
X94230596Y-92630086D01*
X94231552Y-92630422D01*
X94232489Y-92630799D01*
X94233408Y-92631218D01*
X94234305Y-92631680D01*
X94235180Y-92632184D01*
X94236029Y-92632731D01*
X94581023Y-92869528D01*
X94582758Y-92870603D01*
X94584616Y-92871547D01*
X94586582Y-92872358D01*
X94588636Y-92873036D01*
X94590764Y-92873581D01*
X94592947Y-92873993D01*
X94595169Y-92874270D01*
X94597413Y-92874413D01*
X94599661Y-92874421D01*
X94601897Y-92874294D01*
X94604103Y-92874031D01*
X94606263Y-92873632D01*
X94608360Y-92873096D01*
X94610376Y-92872424D01*
X94612295Y-92871613D01*
X94614099Y-92870665D01*
X94766249Y-92789431D01*
X94767156Y-92788996D01*
X94768071Y-92788614D01*
X94768993Y-92788284D01*
X94769919Y-92788005D01*
X94770848Y-92787777D01*
X94771779Y-92787599D01*
X94772710Y-92787470D01*
X94773638Y-92787391D01*
X94774564Y-92787360D01*
X94775485Y-92787377D01*
X94776399Y-92787441D01*
X94777305Y-92787552D01*
X94778201Y-92787708D01*
X94779086Y-92787911D01*
X94779958Y-92788158D01*
X94780815Y-92788449D01*
X94781656Y-92788784D01*
X94782480Y-92789162D01*
X94783284Y-92789582D01*
X94784068Y-92790044D01*
X94784828Y-92790548D01*
X94785565Y-92791092D01*
X94786276Y-92791676D01*
X94786960Y-92792300D01*
X94787615Y-92792963D01*
X94788239Y-92793664D01*
X94788831Y-92794402D01*
X94789389Y-92795178D01*
X94789912Y-92795990D01*
X94790399Y-92796838D01*
X94790846Y-92797721D01*
X94791254Y-92798640D01*
X95104972Y-93556660D01*
X95105337Y-93557603D01*
X95105654Y-93558560D01*
X95105924Y-93559530D01*
X95106147Y-93560510D01*
X95106323Y-93561500D01*
X95106454Y-93562496D01*
X95106581Y-93564503D01*
X95106532Y-93566518D01*
X95106312Y-93568524D01*
X95105926Y-93570509D01*
X95105379Y-93572457D01*
X95104675Y-93574354D01*
X95103819Y-93576186D01*
X95102817Y-93577938D01*
X95101672Y-93579596D01*
X95100389Y-93581146D01*
X95099698Y-93581875D01*
X95098974Y-93582572D01*
X95098218Y-93583235D01*
X95097430Y-93583862D01*
X95096612Y-93584450D01*
X95095764Y-93584999D01*
X95057687Y-93608311D01*
X95054938Y-93610056D01*
X95052008Y-93612048D01*
X95048949Y-93614244D01*
X95045816Y-93616600D01*
X95042661Y-93619072D01*
X95039539Y-93621617D01*
X95036503Y-93624192D01*
X95033607Y-93626754D01*
X95008406Y-93644007D01*
X94984353Y-93662740D01*
X94961515Y-93682887D01*
X94939958Y-93704383D01*
X94919748Y-93727163D01*
X94900950Y-93751161D01*
X94883630Y-93776313D01*
X94867854Y-93802552D01*
X94853688Y-93829814D01*
X94847229Y-93843809D01*
X94841197Y-93858034D01*
X94835600Y-93872482D01*
X94830447Y-93887146D01*
X94825746Y-93902016D01*
X94821505Y-93917084D01*
X94817731Y-93932343D01*
X94814435Y-93947784D01*
X94811622Y-93963399D01*
X94809303Y-93979181D01*
X94807485Y-93995120D01*
X94806176Y-94011208D01*
X94805385Y-94027438D01*
X94805119Y-94043801D01*
X94805763Y-94069280D01*
X94807676Y-94094424D01*
X94810824Y-94119202D01*
X94815179Y-94143584D01*
X94820708Y-94167538D01*
X94827380Y-94191033D01*
X94835164Y-94214037D01*
X94844030Y-94236521D01*
X94853946Y-94258453D01*
X94864880Y-94279801D01*
X94876802Y-94300534D01*
X94889681Y-94320622D01*
X94903486Y-94340034D01*
X94918184Y-94358737D01*
X94933746Y-94376702D01*
X94950140Y-94393896D01*
X94967336Y-94410290D01*
X94985301Y-94425851D01*
X95004005Y-94440549D01*
X95023416Y-94454353D01*
X95043504Y-94467231D01*
X95064238Y-94479152D01*
X95085586Y-94490086D01*
X95107517Y-94500000D01*
X95130000Y-94508865D01*
X95153004Y-94516649D01*
X95176498Y-94523321D01*
X95200451Y-94528849D01*
X95224831Y-94533203D01*
X95249608Y-94536352D01*
X95274750Y-94538263D01*
X95300226Y-94538908D01*
X95325702Y-94538263D01*
X95350844Y-94536352D01*
X95375620Y-94533203D01*
X95400000Y-94528849D01*
X95423952Y-94523321D01*
X95447445Y-94516649D01*
X95470448Y-94508865D01*
X95492930Y-94500000D01*
X95514861Y-94490086D01*
X95536207Y-94479152D01*
X95556940Y-94467231D01*
X95577027Y-94454353D01*
X95596437Y-94440549D01*
X95615140Y-94425851D01*
X95633104Y-94410290D01*
X95650298Y-94393896D01*
X95666691Y-94376702D01*
X95682251Y-94358737D01*
X95696949Y-94340034D01*
X95710752Y-94320622D01*
X95723630Y-94300534D01*
X95735551Y-94279801D01*
X95746484Y-94258453D01*
X95756399Y-94236521D01*
X95765264Y-94214037D01*
X95773047Y-94191033D01*
X95779719Y-94167538D01*
X95785247Y-94143584D01*
X95789601Y-94119202D01*
X95792750Y-94094424D01*
X95794662Y-94069280D01*
X95795306Y-94043801D01*
X95794249Y-94011208D01*
X95791123Y-93979181D01*
X95785993Y-93947784D01*
X95778924Y-93917084D01*
X95769983Y-93887146D01*
X95759235Y-93858034D01*
X95746746Y-93829814D01*
X95732581Y-93802552D01*
X95716806Y-93776313D01*
X95699486Y-93751161D01*
X95680689Y-93727163D01*
X95660478Y-93704383D01*
X95638919Y-93682887D01*
X95616080Y-93662740D01*
X95592024Y-93644007D01*
X95566817Y-93626754D01*
X95563938Y-93624192D01*
X95560913Y-93621617D01*
X95557797Y-93619072D01*
X95554645Y-93616600D01*
X95551514Y-93614244D01*
X95548458Y-93612048D01*
X95545532Y-93610056D01*
X95542791Y-93608311D01*
X95504714Y-93584999D01*
X95503870Y-93584450D01*
X95503056Y-93583862D01*
X95502273Y-93583235D01*
X95501520Y-93582572D01*
X95500799Y-93581875D01*
X95500111Y-93581146D01*
X95499455Y-93580385D01*
X95498832Y-93579596D01*
X95498244Y-93578780D01*
X95497690Y-93577938D01*
X95497171Y-93577073D01*
X95496689Y-93576186D01*
X95496242Y-93575279D01*
X95495833Y-93574354D01*
X95495462Y-93573412D01*
X95495129Y-93572457D01*
X95494834Y-93571488D01*
X95494580Y-93570509D01*
X95494365Y-93569520D01*
X95494191Y-93568524D01*
X95494059Y-93567523D01*
X95493968Y-93566518D01*
X95493920Y-93565511D01*
X95493916Y-93564503D01*
X95493955Y-93563498D01*
X95494038Y-93562496D01*
X95494167Y-93561500D01*
X95494341Y-93560510D01*
X95494561Y-93559530D01*
X95494828Y-93558560D01*
X95495143Y-93557603D01*
X95495506Y-93556660D01*
X95809198Y-92798613D01*
X95809605Y-92797695D01*
X95810053Y-92796812D01*
X95810538Y-92795964D01*
X95811061Y-92795152D01*
X95811619Y-92794377D01*
X95812210Y-92793639D01*
X95812834Y-92792939D01*
X95813488Y-92792277D01*
X95814171Y-92791654D01*
X95814881Y-92791071D01*
X95815617Y-92790528D01*
X95816377Y-92790025D01*
X95817159Y-92789563D01*
X95817963Y-92789144D01*
X95818786Y-92788767D01*
X95819626Y-92788432D01*
X95820483Y-92788142D01*
X95821355Y-92787895D01*
X95822239Y-92787693D01*
X95823135Y-92787537D01*
X95824041Y-92787426D01*
X95824955Y-92787362D01*
X95825876Y-92787345D01*
X95826802Y-92787376D01*
X95827731Y-92787454D01*
X95828663Y-92787582D01*
X95829594Y-92787759D01*
X95830525Y-92787986D01*
X95831452Y-92788263D01*
X95832376Y-92788592D01*
X95833293Y-92788972D01*
X95834203Y-92789405D01*
X95986352Y-92870639D01*
X95988161Y-92871587D01*
X95990083Y-92872398D01*
X95992101Y-92873072D01*
X95994199Y-92873609D01*
X95996360Y-92874010D01*
X95998566Y-92874275D01*
X96000802Y-92874403D01*
X96003049Y-92874397D01*
X96005291Y-92874255D01*
X96007511Y-92873978D01*
X96009693Y-92873566D01*
X96011819Y-92873021D01*
X96013872Y-92872341D01*
X96015836Y-92871528D01*
X96017694Y-92870581D01*
X96019428Y-92869501D01*
X96364449Y-92632704D01*
X96365296Y-92632158D01*
X96366168Y-92631654D01*
X96367064Y-92631192D01*
X96367981Y-92630773D01*
X96368917Y-92630395D01*
X96369871Y-92630060D01*
X96371824Y-92629514D01*
X96373825Y-92629134D01*
X96375856Y-92628918D01*
X96377904Y-92628865D01*
X96379952Y-92628973D01*
G37*
%TD.AperFunction*%
D11*
X90500000Y-94250000D03*
D12*
X90500000Y-94250000D03*
D11*
X109000000Y-94250000D03*
D12*
X109000000Y-94250000D03*
D13*
X92500000Y-97499999D03*
D14*
X92500000Y-102499999D03*
X92500000Y-99999999D03*
D15*
X100000000Y-94399999D03*
X100000000Y-105599999D03*
D14*
X107000000Y-102499999D03*
X107000000Y-97499999D03*
D11*
X109000000Y-105750000D03*
D12*
X109000000Y-105750000D03*
D16*
X109910000Y-97474999D03*
D17*
X109910000Y-100014999D03*
X109910000Y-102554999D03*
D16*
X89590000Y-97474999D03*
D17*
X89590000Y-100014999D03*
X89590000Y-102554999D03*
D11*
X90500000Y-105750000D03*
D12*
X90500000Y-105750000D03*
D18*
X103275000Y-95750000D03*
D19*
X104725000Y-95750000D03*
D20*
X107150000Y-100000000D03*
X103850000Y-100000000D03*
D21*
X109895001Y-100000000D02*
X107250000Y-100000000D01*
X109910000Y-100014999D02*
X109895001Y-100000000D01*
D22*
X107000000Y-97499999D02*
X106350001Y-97499999D01*
X106474999Y-97499999D02*
X104975000Y-96000000D01*
X106350001Y-97499999D02*
X103850000Y-100000000D01*
%TA.AperFunction,Conductor*%
G36*
X93705357Y-92470185D02*
G01*
X93751112Y-92522989D01*
X93761056Y-92592147D01*
X93732031Y-92655703D01*
X93726001Y-92662179D01*
X93709614Y-92678562D01*
X93702220Y-92685956D01*
X93696058Y-92691353D01*
X93687029Y-92698262D01*
X93686162Y-92699092D01*
X93668579Y-92713871D01*
X93668319Y-92713562D01*
X93667885Y-92713952D01*
X93668383Y-92714471D01*
X93660550Y-92721979D01*
X93660086Y-92722613D01*
X93647654Y-92735587D01*
X93647690Y-92735619D01*
X93640523Y-92743764D01*
X93640464Y-92743862D01*
X93629350Y-92757590D01*
X93629477Y-92757685D01*
X93622473Y-92767100D01*
X93613242Y-92780610D01*
X93613430Y-92780728D01*
X93606788Y-92791339D01*
X93599209Y-92804591D01*
X93599440Y-92804711D01*
X93591796Y-92819392D01*
X93584682Y-92835772D01*
X93584429Y-92836265D01*
X93582856Y-92840438D01*
X93582200Y-92841982D01*
X93581889Y-92843010D01*
X93578841Y-92851072D01*
X93578538Y-92851741D01*
X93574110Y-92865429D01*
X93574087Y-92865472D01*
X93574078Y-92865526D01*
X93573651Y-92866849D01*
X93573351Y-92867607D01*
X93573321Y-92867754D01*
X93569591Y-92881511D01*
X93569175Y-92882726D01*
X93568008Y-92887962D01*
X93566066Y-92895799D01*
X93563358Y-92911232D01*
X93563162Y-92911985D01*
X93561850Y-92920082D01*
X93561553Y-92921398D01*
X93561352Y-92922888D01*
X93561318Y-92923615D01*
X93560163Y-92934266D01*
X93559383Y-92934181D01*
X93558898Y-92939454D01*
X93559672Y-92939513D01*
X93558876Y-92950084D01*
X93558778Y-92950795D01*
X93558695Y-92952486D01*
X93558691Y-92952527D01*
X93558744Y-92953898D01*
X93558536Y-92962793D01*
X93558605Y-92962794D01*
X93558457Y-92978381D01*
X93558934Y-92986529D01*
X93559116Y-92991685D01*
X93559282Y-92992817D01*
X93560456Y-93007219D01*
X93560462Y-93007484D01*
X93560639Y-93008392D01*
X93560796Y-93009603D01*
X93560795Y-93009645D01*
X93560806Y-93009680D01*
X93562669Y-93024014D01*
X93562855Y-93024769D01*
X93564384Y-93033288D01*
X93564495Y-93034290D01*
X93564834Y-93035829D01*
X93565596Y-93040095D01*
X93565675Y-93040360D01*
X93569795Y-93058234D01*
X93574650Y-93074123D01*
X93574387Y-93074203D01*
X93579293Y-93088252D01*
X93583983Y-93100152D01*
X93583764Y-93100238D01*
X93590226Y-93114887D01*
X93595496Y-93125647D01*
X93595362Y-93125712D01*
X93603800Y-93141283D01*
X93603863Y-93141448D01*
X93609420Y-93150766D01*
X93609387Y-93150785D01*
X93619253Y-93165832D01*
X93619622Y-93166599D01*
X93625951Y-93175409D01*
X93625376Y-93175821D01*
X93625794Y-93176363D01*
X93626096Y-93176115D01*
X93640412Y-93193509D01*
X93641204Y-93194610D01*
X93648843Y-93203086D01*
X93653914Y-93209521D01*
X93694585Y-93268792D01*
X93716284Y-93335206D01*
X93698633Y-93402809D01*
X93647234Y-93450138D01*
X93615027Y-93460857D01*
X93544351Y-93474009D01*
X93536041Y-93474982D01*
X93525798Y-93475485D01*
X93524604Y-93475677D01*
X93510083Y-93477056D01*
X93508812Y-93477320D01*
X93494672Y-93479309D01*
X93493071Y-93479716D01*
X93479943Y-93482144D01*
X93478272Y-93482646D01*
X93465498Y-93485577D01*
X93463794Y-93486169D01*
X93443716Y-93491678D01*
X93443815Y-93491966D01*
X93433172Y-93495609D01*
X93417289Y-93501776D01*
X93417368Y-93501958D01*
X93405634Y-93507069D01*
X93392247Y-93513542D01*
X93392376Y-93513784D01*
X93378344Y-93521262D01*
X93363657Y-93530357D01*
X93363372Y-93530509D01*
X93358643Y-93533775D01*
X93352842Y-93537490D01*
X93337247Y-93549419D01*
X93336474Y-93549935D01*
X93335039Y-93551081D01*
X93334429Y-93551664D01*
X93324855Y-93559736D01*
X93324050Y-93560330D01*
X93319380Y-93564657D01*
X93313446Y-93569951D01*
X93302340Y-93581226D01*
X93301338Y-93582119D01*
X93299852Y-93583770D01*
X93293363Y-93590595D01*
X93282820Y-93603377D01*
X93281614Y-93604657D01*
X93281484Y-93604830D01*
X93279540Y-93607273D01*
X93279329Y-93607524D01*
X93278427Y-93608876D01*
X93273174Y-93615730D01*
X93272469Y-93616543D01*
X93270995Y-93618575D01*
X93270103Y-93619739D01*
X93269270Y-93621114D01*
X93260199Y-93634107D01*
X93255821Y-93641367D01*
X93253112Y-93645648D01*
X93252537Y-93646827D01*
X93245725Y-93658752D01*
X93245476Y-93659132D01*
X93245075Y-93660062D01*
X93244606Y-93660981D01*
X93244559Y-93661046D01*
X93244538Y-93661115D01*
X93237918Y-93674115D01*
X93237662Y-93674798D01*
X93234246Y-93682387D01*
X93233716Y-93683380D01*
X93232975Y-93685216D01*
X93231168Y-93689231D01*
X93231030Y-93689661D01*
X93224419Y-93706513D01*
X93222758Y-93711827D01*
X93222178Y-93713538D01*
X93222023Y-93714175D01*
X93219481Y-93722308D01*
X93219213Y-93722224D01*
X93215332Y-93736586D01*
X93212479Y-93749087D01*
X93212263Y-93749037D01*
X93209256Y-93765173D01*
X93207575Y-93776759D01*
X93207423Y-93776737D01*
X93205604Y-93794332D01*
X93205569Y-93794475D01*
X93204897Y-93805306D01*
X93204589Y-93805286D01*
X93204607Y-93827250D01*
X93204511Y-93828731D01*
X93205126Y-93842371D01*
X93205094Y-93843922D01*
X93206369Y-93858244D01*
X93206400Y-93859516D01*
X93207806Y-93869942D01*
X93208362Y-93878240D01*
X93208342Y-94214428D01*
X93207789Y-94222688D01*
X93206356Y-94233350D01*
X93206322Y-94234780D01*
X93205076Y-94248719D01*
X93205104Y-94250085D01*
X93204475Y-94264196D01*
X93204580Y-94265813D01*
X93204565Y-94279241D01*
X93204758Y-94281026D01*
X93205288Y-94293921D01*
X93205577Y-94295848D01*
X93206608Y-94308306D01*
X93206965Y-94310155D01*
X93208531Y-94322697D01*
X93209018Y-94324759D01*
X93210981Y-94336581D01*
X93211500Y-94338436D01*
X93214068Y-94350718D01*
X93214798Y-94352976D01*
X93217498Y-94363791D01*
X93218249Y-94365836D01*
X93222107Y-94379018D01*
X93222413Y-94379857D01*
X93223750Y-94384608D01*
X93226477Y-94391559D01*
X93230816Y-94402617D01*
X93231027Y-94403275D01*
X93231660Y-94404683D01*
X93231667Y-94404701D01*
X93237694Y-94418110D01*
X93237906Y-94418676D01*
X93243366Y-94429387D01*
X93244851Y-94432521D01*
X93249546Y-94440755D01*
X93251875Y-94445197D01*
X93254495Y-94449337D01*
X93254497Y-94449341D01*
X93254499Y-94449343D01*
X93256485Y-94452481D01*
X93259410Y-94457552D01*
X93269432Y-94471924D01*
X93270152Y-94473114D01*
X93271127Y-94474386D01*
X93272589Y-94476393D01*
X93273287Y-94477196D01*
X93278385Y-94483865D01*
X93279260Y-94485179D01*
X93279567Y-94485545D01*
X93281116Y-94487494D01*
X93281849Y-94488268D01*
X93285063Y-94492106D01*
X93287970Y-94495632D01*
X93288708Y-94496651D01*
X93290592Y-94498824D01*
X93290890Y-94499186D01*
X93292087Y-94500355D01*
X93297710Y-94506620D01*
X93298335Y-94507409D01*
X93300063Y-94509239D01*
X93301058Y-94510348D01*
X93302311Y-94511469D01*
X93314345Y-94523751D01*
X93318882Y-94527636D01*
X93325219Y-94533535D01*
X93329257Y-94536710D01*
X93336264Y-94542663D01*
X93339354Y-94544908D01*
X93348359Y-94551859D01*
X93349112Y-94552317D01*
X93359759Y-94559757D01*
X93359762Y-94559760D01*
X93359765Y-94559761D01*
X93361904Y-94561256D01*
X93362362Y-94561505D01*
X93374049Y-94568842D01*
X93374052Y-94568844D01*
X93374054Y-94568845D01*
X93374859Y-94569350D01*
X93374863Y-94569353D01*
X93378831Y-94571844D01*
X93383085Y-94573948D01*
X93384686Y-94574891D01*
X93388628Y-94576891D01*
X93388631Y-94576893D01*
X93388633Y-94576893D01*
X93396763Y-94581018D01*
X93398732Y-94582190D01*
X93400888Y-94583179D01*
X93400891Y-94583181D01*
X93400893Y-94583181D01*
X93409487Y-94587124D01*
X93411393Y-94588159D01*
X93413600Y-94589066D01*
X93413603Y-94589068D01*
X93413605Y-94589068D01*
X93422179Y-94592593D01*
X93424172Y-94593574D01*
X93426402Y-94594389D01*
X93426407Y-94594392D01*
X93426412Y-94594392D01*
X93435744Y-94597804D01*
X93437590Y-94598622D01*
X93449533Y-94602438D01*
X93451328Y-94603146D01*
X93453665Y-94603787D01*
X93453669Y-94603789D01*
X93453672Y-94603789D01*
X93463002Y-94606349D01*
X93464979Y-94607036D01*
X93467309Y-94607574D01*
X93467312Y-94607576D01*
X93467314Y-94607576D01*
X93477921Y-94610029D01*
X93479514Y-94610509D01*
X93481920Y-94610956D01*
X93481926Y-94610959D01*
X93481932Y-94610959D01*
X93492801Y-94612982D01*
X93494359Y-94613379D01*
X93496787Y-94613722D01*
X93496791Y-94613724D01*
X93496794Y-94613723D01*
X93507615Y-94615256D01*
X93509220Y-94615591D01*
X93511665Y-94615830D01*
X93511669Y-94615831D01*
X93511672Y-94615830D01*
X93523860Y-94617022D01*
X93524998Y-94617207D01*
X93527512Y-94617336D01*
X93527520Y-94617338D01*
X93527527Y-94617337D01*
X93536175Y-94617782D01*
X93544333Y-94618746D01*
X93615049Y-94631897D01*
X93677358Y-94663508D01*
X93712686Y-94723788D01*
X93709817Y-94793598D01*
X93694620Y-94823964D01*
X93653940Y-94883249D01*
X93648817Y-94889742D01*
X93641524Y-94897813D01*
X93640774Y-94898854D01*
X93631647Y-94909922D01*
X93630822Y-94911182D01*
X93622532Y-94922188D01*
X93621731Y-94923535D01*
X93614042Y-94934729D01*
X93613229Y-94936241D01*
X93606269Y-94947363D01*
X93605433Y-94949090D01*
X93595288Y-94966907D01*
X93595560Y-94967040D01*
X93590492Y-94977385D01*
X93583767Y-94992637D01*
X93583963Y-94992714D01*
X93579330Y-95004485D01*
X93574370Y-95018721D01*
X93574623Y-95018799D01*
X93569889Y-95034330D01*
X93565919Y-95051468D01*
X93565774Y-95051952D01*
X93564905Y-95056768D01*
X93563382Y-95063688D01*
X93560743Y-95083738D01*
X93560534Y-95084800D01*
X93560477Y-95085315D01*
X93560460Y-95086038D01*
X93559334Y-95099570D01*
X93559179Y-95100611D01*
X93558973Y-95106249D01*
X93558504Y-95114357D01*
X93558640Y-95130149D01*
X93558555Y-95131652D01*
X93558649Y-95133414D01*
X93558716Y-95135794D01*
X93558828Y-95136758D01*
X93559271Y-95145135D01*
X93559250Y-95146787D01*
X93559315Y-95147459D01*
X93559492Y-95149968D01*
X93559657Y-95151002D01*
X93560514Y-95159880D01*
X93560568Y-95161672D01*
X93560907Y-95164644D01*
X93560931Y-95164926D01*
X93561226Y-95166400D01*
X93562375Y-95175030D01*
X93562448Y-95176085D01*
X93562831Y-95178518D01*
X93563021Y-95179959D01*
X93563390Y-95181462D01*
X93566180Y-95197221D01*
X93568205Y-95205409D01*
X93569267Y-95210158D01*
X93569666Y-95211321D01*
X93573393Y-95225027D01*
X93573430Y-95225206D01*
X93573586Y-95225595D01*
X93574170Y-95227358D01*
X93574176Y-95227395D01*
X93574193Y-95227426D01*
X93574956Y-95229728D01*
X93578598Y-95240990D01*
X93578868Y-95241587D01*
X93582023Y-95249937D01*
X93582314Y-95250898D01*
X93583005Y-95252530D01*
X93584485Y-95256446D01*
X93584724Y-95256912D01*
X93591960Y-95273573D01*
X93595268Y-95279906D01*
X93595641Y-95280707D01*
X93595959Y-95281229D01*
X93599665Y-95288325D01*
X93599419Y-95288453D01*
X93606805Y-95301333D01*
X93613621Y-95312203D01*
X93613429Y-95312322D01*
X93622625Y-95325758D01*
X93629676Y-95335220D01*
X93629432Y-95335401D01*
X93642458Y-95350789D01*
X93643666Y-95352427D01*
X93652511Y-95362052D01*
X93653602Y-95363409D01*
X93663179Y-95372976D01*
X93664225Y-95374168D01*
X93674303Y-95383394D01*
X93675377Y-95384515D01*
X93686266Y-95393641D01*
X93687237Y-95394568D01*
X93696049Y-95401304D01*
X93702231Y-95406714D01*
X93939961Y-95644424D01*
X93945450Y-95650706D01*
X93951689Y-95658900D01*
X93952610Y-95659867D01*
X93967108Y-95677232D01*
X93966834Y-95677460D01*
X93967476Y-95678178D01*
X93967961Y-95677716D01*
X93975450Y-95685559D01*
X93975451Y-95685560D01*
X93975783Y-95685804D01*
X93976113Y-95686047D01*
X93989079Y-95698518D01*
X93989107Y-95698487D01*
X93997235Y-95705664D01*
X93997238Y-95705665D01*
X93997239Y-95705667D01*
X93997373Y-95705749D01*
X94011125Y-95716919D01*
X94011215Y-95716800D01*
X94019947Y-95723316D01*
X94034456Y-95733250D01*
X94034552Y-95733098D01*
X94043745Y-95738856D01*
X94043749Y-95738859D01*
X94043753Y-95738860D01*
X94045502Y-95739956D01*
X94058279Y-95747274D01*
X94058408Y-95747028D01*
X94072744Y-95754504D01*
X94088639Y-95761474D01*
X94089138Y-95761731D01*
X94093939Y-95763560D01*
X94100455Y-95766330D01*
X94107503Y-95768625D01*
X94107506Y-95768627D01*
X94107508Y-95768627D01*
X94119414Y-95772505D01*
X94119520Y-95772547D01*
X94119529Y-95772552D01*
X94119533Y-95772552D01*
X94120602Y-95772978D01*
X94121487Y-95773247D01*
X94122307Y-95773420D01*
X94122830Y-95773563D01*
X94122835Y-95773566D01*
X94122839Y-95773566D01*
X94134835Y-95776864D01*
X94135854Y-95777215D01*
X94138325Y-95777773D01*
X94138330Y-95777775D01*
X94138334Y-95777775D01*
X94141332Y-95778452D01*
X94146735Y-95779783D01*
X94146738Y-95779785D01*
X94146740Y-95779785D01*
X94149389Y-95780438D01*
X94153548Y-95781181D01*
X94153549Y-95781182D01*
X94164232Y-95783092D01*
X94163959Y-95784618D01*
X94164024Y-95784629D01*
X94164259Y-95783171D01*
X94172992Y-95784575D01*
X94174595Y-95784937D01*
X94175160Y-95785000D01*
X94177336Y-95785295D01*
X94178192Y-95785336D01*
X94187580Y-95786377D01*
X94187509Y-95787016D01*
X94193740Y-95787592D01*
X94193788Y-95786954D01*
X94202998Y-95787632D01*
X94203903Y-95787756D01*
X94206248Y-95787873D01*
X94206901Y-95787921D01*
X94208538Y-95787859D01*
X94216866Y-95788071D01*
X94216867Y-95787982D01*
X94227723Y-95788077D01*
X94227728Y-95788078D01*
X94227732Y-95788077D01*
X94232376Y-95788118D01*
X94235053Y-95787965D01*
X94235059Y-95787966D01*
X94235064Y-95787964D01*
X94241021Y-95787625D01*
X94243535Y-95787532D01*
X94243539Y-95787533D01*
X94243542Y-95787532D01*
X94246052Y-95787440D01*
X94247194Y-95787271D01*
X94259405Y-95786258D01*
X94259406Y-95786259D01*
X94259406Y-95786258D01*
X94260768Y-95786146D01*
X94261491Y-95786129D01*
X94261576Y-95786119D01*
X94262916Y-95785857D01*
X94263345Y-95785801D01*
X94263453Y-95785805D01*
X94263545Y-95785774D01*
X94275492Y-95784218D01*
X94275498Y-95784219D01*
X94275503Y-95784217D01*
X94278031Y-95783888D01*
X94278443Y-95783787D01*
X94286567Y-95782299D01*
X94287989Y-95782139D01*
X94290042Y-95781685D01*
X94292049Y-95781323D01*
X94292051Y-95781323D01*
X94292052Y-95781322D01*
X94294583Y-95780866D01*
X94295277Y-95780660D01*
X94308317Y-95777653D01*
X94308324Y-95777653D01*
X94308330Y-95777650D01*
X94312361Y-95776721D01*
X94317631Y-95775111D01*
X94317636Y-95775111D01*
X94317640Y-95775108D01*
X94328024Y-95771938D01*
X94328099Y-95772185D01*
X94342654Y-95767097D01*
X94354209Y-95762537D01*
X94354288Y-95762738D01*
X94369372Y-95756071D01*
X94370102Y-95755712D01*
X94370104Y-95755712D01*
X94370105Y-95755710D01*
X94379844Y-95750930D01*
X94379910Y-95751065D01*
X94395476Y-95742612D01*
X94395618Y-95742558D01*
X94395619Y-95742556D01*
X94404931Y-95736992D01*
X94404945Y-95737016D01*
X94420021Y-95727108D01*
X94420842Y-95726712D01*
X94420849Y-95726703D01*
X94429646Y-95720369D01*
X94430077Y-95720968D01*
X94430429Y-95720697D01*
X94430162Y-95720372D01*
X94447876Y-95705772D01*
X94448865Y-95705058D01*
X94450723Y-95703378D01*
X94450727Y-95703376D01*
X94450729Y-95703372D01*
X94456878Y-95697815D01*
X94463362Y-95692695D01*
X94522697Y-95651975D01*
X94589108Y-95630273D01*
X94656713Y-95647921D01*
X94704044Y-95699316D01*
X94714766Y-95731531D01*
X94727918Y-95802207D01*
X94728887Y-95810453D01*
X94729417Y-95821039D01*
X94729638Y-95822408D01*
X94730973Y-95836472D01*
X94731255Y-95837830D01*
X94733204Y-95851734D01*
X94733626Y-95853401D01*
X94736016Y-95866383D01*
X94736450Y-95867828D01*
X94739529Y-95881216D01*
X94740191Y-95883124D01*
X94745489Y-95902491D01*
X94745774Y-95902394D01*
X94749582Y-95913560D01*
X94755457Y-95928755D01*
X94755662Y-95928667D01*
X94760620Y-95940106D01*
X94767279Y-95953933D01*
X94767506Y-95953813D01*
X94775134Y-95968168D01*
X94784630Y-95983437D01*
X94784780Y-95983717D01*
X94787460Y-95987581D01*
X94791320Y-95993624D01*
X94803520Y-96009541D01*
X94804161Y-96010498D01*
X94804563Y-96011001D01*
X94805090Y-96011554D01*
X94813862Y-96021940D01*
X94814456Y-96022742D01*
X94818063Y-96026629D01*
X94823626Y-96032879D01*
X94835017Y-96044104D01*
X94835962Y-96045164D01*
X94837162Y-96046244D01*
X94838674Y-96047676D01*
X94839400Y-96048253D01*
X94845758Y-96053983D01*
X94846960Y-96055219D01*
X94847639Y-96055780D01*
X94849920Y-96057760D01*
X94849982Y-96057817D01*
X94850974Y-96058536D01*
X94857571Y-96063987D01*
X94858784Y-96065129D01*
X94860878Y-96066796D01*
X94861186Y-96067054D01*
X94862386Y-96067856D01*
X94869331Y-96073181D01*
X94870022Y-96073783D01*
X94871979Y-96075208D01*
X94873450Y-96076335D01*
X94874753Y-96077124D01*
X94887659Y-96086145D01*
X94894717Y-96090415D01*
X94899336Y-96093341D01*
X94900490Y-96093905D01*
X94912026Y-96100502D01*
X94912672Y-96100924D01*
X94912712Y-96100945D01*
X94913768Y-96101402D01*
X94914415Y-96101731D01*
X94914445Y-96101754D01*
X94914477Y-96101763D01*
X94925568Y-96107417D01*
X94925571Y-96107419D01*
X94925573Y-96107419D01*
X94932193Y-96110794D01*
X94938784Y-96113456D01*
X94940619Y-96114283D01*
X94940623Y-96114286D01*
X94940626Y-96114286D01*
X94943024Y-96115368D01*
X94943394Y-96115487D01*
X94960082Y-96122033D01*
X94965434Y-96123716D01*
X94965437Y-96123718D01*
X94965439Y-96123718D01*
X94975792Y-96126975D01*
X94975707Y-96127244D01*
X94989815Y-96131078D01*
X94991895Y-96131556D01*
X94991899Y-96131558D01*
X94991902Y-96131558D01*
X95002474Y-96133990D01*
X95002426Y-96134198D01*
X95018751Y-96137266D01*
X95030205Y-96138944D01*
X95030163Y-96139230D01*
X95040026Y-96140067D01*
X95040028Y-96140068D01*
X95040029Y-96140067D01*
X95050925Y-96140993D01*
X95052563Y-96141241D01*
X95055003Y-96141342D01*
X95055007Y-96141343D01*
X95055010Y-96141342D01*
X95065067Y-96141760D01*
X95066986Y-96141968D01*
X95069411Y-96141968D01*
X95069416Y-96141969D01*
X95069420Y-96141968D01*
X95080863Y-96141969D01*
X95082329Y-96142064D01*
X95084791Y-96141955D01*
X95084797Y-96141956D01*
X95084802Y-96141954D01*
X95096018Y-96141460D01*
X95097540Y-96141492D01*
X95100003Y-96141274D01*
X95100008Y-96141275D01*
X95100012Y-96141273D01*
X95111933Y-96140222D01*
X95113189Y-96140192D01*
X95115672Y-96139858D01*
X95115674Y-96139859D01*
X95115675Y-96139858D01*
X95123917Y-96138753D01*
X95132173Y-96138201D01*
X95468361Y-96138201D01*
X95476642Y-96138756D01*
X95484700Y-96139840D01*
X95484702Y-96139841D01*
X95484703Y-96139840D01*
X95487171Y-96140173D01*
X95488453Y-96140204D01*
X95500338Y-96141259D01*
X95500341Y-96141260D01*
X95500343Y-96141259D01*
X95502802Y-96141478D01*
X95504298Y-96141447D01*
X95515617Y-96141950D01*
X95515624Y-96141952D01*
X95515630Y-96141951D01*
X95518099Y-96142061D01*
X95519612Y-96141964D01*
X95530880Y-96141969D01*
X95530882Y-96141970D01*
X95530883Y-96141969D01*
X95533307Y-96141971D01*
X95535183Y-96141769D01*
X95545388Y-96141347D01*
X95545392Y-96141348D01*
X95545395Y-96141347D01*
X95547823Y-96141247D01*
X95549543Y-96140988D01*
X95560221Y-96140090D01*
X95560226Y-96140091D01*
X95560230Y-96140089D01*
X95562621Y-96139889D01*
X95564577Y-96139509D01*
X95574480Y-96138263D01*
X95574489Y-96138264D01*
X95574497Y-96138261D01*
X95576862Y-96137964D01*
X95578938Y-96137473D01*
X95588348Y-96135902D01*
X95588357Y-96135903D01*
X95588365Y-96135900D01*
X95590697Y-96135511D01*
X95592832Y-96134915D01*
X95601948Y-96133018D01*
X95601956Y-96133018D01*
X95601963Y-96133015D01*
X95604295Y-96132530D01*
X95606318Y-96131877D01*
X95615619Y-96129547D01*
X95615626Y-96129547D01*
X95615632Y-96129544D01*
X95617929Y-96128969D01*
X95620061Y-96128185D01*
X95628794Y-96125627D01*
X95628801Y-96125627D01*
X95628806Y-96125624D01*
X95633008Y-96124394D01*
X95633795Y-96124109D01*
X95638484Y-96122792D01*
X95643946Y-96120649D01*
X95643955Y-96120648D01*
X95643962Y-96120643D01*
X95644142Y-96120573D01*
X95644152Y-96120569D01*
X95657047Y-96115514D01*
X95657441Y-96115387D01*
X95658697Y-96114821D01*
X95658724Y-96114809D01*
X95659836Y-96114307D01*
X95659843Y-96114306D01*
X95659848Y-96114302D01*
X95671761Y-96108934D01*
X95672548Y-96108637D01*
X95674829Y-96107474D01*
X95674836Y-96107473D01*
X95674841Y-96107468D01*
X95683651Y-96102982D01*
X95686608Y-96101574D01*
X95689614Y-96099855D01*
X95689624Y-96099852D01*
X95689631Y-96099845D01*
X95694645Y-96096980D01*
X95699216Y-96094581D01*
X95703163Y-96092081D01*
X95703169Y-96092079D01*
X95703173Y-96092074D01*
X95706409Y-96090026D01*
X95711433Y-96087141D01*
X95716417Y-96083655D01*
X95716423Y-96083653D01*
X95716427Y-96083648D01*
X95716740Y-96083430D01*
X95719343Y-96081705D01*
X95723240Y-96079262D01*
X95728539Y-96075205D01*
X95730834Y-96073530D01*
X95735332Y-96070402D01*
X95739581Y-96066843D01*
X95741831Y-96065051D01*
X95742999Y-96063950D01*
X95749404Y-96058655D01*
X95750449Y-96057896D01*
X95750487Y-96057863D01*
X95752795Y-96055861D01*
X95753414Y-96055349D01*
X95754412Y-96054324D01*
X95764768Y-96044978D01*
X95765918Y-96043688D01*
X95773572Y-96036159D01*
X95773578Y-96036156D01*
X95773582Y-96036150D01*
X95777868Y-96031935D01*
X95781572Y-96027598D01*
X95784545Y-96024389D01*
X95784550Y-96024386D01*
X95784552Y-96024381D01*
X95787532Y-96021167D01*
X95790584Y-96017294D01*
X95794657Y-96012480D01*
X95794660Y-96012478D01*
X95794661Y-96012475D01*
X95796740Y-96010019D01*
X95798457Y-96007654D01*
X95804854Y-95999304D01*
X95804858Y-95999302D01*
X95804859Y-95999298D01*
X95806418Y-95997265D01*
X95806859Y-95996534D01*
X95814236Y-95985895D01*
X95814244Y-95985888D01*
X95814248Y-95985878D01*
X95815764Y-95983693D01*
X95815876Y-95983486D01*
X95823464Y-95971271D01*
X95823470Y-95971266D01*
X95823472Y-95971258D01*
X95826368Y-95966599D01*
X95828063Y-95963262D01*
X95828442Y-95962569D01*
X95828626Y-95962152D01*
X95835207Y-95949181D01*
X95836262Y-95947405D01*
X95837254Y-95945234D01*
X95837258Y-95945229D01*
X95837259Y-95945222D01*
X95841065Y-95936899D01*
X95842141Y-95934911D01*
X95843042Y-95932713D01*
X95843046Y-95932708D01*
X95843047Y-95932702D01*
X95846435Y-95924445D01*
X95847468Y-95922345D01*
X95848279Y-95920124D01*
X95848281Y-95920122D01*
X95848281Y-95920119D01*
X95851946Y-95910093D01*
X95852656Y-95908487D01*
X95853389Y-95906178D01*
X95853392Y-95906174D01*
X95853392Y-95906169D01*
X95856364Y-95896820D01*
X95857111Y-95894918D01*
X95857740Y-95892615D01*
X95857744Y-95892609D01*
X95857744Y-95892601D01*
X95860339Y-95883119D01*
X95861003Y-95881204D01*
X95861540Y-95878868D01*
X95861542Y-95878864D01*
X95861542Y-95878859D01*
X95863991Y-95868212D01*
X95864466Y-95866629D01*
X95864910Y-95864225D01*
X95864912Y-95864222D01*
X95864912Y-95864218D01*
X95867014Y-95852857D01*
X95867360Y-95851488D01*
X95867701Y-95849035D01*
X95867704Y-95849028D01*
X95867703Y-95849020D01*
X95869188Y-95838366D01*
X95869530Y-95836715D01*
X95869763Y-95834278D01*
X95869765Y-95834273D01*
X95869764Y-95834267D01*
X95870957Y-95821823D01*
X95871127Y-95820766D01*
X95871250Y-95818252D01*
X95871251Y-95818250D01*
X95871250Y-95818247D01*
X95871626Y-95810600D01*
X95872600Y-95802282D01*
X95872614Y-95802207D01*
X95885772Y-95731516D01*
X95917392Y-95669213D01*
X95977678Y-95633894D01*
X96047488Y-95636774D01*
X96077838Y-95651967D01*
X96137190Y-95692697D01*
X96143710Y-95697847D01*
X96151501Y-95704898D01*
X96152462Y-95705592D01*
X96161835Y-95713326D01*
X96161837Y-95713328D01*
X96161839Y-95713329D01*
X96163738Y-95714896D01*
X96165108Y-95715796D01*
X96175768Y-95723845D01*
X96177116Y-95724649D01*
X96186287Y-95730965D01*
X96186290Y-95730968D01*
X96186292Y-95730969D01*
X96188312Y-95732360D01*
X96189784Y-95733153D01*
X96201012Y-95740195D01*
X96202648Y-95740989D01*
X96211741Y-95746170D01*
X96211743Y-95746172D01*
X96211745Y-95746172D01*
X96220501Y-95751162D01*
X96220631Y-95750898D01*
X96230973Y-95755979D01*
X96246236Y-95762726D01*
X96246313Y-95762532D01*
X96256401Y-95766513D01*
X96256405Y-95766516D01*
X96256408Y-95766516D01*
X96257775Y-95767056D01*
X96272464Y-95772188D01*
X96272537Y-95771951D01*
X96282912Y-95775117D01*
X96282915Y-95775119D01*
X96282917Y-95775119D01*
X96288018Y-95776676D01*
X96291883Y-95777571D01*
X96291889Y-95777574D01*
X96291894Y-95777574D01*
X96304736Y-95780550D01*
X96305499Y-95780778D01*
X96308015Y-95781234D01*
X96308022Y-95781237D01*
X96308029Y-95781237D01*
X96310438Y-95781674D01*
X96317363Y-95783206D01*
X96324608Y-95784160D01*
X96324610Y-95784161D01*
X96324611Y-95784160D01*
X96337116Y-95785808D01*
X96337134Y-95785814D01*
X96337153Y-95785813D01*
X96337455Y-95785853D01*
X96338582Y-95786075D01*
X96339166Y-95786140D01*
X96339955Y-95786159D01*
X96340871Y-95786235D01*
X96340872Y-95786236D01*
X96340872Y-95786235D01*
X96353149Y-95787266D01*
X96354239Y-95787428D01*
X96356757Y-95787522D01*
X96356764Y-95787524D01*
X96356770Y-95787523D01*
X96359461Y-95787624D01*
X96365502Y-95787968D01*
X96365507Y-95787969D01*
X96365511Y-95787968D01*
X96368084Y-95788115D01*
X96372594Y-95788078D01*
X96372600Y-95788079D01*
X96372605Y-95788078D01*
X96383490Y-95787989D01*
X96385143Y-95788084D01*
X96387593Y-95787957D01*
X96387597Y-95787958D01*
X96387600Y-95787957D01*
X96398651Y-95787387D01*
X96400246Y-95787410D01*
X96401381Y-95787303D01*
X96404288Y-95787096D01*
X96409851Y-95786831D01*
X96415388Y-95786069D01*
X96418270Y-95785741D01*
X96424072Y-95785217D01*
X96429347Y-95784268D01*
X96432129Y-95783833D01*
X96434075Y-95783573D01*
X96435475Y-95783228D01*
X96446646Y-95781239D01*
X96446654Y-95781239D01*
X96446660Y-95781236D01*
X96451112Y-95780444D01*
X96453717Y-95779802D01*
X96453726Y-95779802D01*
X96453734Y-95779798D01*
X96459475Y-95778385D01*
X96462013Y-95777813D01*
X96462022Y-95777813D01*
X96462029Y-95777809D01*
X96464489Y-95777256D01*
X96465509Y-95776905D01*
X96478235Y-95773416D01*
X96479050Y-95773244D01*
X96479665Y-95773057D01*
X96480892Y-95772569D01*
X96480986Y-95772556D01*
X96481103Y-95772492D01*
X96492638Y-95768750D01*
X96492641Y-95768750D01*
X96492643Y-95768748D01*
X96495124Y-95767944D01*
X96495844Y-95767619D01*
X96503693Y-95764661D01*
X96504760Y-95764337D01*
X96506677Y-95763521D01*
X96508552Y-95762809D01*
X96508558Y-95762809D01*
X96508562Y-95762806D01*
X96510959Y-95761898D01*
X96511591Y-95761574D01*
X96527644Y-95754573D01*
X96532527Y-95752026D01*
X96532532Y-95752025D01*
X96532535Y-95752022D01*
X96542167Y-95747000D01*
X96542294Y-95747244D01*
X96555088Y-95739912D01*
X96556824Y-95738824D01*
X96556827Y-95738823D01*
X96556829Y-95738821D01*
X96566021Y-95733062D01*
X96566117Y-95733216D01*
X96580590Y-95723303D01*
X96589345Y-95716769D01*
X96589518Y-95717000D01*
X96597043Y-95710636D01*
X96597047Y-95710634D01*
X96597049Y-95710630D01*
X96605192Y-95703745D01*
X96606608Y-95702699D01*
X96608391Y-95701055D01*
X96608397Y-95701052D01*
X96608400Y-95701046D01*
X96616248Y-95693816D01*
X96617602Y-95692724D01*
X96619315Y-95691004D01*
X96619319Y-95691002D01*
X96619321Y-95690998D01*
X96626876Y-95683417D01*
X96628167Y-95682281D01*
X96629814Y-95680480D01*
X96629821Y-95680475D01*
X96629825Y-95680467D01*
X96637513Y-95672064D01*
X96638582Y-95671038D01*
X96640161Y-95669149D01*
X96640164Y-95669148D01*
X96640165Y-95669145D01*
X96647854Y-95659956D01*
X96648718Y-95659048D01*
X96650235Y-95657056D01*
X96650240Y-95657053D01*
X96650242Y-95657047D01*
X96655093Y-95650685D01*
X96660563Y-95644426D01*
X96898262Y-95406727D01*
X96904450Y-95401311D01*
X96911281Y-95396088D01*
X96911288Y-95396085D01*
X96911292Y-95396079D01*
X96913269Y-95394569D01*
X96914242Y-95393641D01*
X96923240Y-95386100D01*
X96923243Y-95386099D01*
X96923244Y-95386097D01*
X96931566Y-95379124D01*
X96931797Y-95379400D01*
X96932487Y-95378781D01*
X96932019Y-95378293D01*
X96939849Y-95370790D01*
X96939849Y-95370788D01*
X96939854Y-95370786D01*
X96940355Y-95370100D01*
X96952814Y-95357100D01*
X96952787Y-95357076D01*
X96959952Y-95348930D01*
X96959952Y-95348928D01*
X96959955Y-95348927D01*
X96960070Y-95348737D01*
X96971224Y-95334949D01*
X96971111Y-95334865D01*
X96977579Y-95326157D01*
X96977583Y-95326154D01*
X96977585Y-95326149D01*
X96978168Y-95325365D01*
X96987332Y-95311934D01*
X96987141Y-95311815D01*
X96992889Y-95302617D01*
X96992893Y-95302614D01*
X96992894Y-95302609D01*
X96993759Y-95301227D01*
X97001359Y-95287921D01*
X97001131Y-95287803D01*
X97006135Y-95278168D01*
X97006140Y-95278163D01*
X97006142Y-95278155D01*
X97008607Y-95273411D01*
X97010091Y-95270006D01*
X97010097Y-95269999D01*
X97010099Y-95269989D01*
X97015605Y-95257367D01*
X97015861Y-95256867D01*
X97016774Y-95254453D01*
X97016778Y-95254447D01*
X97016779Y-95254439D01*
X97017606Y-95252255D01*
X97020365Y-95245749D01*
X97026461Y-95226951D01*
X97026466Y-95226943D01*
X97026467Y-95226932D01*
X97026604Y-95226512D01*
X97027042Y-95225405D01*
X97027152Y-95225042D01*
X97027298Y-95224349D01*
X97027613Y-95223194D01*
X97027615Y-95223191D01*
X97027615Y-95223186D01*
X97030901Y-95211157D01*
X97031238Y-95210174D01*
X97032463Y-95204698D01*
X97034395Y-95196850D01*
X97035165Y-95192498D01*
X97035167Y-95192494D01*
X97035167Y-95192489D01*
X97037059Y-95181802D01*
X97037124Y-95181813D01*
X97038549Y-95172935D01*
X97038883Y-95171449D01*
X97038913Y-95171177D01*
X97039162Y-95169322D01*
X97039198Y-95168566D01*
X97040300Y-95158465D01*
X97041073Y-95158549D01*
X97041550Y-95153377D01*
X97040762Y-95153318D01*
X97041559Y-95142716D01*
X97041672Y-95141893D01*
X97041753Y-95140252D01*
X97041707Y-95139030D01*
X97041922Y-95129959D01*
X97041838Y-95129959D01*
X97041940Y-95119107D01*
X97041941Y-95119103D01*
X97041940Y-95119098D01*
X97041987Y-95114123D01*
X97041794Y-95110873D01*
X97041795Y-95110868D01*
X97041793Y-95110862D01*
X97041490Y-95105742D01*
X97041420Y-95103757D01*
X97041422Y-95103750D01*
X97041420Y-95103742D01*
X97041333Y-95101230D01*
X97041162Y-95100055D01*
X97040188Y-95087982D01*
X97040189Y-95087974D01*
X97040186Y-95087966D01*
X97039977Y-95085363D01*
X97039629Y-95082872D01*
X97039630Y-95082865D01*
X97039627Y-95082857D01*
X97039298Y-95080494D01*
X97037819Y-95069038D01*
X97037568Y-95068004D01*
X97034930Y-95053065D01*
X97034796Y-95052610D01*
X97030674Y-95034551D01*
X97028836Y-95028547D01*
X97028836Y-95028544D01*
X97028834Y-95028541D01*
X97028563Y-95027654D01*
X97028283Y-95026576D01*
X97028029Y-95025908D01*
X97025647Y-95018127D01*
X97025915Y-95018044D01*
X97021173Y-95004517D01*
X97016335Y-94992274D01*
X97016548Y-94992189D01*
X97010049Y-94977498D01*
X97009560Y-94976502D01*
X97009558Y-94976495D01*
X97009553Y-94976488D01*
X97004775Y-94966758D01*
X97004908Y-94966692D01*
X96996445Y-94951113D01*
X96996387Y-94950961D01*
X96990821Y-94941652D01*
X96990897Y-94941605D01*
X96981086Y-94926656D01*
X96980861Y-94926188D01*
X96980859Y-94926186D01*
X96974531Y-94917373D01*
X96975099Y-94916964D01*
X96974645Y-94916374D01*
X96974347Y-94916620D01*
X96960192Y-94899419D01*
X96959349Y-94898248D01*
X96957686Y-94896400D01*
X96957683Y-94896395D01*
X96957677Y-94896390D01*
X96951595Y-94889632D01*
X96946550Y-94883225D01*
X96905886Y-94823957D01*
X96884189Y-94757541D01*
X96901844Y-94689939D01*
X96953245Y-94642613D01*
X96985457Y-94631895D01*
X97056086Y-94618761D01*
X97064170Y-94617801D01*
X97073339Y-94617318D01*
X97073344Y-94617319D01*
X97073348Y-94617318D01*
X97075858Y-94617186D01*
X97076971Y-94617003D01*
X97089219Y-94615790D01*
X97089230Y-94615791D01*
X97089240Y-94615788D01*
X97091686Y-94615546D01*
X97093208Y-94615226D01*
X97104266Y-94613640D01*
X97104270Y-94613641D01*
X97104273Y-94613640D01*
X97106701Y-94613292D01*
X97108280Y-94612887D01*
X97119032Y-94610868D01*
X97119035Y-94610868D01*
X97119037Y-94610867D01*
X97129397Y-94608922D01*
X97129322Y-94608624D01*
X97139836Y-94605957D01*
X97139841Y-94605957D01*
X97139964Y-94605901D01*
X97156930Y-94600849D01*
X97156880Y-94600704D01*
X97167550Y-94597043D01*
X97183414Y-94590872D01*
X97183335Y-94590689D01*
X97193274Y-94586351D01*
X97193280Y-94586350D01*
X97193285Y-94586346D01*
X97195390Y-94585428D01*
X97208356Y-94579157D01*
X97208219Y-94578899D01*
X97217812Y-94573780D01*
X97217818Y-94573779D01*
X97217822Y-94573775D01*
X97222993Y-94571017D01*
X97226725Y-94568667D01*
X97226734Y-94568664D01*
X97226741Y-94568657D01*
X97238391Y-94561324D01*
X97238896Y-94561048D01*
X97240937Y-94559617D01*
X97243281Y-94558050D01*
X97243564Y-94557869D01*
X97244497Y-94557119D01*
X97251491Y-94552213D01*
X97252377Y-94551672D01*
X97254382Y-94550120D01*
X97254388Y-94550118D01*
X97254392Y-94550113D01*
X97263704Y-94542910D01*
X97263817Y-94542853D01*
X97263912Y-94542750D01*
X97264599Y-94542219D01*
X97265550Y-94541575D01*
X97265884Y-94541256D01*
X97276320Y-94532367D01*
X97277343Y-94531603D01*
X97279170Y-94529898D01*
X97279174Y-94529896D01*
X97279176Y-94529892D01*
X97281186Y-94528018D01*
X97285048Y-94524569D01*
X97285052Y-94524567D01*
X97285054Y-94524563D01*
X97287397Y-94522472D01*
X97290810Y-94518979D01*
X97290815Y-94518977D01*
X97290817Y-94518972D01*
X97298625Y-94510987D01*
X97299761Y-94509967D01*
X97300705Y-94508915D01*
X97302525Y-94506978D01*
X97303145Y-94506192D01*
X97308729Y-94499959D01*
X97309871Y-94498841D01*
X97310108Y-94498554D01*
X97311918Y-94496460D01*
X97312916Y-94495090D01*
X97319973Y-94486631D01*
X97319981Y-94486625D01*
X97319985Y-94486616D01*
X97323887Y-94481941D01*
X97325575Y-94479597D01*
X97325583Y-94479590D01*
X97325587Y-94479580D01*
X97329443Y-94474229D01*
X97330727Y-94472545D01*
X97331580Y-94471131D01*
X97337796Y-94462204D01*
X97337801Y-94462200D01*
X97337803Y-94462194D01*
X97340419Y-94458439D01*
X97341886Y-94456003D01*
X97341892Y-94455997D01*
X97341894Y-94455989D01*
X97344727Y-94451289D01*
X97346368Y-94448682D01*
X97346373Y-94448678D01*
X97346375Y-94448672D01*
X97347716Y-94446544D01*
X97348202Y-94445544D01*
X97354293Y-94434803D01*
X97354297Y-94434799D01*
X97354299Y-94434793D01*
X97354771Y-94433961D01*
X97355184Y-94433324D01*
X97355432Y-94432858D01*
X97355987Y-94431565D01*
X97356043Y-94431490D01*
X97356068Y-94431403D01*
X97361547Y-94420616D01*
X97361552Y-94420611D01*
X97361554Y-94420603D01*
X97362760Y-94418230D01*
X97363030Y-94417514D01*
X97366442Y-94409964D01*
X97366857Y-94409186D01*
X97367633Y-94407258D01*
X97369700Y-94402633D01*
X97369907Y-94401985D01*
X97374799Y-94389435D01*
X97374801Y-94389433D01*
X97374801Y-94389430D01*
X97376172Y-94385915D01*
X97377830Y-94380629D01*
X97378269Y-94379337D01*
X97378404Y-94378795D01*
X97381037Y-94370395D01*
X97381280Y-94370471D01*
X97385273Y-94355682D01*
X97388048Y-94343505D01*
X97388275Y-94343556D01*
X97391213Y-94327761D01*
X97392930Y-94315917D01*
X97393234Y-94315961D01*
X97394089Y-94305463D01*
X97394090Y-94305461D01*
X97394089Y-94305458D01*
X97394875Y-94295820D01*
X97395181Y-94293768D01*
X97395728Y-94280334D01*
X97395898Y-94278733D01*
X97395891Y-94276280D01*
X97395893Y-94276271D01*
X97395891Y-94276261D01*
X97395861Y-94264996D01*
X97395956Y-94263473D01*
X97395841Y-94261018D01*
X97395842Y-94261015D01*
X97395841Y-94261011D01*
X97395335Y-94250153D01*
X97395366Y-94248492D01*
X97395146Y-94246052D01*
X97395147Y-94246048D01*
X97395145Y-94246043D01*
X97394038Y-94233722D01*
X97394009Y-94232608D01*
X97392678Y-94222875D01*
X97392105Y-94214468D01*
X97392073Y-93942352D01*
X97392065Y-93878245D01*
X97392614Y-93870003D01*
X97393728Y-93861677D01*
X97393730Y-93861673D01*
X97393729Y-93861668D01*
X97394059Y-93859210D01*
X97394093Y-93857775D01*
X97395329Y-93843881D01*
X97395300Y-93842482D01*
X97395811Y-93830883D01*
X97395813Y-93830879D01*
X97395812Y-93830873D01*
X97395921Y-93828412D01*
X97395821Y-93826867D01*
X97395823Y-93815652D01*
X97395824Y-93815649D01*
X97395823Y-93815645D01*
X97395824Y-93813220D01*
X97395624Y-93811367D01*
X97395193Y-93801050D01*
X97395194Y-93801047D01*
X97395193Y-93801043D01*
X97395093Y-93798639D01*
X97394802Y-93796707D01*
X97393765Y-93784241D01*
X97393411Y-93782414D01*
X97392117Y-93772134D01*
X97392118Y-93772128D01*
X97392116Y-93772122D01*
X97391819Y-93769760D01*
X97391308Y-93767596D01*
X97389393Y-93756075D01*
X97388832Y-93754067D01*
X97386364Y-93742221D01*
X97385646Y-93739996D01*
X97382910Y-93729022D01*
X97382148Y-93726945D01*
X97378247Y-93713593D01*
X97377990Y-93712887D01*
X97376694Y-93708281D01*
X97376652Y-93708139D01*
X97374507Y-93702673D01*
X97374506Y-93702665D01*
X97374501Y-93702657D01*
X97373956Y-93701267D01*
X97369394Y-93689633D01*
X97369253Y-93689195D01*
X97368174Y-93686801D01*
X97368174Y-93686798D01*
X97368172Y-93686795D01*
X97362579Y-93674377D01*
X97362370Y-93673822D01*
X97357100Y-93663501D01*
X97355523Y-93660167D01*
X97353737Y-93657043D01*
X97353737Y-93657041D01*
X97353735Y-93657039D01*
X97350871Y-93652027D01*
X97348498Y-93647493D01*
X97343923Y-93640273D01*
X97340982Y-93635173D01*
X97337558Y-93630264D01*
X97337556Y-93630260D01*
X97337552Y-93630256D01*
X97330892Y-93620708D01*
X97330187Y-93619543D01*
X97329277Y-93618355D01*
X97327904Y-93616469D01*
X97327306Y-93615783D01*
X97321839Y-93608652D01*
X97320978Y-93607363D01*
X97320825Y-93607180D01*
X97318863Y-93604716D01*
X97318814Y-93604652D01*
X97317530Y-93603288D01*
X97312263Y-93596901D01*
X97311558Y-93595929D01*
X97309801Y-93593902D01*
X97309483Y-93593515D01*
X97304588Y-93588210D01*
X97295809Y-93578468D01*
X97293134Y-93576184D01*
X97285937Y-93568879D01*
X97281662Y-93565217D01*
X97275157Y-93559181D01*
X97271545Y-93556335D01*
X97266185Y-93551807D01*
X97266183Y-93551804D01*
X97266179Y-93551801D01*
X97264211Y-93550139D01*
X97263571Y-93549710D01*
X97250989Y-93540071D01*
X97250558Y-93539812D01*
X97236952Y-93530418D01*
X97236522Y-93530187D01*
X97220431Y-93520214D01*
X97217174Y-93518562D01*
X97216421Y-93518149D01*
X97215958Y-93517946D01*
X97211720Y-93515795D01*
X97211719Y-93515795D01*
X97211717Y-93515794D01*
X97203872Y-93511814D01*
X97201842Y-93510604D01*
X97190798Y-93505527D01*
X97188988Y-93504543D01*
X97177945Y-93500004D01*
X97176016Y-93499055D01*
X97164699Y-93494926D01*
X97162786Y-93494079D01*
X97151068Y-93490334D01*
X97149212Y-93489601D01*
X97136543Y-93486117D01*
X97134920Y-93485553D01*
X97122753Y-93482761D01*
X97120880Y-93482197D01*
X97106941Y-93479599D01*
X97105651Y-93479271D01*
X97091675Y-93477311D01*
X97090319Y-93477030D01*
X97076178Y-93475687D01*
X97074845Y-93475472D01*
X97064286Y-93474945D01*
X97056032Y-93473975D01*
X96985412Y-93460833D01*
X96923105Y-93429216D01*
X96887782Y-93368933D01*
X96890659Y-93299123D01*
X96905854Y-93268767D01*
X96946584Y-93209419D01*
X96951735Y-93202900D01*
X96957092Y-93196981D01*
X96957097Y-93196978D01*
X96957100Y-93196972D01*
X96958781Y-93195116D01*
X96959508Y-93194111D01*
X96967152Y-93184851D01*
X96967156Y-93184848D01*
X96967158Y-93184843D01*
X96968744Y-93182923D01*
X96969484Y-93181795D01*
X96976542Y-93172417D01*
X96976546Y-93172415D01*
X96976547Y-93172411D01*
X96978010Y-93170469D01*
X96978929Y-93168926D01*
X96984892Y-93160262D01*
X96984898Y-93160257D01*
X96984900Y-93160250D01*
X96986287Y-93158237D01*
X96987080Y-93156766D01*
X96992854Y-93147548D01*
X96992860Y-93147543D01*
X96992862Y-93147535D01*
X96994149Y-93145483D01*
X96994948Y-93143837D01*
X97005085Y-93126035D01*
X97004821Y-93125906D01*
X97009960Y-93115438D01*
X97016626Y-93100356D01*
X97016422Y-93100276D01*
X97020404Y-93090184D01*
X97020406Y-93090182D01*
X97020406Y-93090179D01*
X97021145Y-93088308D01*
X97026029Y-93074345D01*
X97025765Y-93074265D01*
X97028941Y-93063879D01*
X97028944Y-93063875D01*
X97028944Y-93063870D01*
X97030572Y-93058550D01*
X97031455Y-93054736D01*
X97031458Y-93054731D01*
X97031458Y-93054725D01*
X97034489Y-93041647D01*
X97034688Y-93040979D01*
X97035146Y-93038446D01*
X97035150Y-93038437D01*
X97035150Y-93038427D01*
X97035569Y-93036113D01*
X97037095Y-93029233D01*
X97038062Y-93021865D01*
X97038064Y-93021861D01*
X97038063Y-93021856D01*
X97039691Y-93009464D01*
X97039702Y-93009431D01*
X97039700Y-93009392D01*
X97039747Y-93009039D01*
X97039980Y-93007850D01*
X97040024Y-93007456D01*
X97040043Y-93006668D01*
X97040130Y-93005615D01*
X97040132Y-93005611D01*
X97040131Y-93005606D01*
X97041138Y-92993537D01*
X97041313Y-92992359D01*
X97041406Y-92989860D01*
X97041408Y-92989853D01*
X97041407Y-92989845D01*
X97041524Y-92986718D01*
X97041829Y-92981465D01*
X97041831Y-92981458D01*
X97041830Y-92981450D01*
X97041999Y-92978544D01*
X97041964Y-92974108D01*
X97041965Y-92974103D01*
X97041964Y-92974097D01*
X97041872Y-92962390D01*
X97041948Y-92961066D01*
X97041859Y-92959362D01*
X97041775Y-92956417D01*
X97041748Y-92951147D01*
X97041197Y-92945336D01*
X97040988Y-92942375D01*
X97040833Y-92941407D01*
X97040023Y-92933044D01*
X97039970Y-92931299D01*
X97039622Y-92928219D01*
X97039590Y-92927861D01*
X97039307Y-92926439D01*
X97038132Y-92917581D01*
X97038067Y-92916649D01*
X97037709Y-92914368D01*
X97037474Y-92912598D01*
X97037122Y-92911162D01*
X97034355Y-92895598D01*
X97033665Y-92892801D01*
X97033665Y-92892794D01*
X97033662Y-92892787D01*
X97032343Y-92887437D01*
X97031773Y-92884894D01*
X97031773Y-92884888D01*
X97031770Y-92884882D01*
X97031219Y-92882420D01*
X97030842Y-92881320D01*
X97027259Y-92868180D01*
X97027101Y-92867431D01*
X97027093Y-92867403D01*
X97026616Y-92866199D01*
X97026447Y-92865678D01*
X97026435Y-92865597D01*
X97026399Y-92865531D01*
X97022617Y-92853876D01*
X97022617Y-92853874D01*
X97022615Y-92853871D01*
X97020307Y-92846757D01*
X97017498Y-92840137D01*
X97016779Y-92838239D01*
X97016779Y-92838236D01*
X97016777Y-92838233D01*
X97015851Y-92835786D01*
X97015661Y-92835415D01*
X97008506Y-92819039D01*
X97005969Y-92814171D01*
X97005968Y-92814167D01*
X97005964Y-92814162D01*
X97000950Y-92804540D01*
X97001178Y-92804420D01*
X96993554Y-92791109D01*
X96986933Y-92780545D01*
X96987126Y-92780423D01*
X96977990Y-92767068D01*
X96977376Y-92766244D01*
X96977375Y-92766241D01*
X96977372Y-92766238D01*
X96970896Y-92757541D01*
X96971139Y-92757359D01*
X96957866Y-92741666D01*
X96956740Y-92740140D01*
X96955103Y-92738361D01*
X96955102Y-92738359D01*
X96955100Y-92738357D01*
X96948181Y-92730837D01*
X96946991Y-92729357D01*
X96937152Y-92719520D01*
X96936193Y-92718428D01*
X96925952Y-92709059D01*
X96924933Y-92707997D01*
X96914229Y-92699040D01*
X96913196Y-92698055D01*
X96904453Y-92691376D01*
X96898247Y-92685945D01*
X96874486Y-92662188D01*
X96840997Y-92600867D01*
X96845976Y-92531175D01*
X96887843Y-92475238D01*
X96953306Y-92450817D01*
X96962161Y-92450500D01*
X99077100Y-92450500D01*
X99144139Y-92470185D01*
X99189894Y-92522989D01*
X99199838Y-92592147D01*
X99170813Y-92655703D01*
X99136527Y-92683332D01*
X98959052Y-92780240D01*
X98959044Y-92780245D01*
X98739134Y-92944867D01*
X98739116Y-92944883D01*
X98544884Y-93139115D01*
X98544868Y-93139133D01*
X98380246Y-93359043D01*
X98380241Y-93359051D01*
X98248591Y-93600149D01*
X98201299Y-93726945D01*
X98152586Y-93857549D01*
X98152585Y-93857552D01*
X98152584Y-93857556D01*
X98094193Y-94125977D01*
X98094192Y-94125984D01*
X98074594Y-94399997D01*
X98074594Y-94400000D01*
X98094192Y-94674013D01*
X98094193Y-94674020D01*
X98152584Y-94942441D01*
X98152586Y-94942449D01*
X98216705Y-95114357D01*
X98248591Y-95199848D01*
X98380241Y-95440946D01*
X98380246Y-95440954D01*
X98544868Y-95660864D01*
X98544884Y-95660882D01*
X98739116Y-95855114D01*
X98739134Y-95855130D01*
X98959044Y-96019752D01*
X98959052Y-96019757D01*
X99200151Y-96151407D01*
X99200150Y-96151407D01*
X99200154Y-96151408D01*
X99200157Y-96151410D01*
X99457550Y-96247413D01*
X99725986Y-96305807D01*
X99980401Y-96324003D01*
X99999999Y-96325405D01*
X100000000Y-96325405D01*
X100000001Y-96325405D01*
X100018290Y-96324096D01*
X100274014Y-96305807D01*
X100542450Y-96247413D01*
X100799843Y-96151410D01*
X100799847Y-96151407D01*
X100799849Y-96151407D01*
X100939155Y-96075340D01*
X101040953Y-96019754D01*
X101260873Y-95855124D01*
X101455125Y-95660872D01*
X101619755Y-95440952D01*
X101711239Y-95273411D01*
X101751408Y-95199848D01*
X101751408Y-95199846D01*
X101751411Y-95199842D01*
X101847414Y-94942449D01*
X101905808Y-94674013D01*
X101925406Y-94399999D01*
X101925101Y-94395741D01*
X101920870Y-94336581D01*
X101905808Y-94125985D01*
X101847414Y-93857549D01*
X101751411Y-93600156D01*
X101751409Y-93600153D01*
X101751408Y-93600149D01*
X101619758Y-93359051D01*
X101619753Y-93359043D01*
X101455131Y-93139133D01*
X101455115Y-93139115D01*
X101260883Y-92944883D01*
X101260865Y-92944867D01*
X101040955Y-92780245D01*
X101040947Y-92780240D01*
X100863473Y-92683332D01*
X100814068Y-92633927D01*
X100799216Y-92565654D01*
X100823633Y-92500190D01*
X100879567Y-92458318D01*
X100922900Y-92450500D01*
X108990691Y-92450500D01*
X109047786Y-92450500D01*
X109052208Y-92450657D01*
X109290140Y-92467674D01*
X109307641Y-92470191D01*
X109534229Y-92519482D01*
X109551188Y-92524461D01*
X109688672Y-92575740D01*
X109768462Y-92605501D01*
X109784555Y-92612851D01*
X109933156Y-92693993D01*
X109987734Y-92723795D01*
X109988068Y-92723977D01*
X110002951Y-92733542D01*
X110154489Y-92846982D01*
X110188579Y-92872501D01*
X110201950Y-92884087D01*
X110365912Y-93048049D01*
X110377498Y-93061420D01*
X110516457Y-93247048D01*
X110526022Y-93261931D01*
X110637148Y-93465444D01*
X110644498Y-93481537D01*
X110725535Y-93698803D01*
X110730519Y-93715779D01*
X110779807Y-93942352D01*
X110782325Y-93959864D01*
X110790260Y-94070803D01*
X110799016Y-94193238D01*
X110799342Y-94197789D01*
X110799500Y-94202213D01*
X110799500Y-96180499D01*
X110779815Y-96247538D01*
X110727011Y-96293293D01*
X110675500Y-96304499D01*
X109022445Y-96304499D01*
X108975770Y-96310643D01*
X108873332Y-96358411D01*
X108793412Y-96438331D01*
X108745644Y-96540769D01*
X108739500Y-96587444D01*
X108739500Y-98362553D01*
X108745644Y-98409228D01*
X108756248Y-98431968D01*
X108793412Y-98511666D01*
X108873333Y-98591587D01*
X108975769Y-98639354D01*
X109022445Y-98645499D01*
X109541531Y-98645499D01*
X109608570Y-98665184D01*
X109654325Y-98717988D01*
X109664269Y-98787146D01*
X109635244Y-98850702D01*
X109586325Y-98885126D01*
X109386030Y-98962719D01*
X109386029Y-98962720D01*
X109201592Y-99076919D01*
X109124567Y-99147137D01*
X109061763Y-99177754D01*
X109041029Y-99179500D01*
X107732013Y-99179500D01*
X107664974Y-99159815D01*
X107657088Y-99154304D01*
X107644871Y-99145039D01*
X107644867Y-99145037D01*
X107505369Y-99090027D01*
X107505368Y-99090026D01*
X107417711Y-99079500D01*
X107417710Y-99079500D01*
X106882290Y-99079500D01*
X106882289Y-99079500D01*
X106794631Y-99090026D01*
X106794630Y-99090027D01*
X106655130Y-99145038D01*
X106655128Y-99145039D01*
X106535647Y-99235647D01*
X106445039Y-99355128D01*
X106445038Y-99355130D01*
X106390027Y-99494630D01*
X106390026Y-99494631D01*
X106379500Y-99582289D01*
X106379500Y-100417710D01*
X106390026Y-100505368D01*
X106390027Y-100505369D01*
X106445038Y-100644869D01*
X106445039Y-100644871D01*
X106462769Y-100668251D01*
X106535647Y-100764353D01*
X106655131Y-100854962D01*
X106794631Y-100909973D01*
X106882289Y-100920500D01*
X106882290Y-100920500D01*
X107417711Y-100920500D01*
X107461539Y-100915236D01*
X107505369Y-100909973D01*
X107644869Y-100854962D01*
X107657087Y-100845696D01*
X107722399Y-100820873D01*
X107732013Y-100820500D01*
X109008123Y-100820500D01*
X109075162Y-100840185D01*
X109091661Y-100852863D01*
X109093964Y-100854962D01*
X109201594Y-100953080D01*
X109386028Y-101067277D01*
X109588305Y-101145639D01*
X109681770Y-101163110D01*
X109744050Y-101194778D01*
X109779323Y-101255091D01*
X109776389Y-101324899D01*
X109736180Y-101382039D01*
X109681770Y-101406887D01*
X109588305Y-101424359D01*
X109588302Y-101424359D01*
X109588302Y-101424360D01*
X109386030Y-101502720D01*
X109386029Y-101502720D01*
X109201592Y-101616919D01*
X109041285Y-101763057D01*
X108910557Y-101936169D01*
X108813869Y-102130343D01*
X108813864Y-102130356D01*
X108754499Y-102338999D01*
X108734484Y-102554998D01*
X108734484Y-102554999D01*
X108754499Y-102770998D01*
X108813864Y-102979641D01*
X108813869Y-102979654D01*
X108910557Y-103173828D01*
X109041285Y-103346940D01*
X109179194Y-103472660D01*
X109201594Y-103493080D01*
X109386028Y-103607277D01*
X109588305Y-103685639D01*
X109801537Y-103725499D01*
X109801539Y-103725499D01*
X110018461Y-103725499D01*
X110018463Y-103725499D01*
X110231695Y-103685639D01*
X110433972Y-103607277D01*
X110610223Y-103498146D01*
X110677582Y-103479591D01*
X110744281Y-103500399D01*
X110789143Y-103553964D01*
X110799499Y-103603574D01*
X110799498Y-105792044D01*
X110799500Y-105792054D01*
X110799500Y-105797786D01*
X110799342Y-105802210D01*
X110782325Y-106040135D01*
X110779807Y-106057647D01*
X110730519Y-106284220D01*
X110725535Y-106301196D01*
X110644498Y-106518462D01*
X110637148Y-106534555D01*
X110526022Y-106738068D01*
X110516457Y-106752951D01*
X110377498Y-106938579D01*
X110365912Y-106951950D01*
X110201950Y-107115912D01*
X110188579Y-107127498D01*
X110002951Y-107266457D01*
X109988068Y-107276022D01*
X109784555Y-107387148D01*
X109768462Y-107394498D01*
X109551196Y-107475535D01*
X109534220Y-107480519D01*
X109307647Y-107529807D01*
X109290135Y-107532325D01*
X109073672Y-107547806D01*
X109052208Y-107549342D01*
X109047786Y-107549500D01*
X100922896Y-107549500D01*
X100855857Y-107529815D01*
X100810102Y-107477011D01*
X100800158Y-107407853D01*
X100829183Y-107344297D01*
X100863469Y-107316668D01*
X100970433Y-107258260D01*
X101040953Y-107219754D01*
X101260873Y-107055124D01*
X101455125Y-106860872D01*
X101619755Y-106640952D01*
X101751411Y-106399842D01*
X101847414Y-106142449D01*
X101905808Y-105874013D01*
X101925406Y-105599999D01*
X101905808Y-105325985D01*
X101847414Y-105057549D01*
X101751411Y-104800156D01*
X101751409Y-104800153D01*
X101751408Y-104800149D01*
X101619758Y-104559051D01*
X101619753Y-104559043D01*
X101455131Y-104339133D01*
X101455115Y-104339115D01*
X101260883Y-104144883D01*
X101260865Y-104144867D01*
X101040955Y-103980245D01*
X101040947Y-103980240D01*
X100799848Y-103848590D01*
X100799849Y-103848590D01*
X100684065Y-103805405D01*
X100542450Y-103752585D01*
X100542443Y-103752583D01*
X100542442Y-103752583D01*
X100274021Y-103694192D01*
X100274014Y-103694191D01*
X100000001Y-103674593D01*
X99999999Y-103674593D01*
X99725985Y-103694191D01*
X99725978Y-103694192D01*
X99457557Y-103752583D01*
X99457553Y-103752584D01*
X99457550Y-103752585D01*
X99328853Y-103800586D01*
X99200150Y-103848590D01*
X98959052Y-103980240D01*
X98959044Y-103980245D01*
X98739134Y-104144867D01*
X98739116Y-104144883D01*
X98544884Y-104339115D01*
X98544868Y-104339133D01*
X98380246Y-104559043D01*
X98380241Y-104559051D01*
X98248591Y-104800149D01*
X98200587Y-104928852D01*
X98152586Y-105057549D01*
X98152585Y-105057552D01*
X98152584Y-105057556D01*
X98094193Y-105325977D01*
X98094192Y-105325984D01*
X98074594Y-105599997D01*
X98074594Y-105600000D01*
X98094192Y-105874013D01*
X98094193Y-105874020D01*
X98152584Y-106142441D01*
X98152586Y-106142449D01*
X98205464Y-106284220D01*
X98248591Y-106399848D01*
X98380241Y-106640946D01*
X98380246Y-106640954D01*
X98544868Y-106860864D01*
X98544884Y-106860882D01*
X98739116Y-107055114D01*
X98739134Y-107055130D01*
X98959044Y-107219752D01*
X98959052Y-107219757D01*
X99136531Y-107316668D01*
X99185936Y-107366073D01*
X99200788Y-107434346D01*
X99176371Y-107499810D01*
X99120438Y-107541682D01*
X99077104Y-107549500D01*
X90452214Y-107549500D01*
X90447791Y-107549342D01*
X90423680Y-107547617D01*
X90209864Y-107532325D01*
X90192352Y-107529807D01*
X89965779Y-107480519D01*
X89948803Y-107475535D01*
X89731537Y-107394498D01*
X89715444Y-107387148D01*
X89511931Y-107276022D01*
X89497048Y-107266457D01*
X89311420Y-107127498D01*
X89298049Y-107115912D01*
X89134087Y-106951950D01*
X89122501Y-106938579D01*
X88983542Y-106752951D01*
X88973977Y-106738068D01*
X88862851Y-106534555D01*
X88855501Y-106518462D01*
X88811260Y-106399848D01*
X88774461Y-106301188D01*
X88769482Y-106284229D01*
X88720191Y-106057641D01*
X88717674Y-106040135D01*
X88711145Y-105948849D01*
X88700657Y-105802208D01*
X88700500Y-105797786D01*
X88700500Y-103603574D01*
X88720185Y-103536535D01*
X88772989Y-103490780D01*
X88842147Y-103480836D01*
X88889776Y-103498146D01*
X89066028Y-103607277D01*
X89268305Y-103685639D01*
X89481537Y-103725499D01*
X89481539Y-103725499D01*
X89698461Y-103725499D01*
X89698463Y-103725499D01*
X89911695Y-103685639D01*
X90113972Y-103607277D01*
X90298406Y-103493080D01*
X90458716Y-103346938D01*
X90589443Y-103173828D01*
X90686135Y-102979644D01*
X90745500Y-102770999D01*
X90765515Y-102554999D01*
X90760419Y-102500000D01*
X91174456Y-102500000D01*
X91194593Y-102730171D01*
X91194595Y-102730182D01*
X91254393Y-102953354D01*
X91254395Y-102953358D01*
X91254396Y-102953362D01*
X91352044Y-103162771D01*
X91352045Y-103162771D01*
X91352047Y-103162775D01*
X91484570Y-103352037D01*
X91484575Y-103352043D01*
X91647955Y-103515423D01*
X91647961Y-103515428D01*
X91837223Y-103647951D01*
X91837225Y-103647952D01*
X91837228Y-103647954D01*
X92046637Y-103745603D01*
X92269822Y-103805405D01*
X92434234Y-103819789D01*
X92499998Y-103825543D01*
X92500000Y-103825543D01*
X92500002Y-103825543D01*
X92557544Y-103820508D01*
X92730178Y-103805405D01*
X92953363Y-103745603D01*
X93162772Y-103647954D01*
X93352043Y-103515425D01*
X93515426Y-103352042D01*
X93647955Y-103162771D01*
X93745604Y-102953362D01*
X93805406Y-102730177D01*
X93825544Y-102500000D01*
X105674456Y-102500000D01*
X105694593Y-102730171D01*
X105694595Y-102730182D01*
X105754393Y-102953354D01*
X105754395Y-102953358D01*
X105754396Y-102953362D01*
X105852045Y-103162770D01*
X105852045Y-103162771D01*
X105852047Y-103162775D01*
X105984570Y-103352037D01*
X105984575Y-103352043D01*
X106147955Y-103515423D01*
X106147961Y-103515428D01*
X106337223Y-103647951D01*
X106337225Y-103647952D01*
X106337228Y-103647954D01*
X106546637Y-103745603D01*
X106769822Y-103805405D01*
X106934234Y-103819789D01*
X106999998Y-103825543D01*
X107000000Y-103825543D01*
X107000002Y-103825543D01*
X107057544Y-103820508D01*
X107230178Y-103805405D01*
X107453363Y-103745603D01*
X107662772Y-103647954D01*
X107852043Y-103515425D01*
X108015426Y-103352042D01*
X108147955Y-103162771D01*
X108245604Y-102953362D01*
X108305406Y-102730177D01*
X108325544Y-102499999D01*
X108305406Y-102269821D01*
X108245604Y-102046636D01*
X108147955Y-101837227D01*
X108147953Y-101837224D01*
X108147952Y-101837222D01*
X108015429Y-101647960D01*
X108015424Y-101647954D01*
X107852044Y-101484574D01*
X107852038Y-101484569D01*
X107662776Y-101352046D01*
X107662772Y-101352044D01*
X107662771Y-101352043D01*
X107453363Y-101254395D01*
X107453359Y-101254394D01*
X107453355Y-101254392D01*
X107230183Y-101194594D01*
X107230179Y-101194593D01*
X107230178Y-101194593D01*
X107230177Y-101194592D01*
X107230172Y-101194592D01*
X107000002Y-101174455D01*
X106999998Y-101174455D01*
X106769827Y-101194592D01*
X106769816Y-101194594D01*
X106546644Y-101254392D01*
X106546637Y-101254394D01*
X106546637Y-101254395D01*
X106520194Y-101266725D01*
X106337227Y-101352044D01*
X106337223Y-101352046D01*
X106147961Y-101484569D01*
X106147955Y-101484574D01*
X105984575Y-101647954D01*
X105984570Y-101647960D01*
X105852047Y-101837222D01*
X105852045Y-101837226D01*
X105754397Y-102046634D01*
X105754393Y-102046643D01*
X105694595Y-102269815D01*
X105694593Y-102269826D01*
X105674456Y-102499997D01*
X105674456Y-102500000D01*
X93825544Y-102500000D01*
X93825544Y-102499999D01*
X93805406Y-102269821D01*
X93745604Y-102046636D01*
X93647955Y-101837227D01*
X93647953Y-101837224D01*
X93647952Y-101837222D01*
X93515429Y-101647960D01*
X93515424Y-101647954D01*
X93352044Y-101484574D01*
X93352038Y-101484569D01*
X93162776Y-101352046D01*
X93162772Y-101352044D01*
X92953363Y-101254395D01*
X92953359Y-101254394D01*
X92953355Y-101254392D01*
X92730183Y-101194594D01*
X92730179Y-101194593D01*
X92730178Y-101194593D01*
X92730177Y-101194592D01*
X92730172Y-101194592D01*
X92500002Y-101174455D01*
X92499998Y-101174455D01*
X92269827Y-101194592D01*
X92269816Y-101194594D01*
X92046644Y-101254392D01*
X92046637Y-101254394D01*
X92046637Y-101254395D01*
X92020194Y-101266725D01*
X91837227Y-101352044D01*
X91837223Y-101352046D01*
X91647961Y-101484569D01*
X91647955Y-101484574D01*
X91484575Y-101647954D01*
X91484570Y-101647960D01*
X91352047Y-101837222D01*
X91352045Y-101837226D01*
X91254397Y-102046634D01*
X91254393Y-102046643D01*
X91194595Y-102269815D01*
X91194593Y-102269826D01*
X91174456Y-102499997D01*
X91174456Y-102500000D01*
X90760419Y-102500000D01*
X90745500Y-102338999D01*
X90686135Y-102130354D01*
X90659348Y-102076559D01*
X90639006Y-102035706D01*
X90589443Y-101936170D01*
X90526725Y-101853118D01*
X90458714Y-101763057D01*
X90298407Y-101616919D01*
X90298406Y-101616918D01*
X90113972Y-101502721D01*
X89911695Y-101424359D01*
X89698463Y-101384499D01*
X89481537Y-101384499D01*
X89268305Y-101424359D01*
X89268302Y-101424359D01*
X89268302Y-101424360D01*
X89066030Y-101502720D01*
X89066024Y-101502722D01*
X88889777Y-101611850D01*
X88822416Y-101630405D01*
X88755717Y-101609597D01*
X88710856Y-101556032D01*
X88700500Y-101506423D01*
X88700500Y-100075372D01*
X97745723Y-100075372D01*
X97775881Y-100375159D01*
X97775882Y-100375161D01*
X97845728Y-100668251D01*
X97845733Y-100668265D01*
X97954020Y-100949426D01*
X97954024Y-100949435D01*
X98098825Y-101213664D01*
X98098829Y-101213670D01*
X98224697Y-101384499D01*
X98277554Y-101456237D01*
X98428051Y-101611850D01*
X98487019Y-101672822D01*
X98723478Y-101859552D01*
X98723480Y-101859553D01*
X98723485Y-101859557D01*
X98982730Y-102013108D01*
X99260128Y-102130735D01*
X99550729Y-102210339D01*
X99849347Y-102250499D01*
X99849351Y-102250499D01*
X100075252Y-102250499D01*
X100239164Y-102239525D01*
X100300634Y-102235411D01*
X100595903Y-102175395D01*
X100880537Y-102076559D01*
X101149459Y-101940667D01*
X101397869Y-101770143D01*
X101621333Y-101568031D01*
X101815865Y-101337938D01*
X101977993Y-101083969D01*
X102104823Y-100810657D01*
X102194093Y-100522878D01*
X102211833Y-100417710D01*
X103079500Y-100417710D01*
X103090026Y-100505368D01*
X103090027Y-100505369D01*
X103145038Y-100644869D01*
X103145039Y-100644871D01*
X103162769Y-100668251D01*
X103235647Y-100764353D01*
X103355131Y-100854962D01*
X103494631Y-100909973D01*
X103582289Y-100920500D01*
X103582290Y-100920500D01*
X104117711Y-100920500D01*
X104161539Y-100915236D01*
X104205369Y-100909973D01*
X104344869Y-100854962D01*
X104464353Y-100764353D01*
X104554962Y-100644869D01*
X104609973Y-100505369D01*
X104620500Y-100417710D01*
X104620500Y-100299801D01*
X104640185Y-100232763D01*
X104656814Y-100212126D01*
X106196559Y-98672380D01*
X106257880Y-98638897D01*
X106327572Y-98643881D01*
X106336643Y-98647681D01*
X106337227Y-98647953D01*
X106337228Y-98647954D01*
X106546637Y-98745603D01*
X106769822Y-98805405D01*
X106934234Y-98819789D01*
X106999998Y-98825543D01*
X107000000Y-98825543D01*
X107000002Y-98825543D01*
X107057653Y-98820499D01*
X107230178Y-98805405D01*
X107453363Y-98745603D01*
X107662772Y-98647954D01*
X107852043Y-98515425D01*
X108015426Y-98352042D01*
X108147955Y-98162771D01*
X108245604Y-97953362D01*
X108305406Y-97730177D01*
X108325544Y-97499999D01*
X108305406Y-97269821D01*
X108245604Y-97046636D01*
X108147955Y-96837227D01*
X108147953Y-96837224D01*
X108147952Y-96837222D01*
X108015429Y-96647960D01*
X108015424Y-96647954D01*
X107852044Y-96484574D01*
X107852038Y-96484569D01*
X107662776Y-96352046D01*
X107662772Y-96352044D01*
X107600607Y-96323056D01*
X107453363Y-96254395D01*
X107453359Y-96254394D01*
X107453355Y-96254392D01*
X107230183Y-96194594D01*
X107230179Y-96194593D01*
X107230178Y-96194593D01*
X107230177Y-96194592D01*
X107230172Y-96194592D01*
X107000002Y-96174455D01*
X106999998Y-96174455D01*
X106769827Y-96194592D01*
X106769816Y-96194594D01*
X106546644Y-96254392D01*
X106546635Y-96254396D01*
X106421888Y-96312565D01*
X106352811Y-96323056D01*
X106289027Y-96294535D01*
X106281804Y-96287863D01*
X105939170Y-95945229D01*
X105586760Y-95592819D01*
X105553277Y-95531499D01*
X105550444Y-95505150D01*
X105550444Y-95000000D01*
X105545500Y-94943487D01*
X105506843Y-94837278D01*
X105470191Y-94793598D01*
X105434193Y-94750697D01*
X105434192Y-94750696D01*
X105434191Y-94750695D01*
X105434188Y-94750693D01*
X105434185Y-94750691D01*
X105336311Y-94694184D01*
X105336309Y-94694183D01*
X105225000Y-94674556D01*
X104075000Y-94674556D01*
X104054054Y-94675231D01*
X104054050Y-94675231D01*
X103944241Y-94701979D01*
X103850197Y-94764675D01*
X103783269Y-94855753D01*
X103751528Y-94964230D01*
X103751528Y-94964235D01*
X103758801Y-95077022D01*
X103782771Y-95131652D01*
X103804214Y-95180524D01*
X103951405Y-95401311D01*
X104138008Y-95681216D01*
X104158816Y-95747916D01*
X104140261Y-95815276D01*
X104138008Y-95818782D01*
X103804214Y-96319476D01*
X103793157Y-96337276D01*
X103756376Y-96438332D01*
X103754500Y-96443487D01*
X103754500Y-96556513D01*
X103793157Y-96662722D01*
X103865809Y-96749305D01*
X103865813Y-96749307D01*
X103865814Y-96749308D01*
X103963688Y-96805815D01*
X103963690Y-96805816D01*
X103963692Y-96805817D01*
X104075000Y-96825444D01*
X104730141Y-96825444D01*
X104797180Y-96845129D01*
X104817822Y-96861763D01*
X105305879Y-97349820D01*
X105339363Y-97411141D01*
X105334379Y-97480832D01*
X105305878Y-97525180D01*
X103787878Y-99043181D01*
X103726555Y-99076666D01*
X103700197Y-99079500D01*
X103582289Y-99079500D01*
X103494631Y-99090026D01*
X103494630Y-99090027D01*
X103355130Y-99145038D01*
X103355128Y-99145039D01*
X103235647Y-99235647D01*
X103145039Y-99355128D01*
X103145038Y-99355130D01*
X103090027Y-99494630D01*
X103090026Y-99494631D01*
X103079500Y-99582289D01*
X103079500Y-100417710D01*
X102211833Y-100417710D01*
X102244209Y-100225769D01*
X102254277Y-99924630D01*
X102224118Y-99624837D01*
X102154269Y-99331738D01*
X102045977Y-99050565D01*
X101901175Y-98786334D01*
X101722446Y-98543761D01*
X101512980Y-98327175D01*
X101389742Y-98229855D01*
X101276521Y-98140445D01*
X101276517Y-98140442D01*
X101276515Y-98140441D01*
X101017270Y-97986890D01*
X100739872Y-97869263D01*
X100739863Y-97869260D01*
X100449272Y-97789659D01*
X100374616Y-97779619D01*
X100150653Y-97749499D01*
X99924756Y-97749499D01*
X99924748Y-97749499D01*
X99699368Y-97764586D01*
X99699359Y-97764588D01*
X99404094Y-97824603D01*
X99119464Y-97923438D01*
X99119459Y-97923440D01*
X98850546Y-98059327D01*
X98602125Y-98229859D01*
X98378665Y-98431968D01*
X98184132Y-98662063D01*
X98022006Y-98916029D01*
X98022005Y-98916031D01*
X97895181Y-99189332D01*
X97895177Y-99189341D01*
X97895176Y-99189345D01*
X97805907Y-99477117D01*
X97755791Y-99774229D01*
X97745723Y-100075372D01*
X88700500Y-100075372D01*
X88700500Y-98769499D01*
X88720185Y-98702460D01*
X88772989Y-98656705D01*
X88824500Y-98645499D01*
X90477555Y-98645499D01*
X90493112Y-98643450D01*
X90524231Y-98639354D01*
X90626667Y-98591587D01*
X90680701Y-98537553D01*
X91179500Y-98537553D01*
X91185644Y-98584228D01*
X91185645Y-98584230D01*
X91233412Y-98686666D01*
X91313333Y-98766587D01*
X91415769Y-98814354D01*
X91462445Y-98820499D01*
X91462446Y-98820499D01*
X93537555Y-98820499D01*
X93553112Y-98818450D01*
X93584231Y-98814354D01*
X93686667Y-98766587D01*
X93766588Y-98686666D01*
X93814355Y-98584230D01*
X93820500Y-98537553D01*
X93820500Y-96462445D01*
X93814355Y-96415768D01*
X93766588Y-96313332D01*
X93686667Y-96233411D01*
X93584231Y-96185644D01*
X93584229Y-96185643D01*
X93584230Y-96185643D01*
X93537555Y-96179499D01*
X93537554Y-96179499D01*
X91462446Y-96179499D01*
X91462445Y-96179499D01*
X91415770Y-96185643D01*
X91313332Y-96233411D01*
X91233412Y-96313331D01*
X91185644Y-96415769D01*
X91179500Y-96462444D01*
X91179500Y-98537553D01*
X90680701Y-98537553D01*
X90706588Y-98511666D01*
X90754355Y-98409230D01*
X90760500Y-98362553D01*
X90760500Y-96587445D01*
X90754355Y-96540768D01*
X90706588Y-96438332D01*
X90626667Y-96358411D01*
X90524231Y-96310644D01*
X90524229Y-96310643D01*
X90524230Y-96310643D01*
X90477555Y-96304499D01*
X90477554Y-96304499D01*
X88824500Y-96304499D01*
X88757461Y-96284814D01*
X88711706Y-96232010D01*
X88700500Y-96180499D01*
X88700500Y-94202213D01*
X88700658Y-94197789D01*
X88700683Y-94197436D01*
X88717674Y-93959857D01*
X88720190Y-93942360D01*
X88769483Y-93715766D01*
X88774460Y-93698815D01*
X88855501Y-93481536D01*
X88862851Y-93465444D01*
X88897052Y-93402809D01*
X88973981Y-93261923D01*
X88983537Y-93247054D01*
X89122506Y-93061413D01*
X89134080Y-93048056D01*
X89298056Y-92884080D01*
X89311413Y-92872506D01*
X89497054Y-92733537D01*
X89511923Y-92723981D01*
X89715444Y-92612850D01*
X89731537Y-92605501D01*
X89753798Y-92597198D01*
X89948815Y-92524460D01*
X89965766Y-92519483D01*
X90192360Y-92470190D01*
X90209857Y-92467674D01*
X90447791Y-92450657D01*
X90452214Y-92450500D01*
X90509309Y-92450500D01*
X93638318Y-92450500D01*
X93705357Y-92470185D01*
G37*
%TD.AperFunction*%
M02*
