%TF.GenerationSoftware,KiCad,Pcbnew,7.0.7*%
%TF.CreationDate,2023-09-18T16:38:50-04:00*%
%TF.ProjectId,Encoder Mount,456e636f-6465-4722-904d-6f756e742e6b,rev?*%
%TF.SameCoordinates,Original*%
%TF.FileFunction,Legend,Top*%
%TF.FilePolarity,Positive*%
%FSLAX46Y46*%
G04 Gerber Fmt 4.6, Leading zero omitted, Abs format (unit mm)*
G04 Created by KiCad (PCBNEW 7.0.7) date 2023-09-18 16:38:50*
%MOMM*%
%LPD*%
G01*
G04 APERTURE LIST*
%ADD10C,0.150000*%
%ADD11C,0.100000*%
%ADD12C,0.120000*%
%ADD13C,2.600000*%
%ADD14C,3.500000*%
%ADD15C,4.000000*%
%ADD16R,2.000000X2.000000*%
%ADD17C,2.000000*%
%ADD18C,3.200000*%
%ADD19R,1.700000X1.700000*%
%ADD20O,1.700000X1.700000*%
G04 APERTURE END LIST*
D10*
X90739160Y-97660854D02*
X91215350Y-97660854D01*
X90643922Y-97946569D02*
X90977255Y-96946569D01*
X90977255Y-96946569D02*
X91310588Y-97946569D01*
X91265475Y-99534188D02*
X91170237Y-99486569D01*
X91170237Y-99486569D02*
X91027380Y-99486569D01*
X91027380Y-99486569D02*
X90884523Y-99534188D01*
X90884523Y-99534188D02*
X90789285Y-99629426D01*
X90789285Y-99629426D02*
X90741666Y-99724664D01*
X90741666Y-99724664D02*
X90694047Y-99915140D01*
X90694047Y-99915140D02*
X90694047Y-100057997D01*
X90694047Y-100057997D02*
X90741666Y-100248473D01*
X90741666Y-100248473D02*
X90789285Y-100343711D01*
X90789285Y-100343711D02*
X90884523Y-100438950D01*
X90884523Y-100438950D02*
X91027380Y-100486569D01*
X91027380Y-100486569D02*
X91122618Y-100486569D01*
X91122618Y-100486569D02*
X91265475Y-100438950D01*
X91265475Y-100438950D02*
X91313094Y-100391330D01*
X91313094Y-100391330D02*
X91313094Y-100057997D01*
X91313094Y-100057997D02*
X91122618Y-100057997D01*
X108296428Y-97770484D02*
X108334524Y-97732389D01*
X108334524Y-97732389D02*
X108410714Y-97694294D01*
X108410714Y-97694294D02*
X108601190Y-97694294D01*
X108601190Y-97694294D02*
X108677381Y-97732389D01*
X108677381Y-97732389D02*
X108715476Y-97770484D01*
X108715476Y-97770484D02*
X108753571Y-97846675D01*
X108753571Y-97846675D02*
X108753571Y-97922865D01*
X108753571Y-97922865D02*
X108715476Y-98037151D01*
X108715476Y-98037151D02*
X108258333Y-98494294D01*
X108258333Y-98494294D02*
X108753571Y-98494294D01*
D11*
X108905951Y-102478966D02*
X108144047Y-102478966D01*
D10*
X108772619Y-102156604D02*
X108734523Y-102194700D01*
X108734523Y-102194700D02*
X108620238Y-102232795D01*
X108620238Y-102232795D02*
X108544047Y-102232795D01*
X108544047Y-102232795D02*
X108429761Y-102194700D01*
X108429761Y-102194700D02*
X108353571Y-102118509D01*
X108353571Y-102118509D02*
X108315476Y-102042319D01*
X108315476Y-102042319D02*
X108277380Y-101889938D01*
X108277380Y-101889938D02*
X108277380Y-101775652D01*
X108277380Y-101775652D02*
X108315476Y-101623271D01*
X108315476Y-101623271D02*
X108353571Y-101547080D01*
X108353571Y-101547080D02*
X108429761Y-101470890D01*
X108429761Y-101470890D02*
X108544047Y-101432795D01*
X108544047Y-101432795D02*
X108620238Y-101432795D01*
X108620238Y-101432795D02*
X108734523Y-101470890D01*
X108734523Y-101470890D02*
X108772619Y-101508985D01*
X108734522Y-96418389D02*
X108658332Y-96380294D01*
X108658332Y-96380294D02*
X108544046Y-96380294D01*
X108544046Y-96380294D02*
X108429760Y-96418389D01*
X108429760Y-96418389D02*
X108353570Y-96494579D01*
X108353570Y-96494579D02*
X108315475Y-96570770D01*
X108315475Y-96570770D02*
X108277379Y-96723151D01*
X108277379Y-96723151D02*
X108277379Y-96837437D01*
X108277379Y-96837437D02*
X108315475Y-96989818D01*
X108315475Y-96989818D02*
X108353570Y-97066008D01*
X108353570Y-97066008D02*
X108429760Y-97142199D01*
X108429760Y-97142199D02*
X108544046Y-97180294D01*
X108544046Y-97180294D02*
X108620237Y-97180294D01*
X108620237Y-97180294D02*
X108734522Y-97142199D01*
X108734522Y-97142199D02*
X108772618Y-97104103D01*
X108772618Y-97104103D02*
X108772618Y-96837437D01*
X108772618Y-96837437D02*
X108620237Y-96837437D01*
D11*
X108905951Y-97426465D02*
X108144047Y-97426465D01*
D10*
X108860839Y-100486569D02*
X108527506Y-100010378D01*
X108289411Y-100486569D02*
X108289411Y-99486569D01*
X108289411Y-99486569D02*
X108670363Y-99486569D01*
X108670363Y-99486569D02*
X108765601Y-99534188D01*
X108765601Y-99534188D02*
X108813220Y-99581807D01*
X108813220Y-99581807D02*
X108860839Y-99677045D01*
X108860839Y-99677045D02*
X108860839Y-99819902D01*
X108860839Y-99819902D02*
X108813220Y-99915140D01*
X108813220Y-99915140D02*
X108765601Y-99962759D01*
X108765601Y-99962759D02*
X108670363Y-100010378D01*
X108670363Y-100010378D02*
X108289411Y-100010378D01*
X91074999Y-102502759D02*
X91217856Y-102550378D01*
X91217856Y-102550378D02*
X91265475Y-102597997D01*
X91265475Y-102597997D02*
X91313094Y-102693235D01*
X91313094Y-102693235D02*
X91313094Y-102836092D01*
X91313094Y-102836092D02*
X91265475Y-102931330D01*
X91265475Y-102931330D02*
X91217856Y-102978950D01*
X91217856Y-102978950D02*
X91122618Y-103026569D01*
X91122618Y-103026569D02*
X90741666Y-103026569D01*
X90741666Y-103026569D02*
X90741666Y-102026569D01*
X90741666Y-102026569D02*
X91074999Y-102026569D01*
X91074999Y-102026569D02*
X91170237Y-102074188D01*
X91170237Y-102074188D02*
X91217856Y-102121807D01*
X91217856Y-102121807D02*
X91265475Y-102217045D01*
X91265475Y-102217045D02*
X91265475Y-102312283D01*
X91265475Y-102312283D02*
X91217856Y-102407521D01*
X91217856Y-102407521D02*
X91170237Y-102455140D01*
X91170237Y-102455140D02*
X91074999Y-102502759D01*
X91074999Y-102502759D02*
X90741666Y-102502759D01*
X108803571Y-103546795D02*
X108346428Y-103546795D01*
X108575000Y-103546795D02*
X108575000Y-102746795D01*
X108575000Y-102746795D02*
X108498809Y-102861080D01*
X108498809Y-102861080D02*
X108422619Y-102937271D01*
X108422619Y-102937271D02*
X108346428Y-102975366D01*
D12*
X92200000Y-95899999D02*
X92800000Y-95899999D01*
X92500000Y-96199999D02*
X92200000Y-95899999D01*
X92800000Y-95899999D02*
X92500000Y-96199999D01*
X93900000Y-94099999D02*
X93900000Y-105899999D01*
X98000000Y-94099999D02*
X93900000Y-94099999D01*
X98000000Y-105899999D02*
X93900000Y-105899999D01*
X102000000Y-94099999D02*
X106100000Y-94099999D01*
X106100000Y-94099999D02*
X106100000Y-96499999D01*
X106100000Y-98699999D02*
X106100000Y-101299999D01*
X106100000Y-103499999D02*
X106100000Y-105899999D01*
X106100000Y-105899999D02*
X102000000Y-105899999D01*
X103000000Y-99999999D02*
G75*
G03*
X103000000Y-99999999I-3000000J0D01*
G01*
%LPC*%
D13*
X90500000Y-94250000D03*
D14*
X90500000Y-94250000D03*
D13*
X109000000Y-94250000D03*
D14*
X109000000Y-94250000D03*
D15*
X100000000Y-99999999D03*
D16*
X92500000Y-97499999D03*
D17*
X92500000Y-102499999D03*
X92500000Y-99999999D03*
D18*
X100000000Y-94399999D03*
X100000000Y-105599999D03*
D17*
X107000000Y-102499999D03*
X107000000Y-97499999D03*
D13*
X109000000Y-105750000D03*
D14*
X109000000Y-105750000D03*
D19*
X109910000Y-97474999D03*
D20*
X109910000Y-100014999D03*
X109910000Y-102554999D03*
D19*
X89590000Y-97474999D03*
D20*
X89590000Y-100014999D03*
X89590000Y-102554999D03*
D13*
X90500000Y-105750000D03*
D14*
X90500000Y-105750000D03*
%LPD*%
M02*
