%TF.GenerationSoftware,KiCad,Pcbnew,7.0.7*%
%TF.CreationDate,2023-09-18T16:38:50-04:00*%
%TF.ProjectId,Encoder Mount,456e636f-6465-4722-904d-6f756e742e6b,rev?*%
%TF.SameCoordinates,Original*%
%TF.FileFunction,Copper,L1,Top*%
%TF.FilePolarity,Positive*%
%FSLAX46Y46*%
G04 Gerber Fmt 4.6, Leading zero omitted, Abs format (unit mm)*
G04 Created by KiCad (PCBNEW 7.0.7) date 2023-09-18 16:38:50*
%MOMM*%
%LPD*%
G01*
G04 APERTURE LIST*
%TA.AperFunction,ComponentPad*%
%ADD10C,2.600000*%
%TD*%
%TA.AperFunction,ConnectorPad*%
%ADD11C,3.500000*%
%TD*%
%TA.AperFunction,ComponentPad*%
%ADD12R,2.000000X2.000000*%
%TD*%
%TA.AperFunction,ComponentPad*%
%ADD13C,2.000000*%
%TD*%
%TA.AperFunction,ComponentPad*%
%ADD14C,3.200000*%
%TD*%
%TA.AperFunction,ComponentPad*%
%ADD15R,1.700000X1.700000*%
%TD*%
%TA.AperFunction,ComponentPad*%
%ADD16O,1.700000X1.700000*%
%TD*%
%TA.AperFunction,Conductor*%
%ADD17C,1.000000*%
%TD*%
G04 APERTURE END LIST*
D10*
X90500000Y-94250000D03*
D11*
X90500000Y-94250000D03*
D10*
X109000000Y-94250000D03*
D11*
X109000000Y-94250000D03*
D12*
X92500000Y-97499999D03*
D13*
X92500000Y-102499999D03*
X92500000Y-99999999D03*
D14*
X100000000Y-94399999D03*
X100000000Y-105599999D03*
D13*
X107000000Y-102499999D03*
X107000000Y-97499999D03*
D10*
X109000000Y-105750000D03*
D11*
X109000000Y-105750000D03*
D15*
X109910000Y-97474999D03*
D16*
X109910000Y-100014999D03*
X109910000Y-102554999D03*
D15*
X89590000Y-97474999D03*
D16*
X89590000Y-100014999D03*
X89590000Y-102554999D03*
D10*
X90500000Y-105750000D03*
D11*
X90500000Y-105750000D03*
D17*
X89590000Y-97475000D02*
X92475000Y-97475000D01*
X89590000Y-102555000D02*
X92445000Y-102555000D01*
X109910000Y-97474999D02*
X109909999Y-97475000D01*
X109909999Y-97475000D02*
X107025000Y-97475000D01*
X109909999Y-102555000D02*
X107055000Y-102555000D01*
X109910000Y-102554999D02*
X109909999Y-102555000D01*
%TA.AperFunction,Conductor*%
G36*
X99144139Y-92470185D02*
G01*
X99189894Y-92522989D01*
X99199838Y-92592147D01*
X99170813Y-92655703D01*
X99136527Y-92683332D01*
X98959052Y-92780240D01*
X98959044Y-92780245D01*
X98739134Y-92944867D01*
X98739116Y-92944883D01*
X98544884Y-93139115D01*
X98544868Y-93139133D01*
X98380246Y-93359043D01*
X98380241Y-93359051D01*
X98248591Y-93600149D01*
X98211795Y-93698803D01*
X98152586Y-93857549D01*
X98152585Y-93857552D01*
X98152584Y-93857556D01*
X98094193Y-94125977D01*
X98094192Y-94125984D01*
X98074594Y-94399997D01*
X98074594Y-94400000D01*
X98094192Y-94674013D01*
X98094193Y-94674020D01*
X98152584Y-94942441D01*
X98152586Y-94942449D01*
X98229897Y-95149727D01*
X98248591Y-95199848D01*
X98380241Y-95440946D01*
X98380246Y-95440954D01*
X98544868Y-95660864D01*
X98544884Y-95660882D01*
X98739116Y-95855114D01*
X98739134Y-95855130D01*
X98959044Y-96019752D01*
X98959052Y-96019757D01*
X99200151Y-96151407D01*
X99200150Y-96151407D01*
X99200154Y-96151408D01*
X99200157Y-96151410D01*
X99457550Y-96247413D01*
X99725986Y-96305807D01*
X99980401Y-96324003D01*
X99999999Y-96325405D01*
X100000000Y-96325405D01*
X100000001Y-96325405D01*
X100018290Y-96324096D01*
X100274014Y-96305807D01*
X100542450Y-96247413D01*
X100799843Y-96151410D01*
X100799847Y-96151407D01*
X100799849Y-96151407D01*
X100920397Y-96085581D01*
X101040953Y-96019754D01*
X101260873Y-95855124D01*
X101455125Y-95660872D01*
X101619755Y-95440952D01*
X101751411Y-95199842D01*
X101847414Y-94942449D01*
X101905808Y-94674013D01*
X101925406Y-94399999D01*
X101905808Y-94125985D01*
X101847414Y-93857549D01*
X101751411Y-93600156D01*
X101751409Y-93600153D01*
X101751408Y-93600149D01*
X101619758Y-93359051D01*
X101619753Y-93359043D01*
X101455131Y-93139133D01*
X101455115Y-93139115D01*
X101260883Y-92944883D01*
X101260865Y-92944867D01*
X101040955Y-92780245D01*
X101040947Y-92780240D01*
X100863473Y-92683332D01*
X100814068Y-92633927D01*
X100799216Y-92565654D01*
X100823633Y-92500190D01*
X100879567Y-92458318D01*
X100922900Y-92450500D01*
X108990691Y-92450500D01*
X109047786Y-92450500D01*
X109052208Y-92450657D01*
X109290140Y-92467674D01*
X109307641Y-92470191D01*
X109534229Y-92519482D01*
X109551188Y-92524461D01*
X109626590Y-92552585D01*
X109768462Y-92605501D01*
X109784555Y-92612851D01*
X109988068Y-92723977D01*
X110002951Y-92733542D01*
X110188579Y-92872501D01*
X110201950Y-92884087D01*
X110365912Y-93048049D01*
X110377498Y-93061420D01*
X110516457Y-93247048D01*
X110526022Y-93261931D01*
X110637148Y-93465444D01*
X110644498Y-93481537D01*
X110725535Y-93698803D01*
X110730519Y-93715779D01*
X110779807Y-93942352D01*
X110782325Y-93959864D01*
X110799342Y-94197789D01*
X110799500Y-94202213D01*
X110799500Y-96180499D01*
X110779815Y-96247538D01*
X110727011Y-96293293D01*
X110675500Y-96304499D01*
X109022445Y-96304499D01*
X108975770Y-96310643D01*
X108873332Y-96358411D01*
X108793412Y-96438331D01*
X108745644Y-96540770D01*
X108744866Y-96546683D01*
X108716601Y-96610580D01*
X108658278Y-96649052D01*
X108621927Y-96654500D01*
X108073333Y-96654500D01*
X108006294Y-96634815D01*
X107985652Y-96618182D01*
X107949481Y-96582011D01*
X107852043Y-96484573D01*
X107852039Y-96484570D01*
X107852038Y-96484569D01*
X107662776Y-96352046D01*
X107662772Y-96352044D01*
X107605644Y-96325405D01*
X107453363Y-96254395D01*
X107453359Y-96254394D01*
X107453355Y-96254392D01*
X107230183Y-96194594D01*
X107230179Y-96194593D01*
X107230178Y-96194593D01*
X107230177Y-96194592D01*
X107230172Y-96194592D01*
X107000002Y-96174455D01*
X106999998Y-96174455D01*
X106769827Y-96194592D01*
X106769816Y-96194594D01*
X106546644Y-96254392D01*
X106546635Y-96254396D01*
X106337227Y-96352044D01*
X106337223Y-96352046D01*
X106147961Y-96484569D01*
X106147955Y-96484574D01*
X105984575Y-96647954D01*
X105984570Y-96647960D01*
X105852047Y-96837222D01*
X105852045Y-96837226D01*
X105754397Y-97046634D01*
X105754393Y-97046643D01*
X105694595Y-97269815D01*
X105694593Y-97269826D01*
X105674456Y-97499997D01*
X105674456Y-97500000D01*
X105694593Y-97730171D01*
X105694595Y-97730182D01*
X105754393Y-97953354D01*
X105754395Y-97953358D01*
X105754396Y-97953362D01*
X105803810Y-98059331D01*
X105852045Y-98162771D01*
X105852047Y-98162775D01*
X105984570Y-98352037D01*
X105984575Y-98352043D01*
X106147955Y-98515423D01*
X106147961Y-98515428D01*
X106337223Y-98647951D01*
X106337225Y-98647952D01*
X106337228Y-98647954D01*
X106546637Y-98745603D01*
X106769822Y-98805405D01*
X106934234Y-98819789D01*
X106999998Y-98825543D01*
X107000000Y-98825543D01*
X107000002Y-98825543D01*
X107057653Y-98820499D01*
X107230178Y-98805405D01*
X107453363Y-98745603D01*
X107662772Y-98647954D01*
X107852043Y-98515425D01*
X108015426Y-98352042D01*
X108016238Y-98350881D01*
X108017995Y-98348374D01*
X108072573Y-98304750D01*
X108119568Y-98295500D01*
X108621927Y-98295500D01*
X108688966Y-98315185D01*
X108734721Y-98367989D01*
X108744866Y-98403315D01*
X108745644Y-98409228D01*
X108756248Y-98431968D01*
X108793412Y-98511666D01*
X108873333Y-98591587D01*
X108975769Y-98639354D01*
X109022445Y-98645499D01*
X109541531Y-98645499D01*
X109608570Y-98665184D01*
X109654325Y-98717988D01*
X109664269Y-98787146D01*
X109635244Y-98850702D01*
X109586325Y-98885126D01*
X109386030Y-98962719D01*
X109386029Y-98962720D01*
X109201592Y-99076919D01*
X109041285Y-99223057D01*
X108910557Y-99396169D01*
X108813869Y-99590343D01*
X108813864Y-99590356D01*
X108754499Y-99798999D01*
X108734484Y-100014998D01*
X108734484Y-100014999D01*
X108754499Y-100230998D01*
X108813864Y-100439641D01*
X108813869Y-100439654D01*
X108910557Y-100633828D01*
X109041285Y-100806940D01*
X109179194Y-100932660D01*
X109201594Y-100953080D01*
X109386028Y-101067277D01*
X109588305Y-101145639D01*
X109681770Y-101163110D01*
X109744050Y-101194778D01*
X109779323Y-101255091D01*
X109776389Y-101324899D01*
X109736180Y-101382039D01*
X109681770Y-101406887D01*
X109588305Y-101424359D01*
X109588302Y-101424359D01*
X109588302Y-101424360D01*
X109386030Y-101502720D01*
X109386029Y-101502720D01*
X109201592Y-101616919D01*
X109108113Y-101702137D01*
X109045309Y-101732754D01*
X109024575Y-101734500D01*
X108140575Y-101734500D01*
X108073536Y-101714815D01*
X108039001Y-101681625D01*
X108032837Y-101672822D01*
X108015426Y-101647956D01*
X107852043Y-101484573D01*
X107852041Y-101484572D01*
X107852038Y-101484569D01*
X107662776Y-101352046D01*
X107662772Y-101352044D01*
X107662771Y-101352043D01*
X107453363Y-101254395D01*
X107453359Y-101254394D01*
X107453355Y-101254392D01*
X107230183Y-101194594D01*
X107230179Y-101194593D01*
X107230178Y-101194593D01*
X107230177Y-101194592D01*
X107230172Y-101194592D01*
X107000002Y-101174455D01*
X106999998Y-101174455D01*
X106769827Y-101194592D01*
X106769816Y-101194594D01*
X106546644Y-101254392D01*
X106546637Y-101254394D01*
X106546637Y-101254395D01*
X106520194Y-101266725D01*
X106337227Y-101352044D01*
X106337223Y-101352046D01*
X106147961Y-101484569D01*
X106147955Y-101484574D01*
X105984575Y-101647954D01*
X105984570Y-101647960D01*
X105852047Y-101837222D01*
X105852045Y-101837226D01*
X105754397Y-102046634D01*
X105754393Y-102046643D01*
X105694595Y-102269815D01*
X105694593Y-102269826D01*
X105674456Y-102499997D01*
X105674456Y-102500000D01*
X105694593Y-102730171D01*
X105694595Y-102730182D01*
X105754393Y-102953354D01*
X105754395Y-102953358D01*
X105754396Y-102953362D01*
X105852045Y-103162770D01*
X105852045Y-103162771D01*
X105852047Y-103162775D01*
X105984570Y-103352037D01*
X105984575Y-103352043D01*
X106147955Y-103515423D01*
X106147961Y-103515428D01*
X106337223Y-103647951D01*
X106337225Y-103647952D01*
X106337228Y-103647954D01*
X106546637Y-103745603D01*
X106769822Y-103805405D01*
X106934234Y-103819789D01*
X106999998Y-103825543D01*
X107000000Y-103825543D01*
X107000002Y-103825543D01*
X107057544Y-103820508D01*
X107230178Y-103805405D01*
X107453363Y-103745603D01*
X107662772Y-103647954D01*
X107852043Y-103515425D01*
X107955649Y-103411819D01*
X108016972Y-103378334D01*
X108043330Y-103375500D01*
X109024577Y-103375500D01*
X109091616Y-103395185D01*
X109108115Y-103407863D01*
X109201594Y-103493080D01*
X109386028Y-103607277D01*
X109588305Y-103685639D01*
X109801537Y-103725499D01*
X109801539Y-103725499D01*
X110018461Y-103725499D01*
X110018463Y-103725499D01*
X110231695Y-103685639D01*
X110433972Y-103607277D01*
X110610223Y-103498146D01*
X110677582Y-103479591D01*
X110744281Y-103500399D01*
X110789143Y-103553964D01*
X110799499Y-103603574D01*
X110799498Y-105792044D01*
X110799500Y-105792054D01*
X110799500Y-105797786D01*
X110799342Y-105802210D01*
X110782325Y-106040135D01*
X110779807Y-106057647D01*
X110730519Y-106284220D01*
X110725535Y-106301196D01*
X110644498Y-106518462D01*
X110637148Y-106534555D01*
X110526022Y-106738068D01*
X110516457Y-106752951D01*
X110377498Y-106938579D01*
X110365912Y-106951950D01*
X110201950Y-107115912D01*
X110188579Y-107127498D01*
X110002951Y-107266457D01*
X109988068Y-107276022D01*
X109784555Y-107387148D01*
X109768462Y-107394498D01*
X109551196Y-107475535D01*
X109534220Y-107480519D01*
X109307647Y-107529807D01*
X109290135Y-107532325D01*
X109073672Y-107547806D01*
X109052208Y-107549342D01*
X109047786Y-107549500D01*
X100922896Y-107549500D01*
X100855857Y-107529815D01*
X100810102Y-107477011D01*
X100800158Y-107407853D01*
X100829183Y-107344297D01*
X100863469Y-107316668D01*
X100970433Y-107258260D01*
X101040953Y-107219754D01*
X101260873Y-107055124D01*
X101455125Y-106860872D01*
X101619755Y-106640952D01*
X101751411Y-106399842D01*
X101847414Y-106142449D01*
X101905808Y-105874013D01*
X101925406Y-105599999D01*
X101905808Y-105325985D01*
X101847414Y-105057549D01*
X101751411Y-104800156D01*
X101751409Y-104800153D01*
X101751408Y-104800149D01*
X101619758Y-104559051D01*
X101619753Y-104559043D01*
X101455131Y-104339133D01*
X101455115Y-104339115D01*
X101260883Y-104144883D01*
X101260865Y-104144867D01*
X101040955Y-103980245D01*
X101040947Y-103980240D01*
X100799848Y-103848590D01*
X100799849Y-103848590D01*
X100684065Y-103805405D01*
X100542450Y-103752585D01*
X100542443Y-103752583D01*
X100542442Y-103752583D01*
X100274021Y-103694192D01*
X100274014Y-103694191D01*
X100000001Y-103674593D01*
X99999999Y-103674593D01*
X99725985Y-103694191D01*
X99725978Y-103694192D01*
X99457557Y-103752583D01*
X99457553Y-103752584D01*
X99457550Y-103752585D01*
X99328853Y-103800586D01*
X99200150Y-103848590D01*
X98959052Y-103980240D01*
X98959044Y-103980245D01*
X98739134Y-104144867D01*
X98739116Y-104144883D01*
X98544884Y-104339115D01*
X98544868Y-104339133D01*
X98380246Y-104559043D01*
X98380241Y-104559051D01*
X98248591Y-104800149D01*
X98200587Y-104928852D01*
X98152586Y-105057549D01*
X98152585Y-105057552D01*
X98152584Y-105057556D01*
X98094193Y-105325977D01*
X98094192Y-105325984D01*
X98074594Y-105599997D01*
X98074594Y-105600000D01*
X98094192Y-105874013D01*
X98094193Y-105874020D01*
X98152584Y-106142441D01*
X98152586Y-106142449D01*
X98205464Y-106284220D01*
X98248591Y-106399848D01*
X98380241Y-106640946D01*
X98380246Y-106640954D01*
X98544868Y-106860864D01*
X98544884Y-106860882D01*
X98739116Y-107055114D01*
X98739134Y-107055130D01*
X98959044Y-107219752D01*
X98959052Y-107219757D01*
X99136531Y-107316668D01*
X99185936Y-107366073D01*
X99200788Y-107434346D01*
X99176371Y-107499810D01*
X99120438Y-107541682D01*
X99077104Y-107549500D01*
X90452214Y-107549500D01*
X90447791Y-107549342D01*
X90423680Y-107547617D01*
X90209864Y-107532325D01*
X90192352Y-107529807D01*
X89965779Y-107480519D01*
X89948803Y-107475535D01*
X89731537Y-107394498D01*
X89715444Y-107387148D01*
X89511931Y-107276022D01*
X89497048Y-107266457D01*
X89311420Y-107127498D01*
X89298049Y-107115912D01*
X89134087Y-106951950D01*
X89122501Y-106938579D01*
X88983542Y-106752951D01*
X88973977Y-106738068D01*
X88862851Y-106534555D01*
X88855501Y-106518462D01*
X88811260Y-106399848D01*
X88774461Y-106301188D01*
X88769482Y-106284229D01*
X88720191Y-106057641D01*
X88717674Y-106040135D01*
X88711145Y-105948849D01*
X88700657Y-105802208D01*
X88700500Y-105797786D01*
X88700500Y-103603574D01*
X88720185Y-103536535D01*
X88772989Y-103490780D01*
X88842147Y-103480836D01*
X88889776Y-103498146D01*
X89066028Y-103607277D01*
X89268305Y-103685639D01*
X89481537Y-103725499D01*
X89481539Y-103725499D01*
X89698461Y-103725499D01*
X89698463Y-103725499D01*
X89911695Y-103685639D01*
X90113972Y-103607277D01*
X90298406Y-103493080D01*
X90391883Y-103407863D01*
X90454689Y-103377246D01*
X90475423Y-103375500D01*
X91456670Y-103375500D01*
X91523709Y-103395185D01*
X91544351Y-103411819D01*
X91647955Y-103515423D01*
X91647961Y-103515428D01*
X91837223Y-103647951D01*
X91837225Y-103647952D01*
X91837228Y-103647954D01*
X92046637Y-103745603D01*
X92269822Y-103805405D01*
X92434234Y-103819789D01*
X92499998Y-103825543D01*
X92500000Y-103825543D01*
X92500002Y-103825543D01*
X92557544Y-103820508D01*
X92730178Y-103805405D01*
X92953363Y-103745603D01*
X93162772Y-103647954D01*
X93352043Y-103515425D01*
X93515426Y-103352042D01*
X93647955Y-103162771D01*
X93745604Y-102953362D01*
X93805406Y-102730177D01*
X93825544Y-102499999D01*
X93805406Y-102269821D01*
X93745604Y-102046636D01*
X93647955Y-101837227D01*
X93647953Y-101837224D01*
X93647952Y-101837222D01*
X93515429Y-101647960D01*
X93515424Y-101647954D01*
X93352044Y-101484574D01*
X93352038Y-101484569D01*
X93162776Y-101352046D01*
X93162772Y-101352044D01*
X92953363Y-101254395D01*
X92953359Y-101254394D01*
X92953355Y-101254392D01*
X92730183Y-101194594D01*
X92730179Y-101194593D01*
X92730178Y-101194593D01*
X92730177Y-101194592D01*
X92730172Y-101194592D01*
X92500002Y-101174455D01*
X92499998Y-101174455D01*
X92269827Y-101194592D01*
X92269816Y-101194594D01*
X92046644Y-101254392D01*
X92046637Y-101254394D01*
X92046637Y-101254395D01*
X92020194Y-101266725D01*
X91837227Y-101352044D01*
X91837223Y-101352046D01*
X91647961Y-101484569D01*
X91647955Y-101484574D01*
X91484577Y-101647952D01*
X91460999Y-101681625D01*
X91406422Y-101725249D01*
X91359425Y-101734500D01*
X90475425Y-101734500D01*
X90408386Y-101714815D01*
X90391887Y-101702137D01*
X90298407Y-101616919D01*
X90298406Y-101616918D01*
X90113972Y-101502721D01*
X89911695Y-101424359D01*
X89698463Y-101384499D01*
X89481537Y-101384499D01*
X89268305Y-101424359D01*
X89268302Y-101424359D01*
X89268302Y-101424360D01*
X89066030Y-101502720D01*
X89066024Y-101502722D01*
X88889777Y-101611850D01*
X88822416Y-101630405D01*
X88755717Y-101609597D01*
X88710856Y-101556032D01*
X88700500Y-101506423D01*
X88700500Y-100075372D01*
X97745723Y-100075372D01*
X97775881Y-100375159D01*
X97775882Y-100375161D01*
X97845728Y-100668251D01*
X97845733Y-100668265D01*
X97954020Y-100949426D01*
X97954024Y-100949435D01*
X98098825Y-101213664D01*
X98098829Y-101213670D01*
X98224697Y-101384499D01*
X98277554Y-101456237D01*
X98428051Y-101611850D01*
X98487019Y-101672822D01*
X98723478Y-101859552D01*
X98723480Y-101859553D01*
X98723485Y-101859557D01*
X98982730Y-102013108D01*
X99260128Y-102130735D01*
X99550729Y-102210339D01*
X99849347Y-102250499D01*
X99849351Y-102250499D01*
X100075252Y-102250499D01*
X100239164Y-102239525D01*
X100300634Y-102235411D01*
X100595903Y-102175395D01*
X100880537Y-102076559D01*
X101149459Y-101940667D01*
X101397869Y-101770143D01*
X101621333Y-101568031D01*
X101815865Y-101337938D01*
X101977993Y-101083969D01*
X102104823Y-100810657D01*
X102194093Y-100522878D01*
X102244209Y-100225769D01*
X102254277Y-99924630D01*
X102224118Y-99624837D01*
X102154269Y-99331738D01*
X102045977Y-99050565D01*
X101901175Y-98786334D01*
X101722446Y-98543761D01*
X101512980Y-98327175D01*
X101389742Y-98229855D01*
X101276521Y-98140445D01*
X101276517Y-98140442D01*
X101276515Y-98140441D01*
X101017270Y-97986890D01*
X100739872Y-97869263D01*
X100739863Y-97869260D01*
X100449272Y-97789659D01*
X100374616Y-97779619D01*
X100150653Y-97749499D01*
X99924756Y-97749499D01*
X99924748Y-97749499D01*
X99699368Y-97764586D01*
X99699359Y-97764588D01*
X99404094Y-97824603D01*
X99119464Y-97923438D01*
X99119459Y-97923440D01*
X98850546Y-98059327D01*
X98602125Y-98229859D01*
X98378665Y-98431968D01*
X98184132Y-98662063D01*
X98022006Y-98916029D01*
X98022005Y-98916031D01*
X97947346Y-99076919D01*
X97895177Y-99189341D01*
X97895176Y-99189345D01*
X97805907Y-99477117D01*
X97755791Y-99774229D01*
X97745723Y-100075372D01*
X88700500Y-100075372D01*
X88700500Y-98769499D01*
X88720185Y-98702460D01*
X88772989Y-98656705D01*
X88824500Y-98645499D01*
X90477555Y-98645499D01*
X90493112Y-98643450D01*
X90524231Y-98639354D01*
X90626667Y-98591587D01*
X90706588Y-98511666D01*
X90754355Y-98409230D01*
X90755133Y-98403315D01*
X90783400Y-98339418D01*
X90841724Y-98300947D01*
X90878073Y-98295500D01*
X91055500Y-98295500D01*
X91122539Y-98315185D01*
X91168294Y-98367989D01*
X91179500Y-98419500D01*
X91179500Y-98537553D01*
X91185644Y-98584228D01*
X91185645Y-98584230D01*
X91233412Y-98686666D01*
X91313333Y-98766587D01*
X91415769Y-98814354D01*
X91462445Y-98820499D01*
X91462446Y-98820499D01*
X93537555Y-98820499D01*
X93553112Y-98818450D01*
X93584231Y-98814354D01*
X93686667Y-98766587D01*
X93766588Y-98686666D01*
X93814355Y-98584230D01*
X93820500Y-98537553D01*
X93820500Y-96462445D01*
X93814355Y-96415768D01*
X93766588Y-96313332D01*
X93686667Y-96233411D01*
X93584231Y-96185644D01*
X93584229Y-96185643D01*
X93584230Y-96185643D01*
X93537555Y-96179499D01*
X93537554Y-96179499D01*
X91462446Y-96179499D01*
X91462445Y-96179499D01*
X91415770Y-96185643D01*
X91313332Y-96233411D01*
X91233412Y-96313331D01*
X91185644Y-96415769D01*
X91179500Y-96462444D01*
X91179500Y-96530500D01*
X91159815Y-96597539D01*
X91107011Y-96643294D01*
X91055500Y-96654500D01*
X90878073Y-96654500D01*
X90811034Y-96634815D01*
X90765279Y-96582011D01*
X90755134Y-96546683D01*
X90754355Y-96540770D01*
X90754355Y-96540768D01*
X90706588Y-96438332D01*
X90626667Y-96358411D01*
X90524231Y-96310644D01*
X90524229Y-96310643D01*
X90524230Y-96310643D01*
X90477555Y-96304499D01*
X90477554Y-96304499D01*
X88824500Y-96304499D01*
X88757461Y-96284814D01*
X88711706Y-96232010D01*
X88700500Y-96180499D01*
X88700500Y-94202213D01*
X88700658Y-94197789D01*
X88717674Y-93959857D01*
X88720190Y-93942360D01*
X88769483Y-93715766D01*
X88774460Y-93698815D01*
X88855501Y-93481536D01*
X88862851Y-93465444D01*
X88920946Y-93359051D01*
X88973981Y-93261923D01*
X88983537Y-93247054D01*
X89122506Y-93061413D01*
X89134080Y-93048056D01*
X89298056Y-92884080D01*
X89311413Y-92872506D01*
X89497054Y-92733537D01*
X89511923Y-92723981D01*
X89715444Y-92612850D01*
X89731537Y-92605501D01*
X89948815Y-92524460D01*
X89965766Y-92519483D01*
X90192360Y-92470190D01*
X90209857Y-92467674D01*
X90447791Y-92450657D01*
X90452214Y-92450500D01*
X90509309Y-92450500D01*
X99077100Y-92450500D01*
X99144139Y-92470185D01*
G37*
%TD.AperFunction*%
M02*
